<?xml version="1.0" encoding="utf-8"?>
<!-- Generator: Adobe Illustrator 17.0.0, SVG Export Plug-In . SVG Version: 6.00 Build 0)  -->
<!DOCTYPE svg PUBLIC "-//W3C//DTD SVG 1.1//EN" "http://www.w3.org/Graphics/SVG/1.1/DTD/svg11.dtd">
<svg version="1.1" id="Layer_1" xmlns="http://www.w3.org/2000/svg" xmlns:xlink="http://www.w3.org/1999/xlink" x="0px" y="0px"
	 width="538.708px" height="51.889px" viewBox="0 0 538.708 51.889" enable-background="new 0 0 538.708 51.889"
	 xml:space="preserve">
<g id="Layer_1_1_">
	<g>
		<path fill="#43311E" d="M54.022,30.809c-1.598,4.559-2.585,7.19-3.431,9.775l-0.94,0.282l-9.399-26.694l-6.204,16.919
			c-1.222,3.384-2.491,6.438-3.619,9.729H29.49l-8.695-24.814c-1.175-3.337-2.538-7.097-3.336-8.977l3.76-0.282l8.976,26.413
			l6.439-17.765c0.799-2.35,2.726-7.66,3.102-8.788l0.987-0.282l9.399,26.835l5.875-17.389c1.034-3.055,2.256-6.908,2.867-8.835
			h3.807L54.022,30.809z"/>
		<path fill="#43311E" d="M66.855,13.279c-1.363,0-2.256-1.081-2.256-2.209c0-1.316,0.94-2.444,2.35-2.444
			c1.363,0,2.256,1.081,2.256,2.256C69.205,12.198,68.265,13.279,66.855,13.279z M64.928,39.973
			c0.188-2.021,0.235-5.029,0.235-7.801v-5.499c0-2.726-0.094-6.062-0.282-8.083c1.269,0,2.585-0.047,3.666-0.188
			c-0.094,0.846-0.141,4.23-0.141,5.358v11.56c0,1.645,0.047,3.431,0.141,4.653H64.928z"/>
		<path fill="#43311E" d="M74.141,39.973c0.188-2.021,0.235-5.029,0.235-7.801V14.501c0-3.196-0.047-5.734-0.235-7.896
			c1.222-0.094,2.538-0.235,3.619-0.47c-0.094,0.846-0.141,3.525-0.141,5.405v23.78c0,1.645,0.047,3.431,0.141,4.653H74.141z"/>
		<path fill="#43311E" d="M83.353,39.973c0.188-2.021,0.235-5.029,0.235-7.801V14.501c0-3.196-0.047-5.734-0.235-7.896
			c1.222-0.094,2.538-0.235,3.619-0.47C86.877,6.981,86.83,9.66,86.83,11.54v23.78c0,1.645,0.047,3.431,0.141,4.653H83.353z"/>
		<path fill="#43311E" d="M90.966,34.428c0-3.995,3.384-7.05,10.998-7.05c0.893,0,1.739,0.047,2.538,0.141l0.047-0.893
			c0.141-3.854-1.504-5.733-4.981-5.733c-2.209,0-4.512,0.939-6.11,2.067l-0.752-2.867c2.256-1.316,4.653-2.068,7.332-2.068
			c5.076,0,7.849,3.055,7.708,8.271l-0.282,9.306c-0.047,1.739,0.423,2.303,1.457,2.303c0.611,0,1.222-0.188,1.88-0.47l-0.329,2.35
			c-0.658,0.329-1.504,0.658-2.491,0.658c-1.692,0-3.243-1.081-3.29-4.183c-1.175,2.491-3.901,4.277-7.097,4.277
			C93.41,40.537,90.966,37.999,90.966,34.428z M104.407,31.796l0.047-2.068c-0.846-0.094-1.739-0.141-2.585-0.141
			c-5.875,0-7.754,2.209-7.754,4.652c0,2.021,1.222,3.666,4.136,3.666C101.635,37.905,104.267,35.32,104.407,31.796z"/>
		<path fill="#43311E" d="M141.865,39.973c0.188-2.021,0.282-5.264,0.282-7.99v-5.687c0-3.478-1.316-5.404-4.183-5.404
			c-3.478,0-6.721,3.384-6.721,5.968v8.271c0,1.645,0.047,3.619,0.141,4.841h-3.619c0.141-2.021,0.235-5.264,0.235-7.99v-5.687
			c0-3.478-1.222-5.404-4.088-5.404c-3.478,0-6.721,3.384-6.721,5.968v8.271c0,1.645,0.047,3.478,0.141,4.841h-3.619
			c0.141-2.021,0.235-5.264,0.235-7.99v-5.357c0-2.726-0.094-5.969-0.282-7.989c1.269,0,2.115-0.094,3.196-0.188l0.235,4.23
			c1.692-2.35,4.512-4.653,7.661-4.653c3.29,0,5.593,1.739,6.204,4.794c1.316-2.256,4.183-4.794,7.849-4.794
			c4.136,0,6.58,2.538,6.58,7.52v9.587c0,1.645,0.047,3.619,0.141,4.841L141.865,39.973L141.865,39.973z"/>
		<path fill="#43311E" d="M167.011,29.681l-14.1,0.376c0.141,5.076,2.914,7.802,7.52,7.802c3.29,0,5.734-1.41,7.802-3.149
			l-0.141,3.384c-2.208,1.551-4.7,2.632-8.037,2.632c-6.768,0-10.386-4.841-10.386-10.762c0-6.674,4.23-11.938,10.668-11.938
			c6.062,0,8.835,4.559,8.835,10.339L167.011,29.681z M166.118,27.237c-0.423-4.136-2.303-6.438-6.016-6.438
			c-3.901,0-6.486,3.008-7.097,6.768L166.118,27.237z"/>
		<path fill="#43311E" d="M183.79,39.456c-0.893,0.705-2.491,1.175-3.995,1.175c-3.666,0-5.311-2.115-5.311-5.78V21.315h-3.76
			l0.893-2.82h2.914l0.329-4.7l2.867-0.752v5.452h5.921c-0.094,0.799-0.141,1.551-0.141,2.82h-5.781v13.206
			c0,2.35,0.987,3.149,2.773,3.149c1.316,0,2.538-0.517,3.431-1.081L183.79,39.456z"/>
		<path fill="#43311E" d="M198.172,39.456c-0.893,0.705-2.491,1.175-3.995,1.175c-3.666,0-5.311-2.115-5.311-5.78V21.315h-3.76
			l0.893-2.82h2.914l0.329-4.7l2.867-0.752v5.452h5.922c-0.094,0.799-0.141,1.551-0.141,2.82h-5.781v13.206
			c0,2.35,0.987,3.149,2.773,3.149c1.316,0,2.538-0.517,3.431-1.081L198.172,39.456z"/>
		<path fill="#43311E" d="M217.864,29.681l-14.1,0.376c0.141,5.076,2.914,7.802,7.52,7.802c3.29,0,5.734-1.41,7.802-3.149
			l-0.141,3.384c-2.208,1.551-4.7,2.632-8.037,2.632c-6.768,0-10.386-4.841-10.386-10.762c0-6.674,4.23-11.938,10.668-11.938
			c6.062,0,8.835,4.559,8.835,10.339L217.864,29.681z M216.971,27.237c-0.423-4.136-2.303-6.438-6.016-6.438
			c-3.901,0-6.486,3.008-7.097,6.768L216.971,27.237z"/>
		<path fill="#43311E" d="M252.69,40.302l-9.117-14.146h-6.157v7.049c0,1.786,0.047,5.452,0.094,6.768h-3.807
			c0.188-2.256,0.282-8.271,0.282-11.326V18.261c0-3.008-0.094-9.118-0.282-11.374c1.927,0,6.11-0.141,8.271-0.188
			c7.801-0.094,11.984,4.229,11.89,9.211c-0.094,4.606-2.679,7.754-7.097,9.446l5.076,7.567c1.222,1.833,3.712,5.311,4.888,6.861
			L252.69,40.302z M242.915,23.242c4.653,0,7.378-3.196,7.378-6.861c0-4.183-2.679-6.627-8.083-6.627c-1.692,0-3.384,0-4.793,0.094
			v13.394H242.915z"/>
		<path fill="#43311E" d="M261.997,13.279c-1.363,0-2.256-1.081-2.256-2.209c0-1.316,0.94-2.444,2.35-2.444
			c1.363,0,2.256,1.081,2.256,2.256C264.347,12.198,263.407,13.279,261.997,13.279z M260.07,39.973
			c0.188-2.021,0.235-5.029,0.235-7.801v-5.499c0-2.726-0.094-6.062-0.282-8.083c1.269,0,2.585-0.047,3.666-0.188
			c-0.094,0.846-0.141,4.23-0.141,5.358v11.56c0,1.645,0.047,3.431,0.141,4.653H260.07z"/>
		<path fill="#43311E" d="M273.042,33.676l-3.243-7.473c-1.175-2.726-2.256-5.405-3.29-7.426l3.525-0.517l6.955,17.201l3.008-7.754
			c0.752-2.021,2.679-6.674,3.524-9.165c1.27,0,2.539-0.047,3.572-0.141l-9.117,21.995l-2.115,0.235
			C275.25,38.845,274.076,36.119,273.042,33.676z"/>
		<path fill="#43311E" d="M305.424,29.681l-14.099,0.376c0.141,5.076,2.913,7.802,7.52,7.802c3.29,0,5.733-1.41,7.802-3.149
			l-0.142,3.384c-2.209,1.551-4.7,2.632-8.036,2.632c-6.768,0-10.387-4.841-10.387-10.762c0-6.674,4.23-11.938,10.668-11.938
			c6.062,0,8.836,4.559,8.836,10.339L305.424,29.681z M304.531,27.237c-0.423-4.136-2.303-6.438-6.016-6.438
			c-3.9,0-6.486,3.008-7.097,6.768L304.531,27.237z"/>
		<path fill="#43311E" d="M322.156,21.785c-3.571-0.376-7.143,2.35-7.143,5.734v7.613c0,1.645,0.047,3.478,0.141,4.841h-3.619
			c0.188-2.021,0.235-5.264,0.235-7.99v-6.016c0-2.726-0.142-5.169-0.423-7.144c1.08-0.047,2.209-0.235,3.242-0.47l0.377,4.841
			c1.456-2.773,3.807-4.794,7.613-5.17L322.156,21.785z"/>
		<path fill="#43311E" d="M354.303,40.302l-9.117-14.146h-6.156v7.049c0,1.786,0.047,5.452,0.094,6.768h-3.807
			c0.188-2.256,0.282-8.271,0.282-11.326V18.261c0-3.008-0.095-9.118-0.282-11.374c1.927,0,6.109-0.141,8.271-0.188
			c7.802-0.094,11.984,4.229,11.891,9.211c-0.094,4.606-2.68,7.754-7.097,9.446l5.075,7.567c1.223,1.833,3.713,5.311,4.888,6.861
			L354.303,40.302z M344.527,23.242c4.653,0,7.379-3.196,7.379-6.861c0-4.183-2.679-6.627-8.084-6.627c-1.691,0-3.383,0-4.793,0.094
			v13.394H344.527z"/>
		<path fill="#43311E" d="M376.957,29.681l-14.099,0.376c0.141,5.076,2.913,7.802,7.52,7.802c3.29,0,5.733-1.41,7.802-3.149
			l-0.142,3.384c-2.209,1.551-4.7,2.632-8.036,2.632c-6.768,0-10.387-4.841-10.387-10.762c0-6.674,4.23-11.938,10.668-11.938
			c6.062,0,8.836,4.559,8.836,10.339L376.957,29.681z M376.064,27.237c-0.423-4.136-2.303-6.438-6.016-6.438
			c-3.9,0-6.486,3.008-7.097,6.768L376.064,27.237z"/>
		<path fill="#43311E" d="M395.945,19.717l-1.128,2.867c-1.41-0.987-3.196-1.645-5.217-1.645c-2.256,0-4.183,0.987-4.183,3.148
			c0,4.136,11.279,3.243,11.279,9.823c0,4.277-3.807,6.814-8.084,6.814c-2.443,0-5.404-0.705-7.049-1.786l0.188-3.431
			c1.786,1.316,4.418,2.303,6.956,2.303c2.632,0,4.794-1.175,4.794-3.384c0-4.7-11.279-3.431-11.279-10.199
			c0-3.478,3.102-6.204,7.425-6.204C392.279,18.025,394.535,18.872,395.945,19.717z"/>
		<path fill="#43311E" d="M402.666,13.279c-1.362,0-2.256-1.081-2.256-2.209c0-1.316,0.94-2.444,2.35-2.444
			c1.363,0,2.256,1.081,2.256,2.256C405.016,12.198,404.076,13.279,402.666,13.279z M400.739,39.973
			c0.188-2.021,0.235-5.029,0.235-7.801v-5.499c0-2.726-0.094-6.062-0.282-8.083c1.269,0,2.585-0.047,3.666-0.188
			c-0.095,0.846-0.142,4.23-0.142,5.358v11.56c0,1.645,0.047,3.431,0.142,4.653H400.739z"/>
		<path fill="#43311E" d="M425.085,19.812v-5.311c0-3.196-0.047-5.734-0.235-7.896c1.223-0.094,2.585-0.235,3.619-0.47
			c-0.094,0.846-0.141,3.525-0.141,5.405v21.571c0,2.585,0.094,4.935,0.281,6.815h-3.008l-0.281-2.632
			c-1.316,1.645-3.995,3.431-7.003,3.431c-6.016,0-9.775-4.653-9.775-10.622c0-6.861,4.605-12.078,11.044-12.078
			C421.795,18.025,423.816,18.777,425.085,19.812z M411.785,29.634c0,5.264,3.055,8.225,7.096,8.225
			c2.633,0,4.982-1.551,6.204-3.619V23.054c-1.269-1.316-3.102-2.162-5.452-2.162C414.746,20.893,411.785,24.84,411.785,29.634z"/>
		<path fill="#43311E" d="M450.088,29.681l-14.099,0.376c0.141,5.076,2.913,7.802,7.52,7.802c3.29,0,5.733-1.41,7.802-3.149
			l-0.142,3.384c-2.209,1.551-4.7,2.632-8.036,2.632c-6.768,0-10.387-4.841-10.387-10.762c0-6.674,4.23-11.938,10.668-11.938
			c6.062,0,8.836,4.559,8.836,10.339L450.088,29.681z M449.195,27.237c-0.423-4.136-2.303-6.438-6.016-6.438
			c-3.9,0-6.486,3.008-7.097,6.768L449.195,27.237z"/>
		<path fill="#43311E" d="M471.145,39.973c0.188-2.021,0.281-5.264,0.281-7.99v-5.687c0-3.478-1.457-5.404-4.465-5.404
			c-3.524,0-7.284,3.807-7.284,6.392v7.848c0,1.645,0.047,3.478,0.142,4.841H456.2c0.141-2.021,0.234-5.264,0.234-7.99v-5.357
			c0-2.726-0.094-5.969-0.234-7.989c1.222,0,2.115-0.094,3.195-0.188l0.235,4.653c1.598-2.584,4.888-5.076,8.225-5.076
			c4.229,0,6.814,2.538,6.814,7.52v9.587c0,1.645,0.094,3.619,0.141,4.841L471.145,39.973L471.145,39.973z"/>
		<path fill="#43311E" d="M496.242,23.054c-1.598-1.269-3.76-2.115-6.156-2.115c-4.794,0-7.943,3.807-7.943,8.412
			c0,5.452,3.666,8.507,8.084,8.507c2.82,0,4.841-0.893,7.003-2.773l-0.188,3.431c-2.256,1.504-4.183,2.209-7.19,2.209
			c-6.392,0-10.903-4.7-10.903-10.856c0-6.533,4.559-11.843,11.326-11.843c2.727,0,5.217,0.893,6.908,2.115L496.242,23.054z"/>
		<path fill="#43311E" d="M517.157,29.681l-14.099,0.376c0.141,5.076,2.914,7.802,7.52,7.802c3.289,0,5.733-1.41,7.801-3.149
			l-0.141,3.384c-2.209,1.551-4.699,2.632-8.036,2.632c-6.768,0-10.387-4.841-10.387-10.762c0-6.674,4.229-11.938,10.669-11.938
			c6.063,0,8.835,4.559,8.835,10.339L517.157,29.681z M516.265,27.237c-0.423-4.136-2.303-6.438-6.016-6.438
			c-3.901,0-6.485,3.008-7.097,6.768L516.265,27.237z"/>
	</g>
</g>
<g id="Layer_2">
	<rect y="0" fill="none" width="538.708" height="51.889"/>
</g>
</svg>
