<?xml version="1.0" encoding="utf-8"?>
<!-- Generator: Adobe Illustrator 17.0.0, SVG Export Plug-In . SVG Version: 6.00 Build 0)  -->
<!DOCTYPE svg PUBLIC "-//W3C//DTD SVG 1.1//EN" "http://www.w3.org/Graphics/SVG/1.1/DTD/svg11.dtd">
<svg version="1.1" id="Layer_1" xmlns="http://www.w3.org/2000/svg" xmlns:xlink="http://www.w3.org/1999/xlink" x="0px" y="0px"
	 width="538.708px" height="51.889px" viewBox="0 0 538.708 51.889" enable-background="new 0 0 538.708 51.889"
	 xml:space="preserve">
<g id="Layer_1_1_">
	<g>
		<path fill="#43311E" d="M53.718,40.302L44.6,26.156h-6.156v7.049c0,1.786,0.047,5.452,0.094,6.768h-3.807
			c0.188-2.256,0.282-8.271,0.282-11.326V18.261c0-3.008-0.094-9.118-0.282-11.374c1.927,0,6.109-0.141,8.271-0.188
			c7.802-0.094,11.984,4.229,11.89,9.211c-0.094,4.606-2.679,7.754-7.096,9.446l5.075,7.567c1.222,1.833,3.713,5.311,4.888,6.861
			L53.718,40.302z M43.943,23.242c4.653,0,7.378-3.196,7.378-6.861c0-4.183-2.679-6.627-8.083-6.627c-1.692,0-3.384,0-4.793,0.094
			v13.394H43.943z"/>
		<path fill="#43311E" d="M76.372,29.681l-14.1,0.376c0.141,5.076,2.914,7.802,7.52,7.802c3.29,0,5.734-1.41,7.802-3.149
			l-0.141,3.384c-2.208,1.551-4.7,2.632-8.037,2.632c-6.768,0-10.386-4.841-10.386-10.762c0-6.674,4.23-11.938,10.668-11.938
			c6.062,0,8.835,4.559,8.835,10.339L76.372,29.681z M75.479,27.237c-0.423-4.136-2.303-6.438-6.016-6.438
			c-3.901,0-6.486,3.008-7.097,6.768L75.479,27.237z"/>
		<path fill="#43311E" d="M95.36,19.717l-1.128,2.867c-1.41-0.987-3.196-1.645-5.217-1.645c-2.256,0-4.183,0.987-4.183,3.148
			c0,4.136,11.279,3.243,11.279,9.823c0,4.277-3.807,6.814-8.083,6.814c-2.444,0-5.405-0.705-7.049-1.786l0.188-3.431
			c1.786,1.316,4.418,2.303,6.956,2.303c2.632,0,4.793-1.175,4.793-3.384c0-4.7-11.279-3.431-11.279-10.199
			c0-3.478,3.102-6.204,7.425-6.204C91.694,18.025,93.95,18.872,95.36,19.717z"/>
		<path fill="#43311E" d="M102.082,13.279c-1.363,0-2.256-1.081-2.256-2.209c0-1.316,0.94-2.444,2.35-2.444
			c1.363,0,2.256,1.081,2.256,2.256C104.431,12.198,103.491,13.279,102.082,13.279z M100.154,39.973
			c0.188-2.021,0.235-5.029,0.235-7.801v-5.499c0-2.726-0.094-6.062-0.282-8.083c1.269,0,2.585-0.047,3.666-0.188
			c-0.094,0.846-0.141,4.23-0.141,5.358v11.56c0,1.645,0.047,3.431,0.141,4.653H100.154z"/>
		<path fill="#43311E" d="M124.5,19.812v-5.311c0-3.196-0.047-5.734-0.235-7.896c1.222-0.094,2.585-0.235,3.619-0.47
			c-0.094,0.846-0.141,3.525-0.141,5.405v21.571c0,2.585,0.094,4.935,0.282,6.815h-3.008l-0.282-2.632
			c-1.316,1.645-3.995,3.431-7.002,3.431c-6.016,0-9.775-4.653-9.775-10.622c0-6.861,4.606-12.078,11.044-12.078
			C121.21,18.025,123.231,18.777,124.5,19.812z M111.199,29.634c0,5.264,3.055,8.225,7.097,8.225c2.632,0,4.981-1.551,6.204-3.619
			V23.054c-1.269-1.316-3.102-2.162-5.452-2.162C114.16,20.893,111.199,24.84,111.199,29.634z"/>
		<path fill="#43311E" d="M149.503,29.681l-14.099,0.376c0.141,5.076,2.914,7.802,7.52,7.802c3.29,0,5.733-1.41,7.801-3.149
			l-0.141,3.384c-2.209,1.551-4.7,2.632-8.036,2.632c-6.768,0-10.387-4.841-10.387-10.762c0-6.674,4.23-11.938,10.668-11.938
			c6.062,0,8.835,4.559,8.835,10.339L149.503,29.681z M148.61,27.237c-0.423-4.136-2.303-6.438-6.016-6.438
			c-3.901,0-6.486,3.008-7.097,6.768L148.61,27.237z"/>
		<path fill="#43311E" d="M170.559,39.973c0.188-2.021,0.282-5.264,0.282-7.99v-5.687c0-3.478-1.457-5.404-4.464-5.404
			c-3.525,0-7.285,3.807-7.285,6.392v7.848c0,1.645,0.047,3.478,0.141,4.841h-3.619c0.141-2.021,0.235-5.264,0.235-7.99v-5.357
			c0-2.726-0.094-5.969-0.235-7.989c1.222,0,2.115-0.094,3.195-0.188l0.235,4.653c1.598-2.584,4.888-5.076,8.225-5.076
			c4.229,0,6.814,2.538,6.814,7.52v9.587c0,1.645,0.094,3.619,0.141,4.841L170.559,39.973L170.559,39.973z"/>
		<path fill="#43311E" d="M190.299,39.456c-0.893,0.705-2.491,1.175-3.995,1.175c-3.666,0-5.311-2.115-5.311-5.78V21.315h-3.76
			l0.893-2.82h2.914l0.329-4.7l2.867-0.752v5.452h5.921c-0.094,0.799-0.141,1.551-0.141,2.82h-5.781v13.206
			c0,2.35,0.987,3.149,2.773,3.149c1.316,0,2.538-0.517,3.431-1.081L190.299,39.456z"/>
		<path fill="#43311E" d="M196.034,13.279c-1.363,0-2.256-1.081-2.256-2.209c0-1.316,0.94-2.444,2.35-2.444
			c1.363,0,2.256,1.081,2.256,2.256C198.384,12.198,197.444,13.279,196.034,13.279z M194.107,39.973
			c0.188-2.021,0.235-5.029,0.235-7.801v-5.499c0-2.726-0.094-6.062-0.282-8.083c1.269,0,2.585-0.047,3.666-0.188
			c-0.094,0.846-0.141,4.23-0.141,5.358v11.56c0,1.645,0.047,3.431,0.141,4.653H194.107z"/>
		<path fill="#43311E" d="M201.721,34.428c0-3.995,3.384-7.05,10.998-7.05c0.893,0,1.739,0.047,2.538,0.141l0.047-0.893
			c0.141-3.854-1.504-5.733-4.981-5.733c-2.209,0-4.512,0.939-6.11,2.067l-0.752-2.867c2.256-1.316,4.653-2.068,7.332-2.068
			c5.076,0,7.849,3.055,7.708,8.271l-0.282,9.306c-0.047,1.739,0.423,2.303,1.457,2.303c0.611,0,1.222-0.188,1.88-0.47l-0.329,2.35
			c-0.658,0.329-1.504,0.658-2.491,0.658c-1.692,0-3.243-1.081-3.29-4.183c-1.175,2.491-3.901,4.277-7.097,4.277
			C204.165,40.537,201.721,37.999,201.721,34.428z M215.162,31.796l0.047-2.068c-0.846-0.094-1.739-0.141-2.585-0.141
			c-5.875,0-7.754,2.209-7.754,4.652c0,2.021,1.222,3.666,4.136,3.666C212.39,37.905,215.022,35.32,215.162,31.796z"/>
		<path fill="#43311E" d="M224.469,39.973c0.188-2.021,0.235-5.029,0.235-7.801V14.501c0-3.196-0.047-5.734-0.235-7.896
			c1.222-0.094,2.538-0.235,3.619-0.47c-0.094,0.846-0.141,3.525-0.141,5.405v23.78c0,1.645,0.047,3.431,0.141,4.653H224.469z"/>
		<path fill="#43311E" d="M247.122,33.206c0,1.786,0.047,5.452,0.094,6.768h-3.807c0.188-2.256,0.282-8.271,0.282-11.326V18.261
			c0-3.008-0.094-9.118-0.282-11.374c1.645,0,5.17-0.188,8.037-0.188c7.848,0,11.843,4.183,11.843,9.493
			c0,5.969-3.948,10.668-13.582,10.668c-0.799,0-1.739,0-2.585-0.047L247.122,33.206L247.122,33.206z M250.835,9.754
			c-1.269,0-2.397,0.047-3.713,0.094V23.9c0.846,0.094,1.88,0.141,2.679,0.141c6.58,0,9.917-2.914,9.917-7.284
			C259.717,12.198,256.851,9.754,250.835,9.754z"/>
		<path fill="#43311E" d="M276.919,21.785c-3.571-0.376-7.144,2.35-7.144,5.734v7.613c0,1.645,0.047,3.478,0.141,4.841h-3.619
			c0.188-2.021,0.235-5.264,0.235-7.99v-6.016c0-2.726-0.141-5.169-0.423-7.144c1.081-0.047,2.209-0.235,3.243-0.47l0.376,4.841
			c1.457-2.773,3.807-4.794,7.613-5.17L276.919,21.785z"/>
		<path fill="#43311E" d="M288.717,40.725c-6.251,0-10.293-4.841-10.293-10.809c0-6.674,4.277-11.891,10.903-11.891
			c6.298,0,10.387,4.888,10.387,10.81C299.714,35.508,295.39,40.725,288.717,40.725z M289.139,20.893
			c-4.512,0-7.52,3.807-7.52,8.506c0,5.452,2.961,8.459,7.332,8.459c4.652,0,7.52-3.807,7.52-8.554
			C296.471,23.9,293.275,20.893,289.139,20.893z"/>
		<path fill="#43311E" d="M307.376,23.759v18.893c0,5.499-2.585,7.378-5.499,7.378c-0.705,0-1.504-0.188-1.879-0.282l-0.424-2.914
			c0.564,0.094,1.034,0.188,1.551,0.188c1.975-0.047,3.008-1.081,3.008-4.229l0.047-16.12c0-2.726-0.094-6.062-0.281-8.083
			c1.222,0,2.537-0.047,3.619-0.188C307.423,19.248,307.376,22.631,307.376,23.759z M305.825,13.279
			c-1.363,0-2.256-1.081-2.256-2.209c0-1.316,0.94-2.444,2.35-2.444c1.363,0,2.256,1.081,2.256,2.256
			C308.175,12.198,307.234,13.279,305.825,13.279z"/>
		<path fill="#43311E" d="M329.089,29.681l-14.099,0.376c0.141,5.076,2.914,7.802,7.52,7.802c3.289,0,5.733-1.41,7.801-3.149
			l-0.141,3.384c-2.209,1.551-4.699,2.632-8.036,2.632c-6.768,0-10.387-4.841-10.387-10.762c0-6.674,4.229-11.938,10.669-11.938
			c6.062,0,8.835,4.559,8.835,10.339L329.089,29.681z M328.196,27.237c-0.423-4.136-2.303-6.438-6.016-6.438
			c-3.901,0-6.485,3.008-7.097,6.768L328.196,27.237z"/>
		<path fill="#43311E" d="M351.132,23.054c-1.598-1.269-3.76-2.115-6.156-2.115c-4.794,0-7.942,3.807-7.942,8.412
			c0,5.452,3.666,8.507,8.083,8.507c2.819,0,4.841-0.893,7.003-2.773l-0.188,3.431c-2.256,1.504-4.183,2.209-7.19,2.209
			c-6.392,0-10.903-4.7-10.903-10.856c0-6.533,4.559-11.843,11.326-11.843c2.726,0,5.217,0.893,6.909,2.115L351.132,23.054z"/>
		<path fill="#43311E" d="M366.971,39.456c-0.893,0.705-2.49,1.175-3.994,1.175c-3.666,0-5.311-2.115-5.311-5.78V21.315h-3.76
			l0.893-2.82h2.914l0.329-4.7l2.866-0.752v5.452h5.922c-0.094,0.799-0.141,1.551-0.141,2.82h-5.781v13.206
			c0,2.35,0.987,3.149,2.773,3.149c1.316,0,2.537-0.517,3.431-1.081L366.971,39.456z"/>
		<path fill="#43311E" d="M380.742,39.973c0.188-2.256,0.281-8.271,0.281-11.326V18.261c0-3.008-0.094-9.071-0.281-11.327
			c1.362,0,2.726-0.047,3.854-0.188c-0.094,1.363-0.141,5.076-0.141,6.909v19.551c0,1.786,0.047,5.452,0.141,6.768h-3.854V39.973z"
			/>
		<path fill="#43311E" d="M419.563,39.973c0.188-2.021,0.281-5.264,0.281-7.99v-5.687c0-3.478-1.315-5.404-4.183-5.404
			c-3.478,0-6.72,3.384-6.72,5.968v8.271c0,1.645,0.047,3.619,0.141,4.841h-3.619c0.141-2.021,0.235-5.264,0.235-7.99v-5.687
			c0-3.478-1.222-5.404-4.089-5.404c-3.479,0-6.721,3.384-6.721,5.968v8.271c0,1.645,0.047,3.478,0.141,4.841h-3.618
			c0.141-2.021,0.235-5.264,0.235-7.99v-5.357c0-2.726-0.095-5.969-0.283-7.989c1.27,0,2.115-0.094,3.196-0.188l0.235,4.23
			c1.691-2.35,4.512-4.653,7.66-4.653c3.29,0,5.593,1.739,6.203,4.794c1.316-2.256,4.184-4.794,7.85-4.794
			c4.135,0,6.579,2.538,6.579,7.52v9.587c0,1.645,0.047,3.619,0.142,4.841L419.563,39.973L419.563,39.973z"/>
		<path fill="#43311E" d="M427.131,34.428c0-3.995,3.383-7.05,10.997-7.05c0.893,0,1.739,0.047,2.538,0.141l0.047-0.893
			c0.141-3.854-1.504-5.733-4.982-5.733c-2.209,0-4.512,0.939-6.109,2.067l-0.752-2.867c2.256-1.316,4.652-2.068,7.332-2.068
			c5.075,0,7.848,3.055,7.707,8.271l-0.281,9.306c-0.048,1.739,0.422,2.303,1.456,2.303c0.611,0,1.222-0.188,1.88-0.47l-0.328,2.35
			c-0.658,0.329-1.504,0.658-2.491,0.658c-1.692,0-3.243-1.081-3.29-4.183c-1.175,2.491-3.9,4.277-7.097,4.277
			C429.574,40.537,427.131,37.999,427.131,34.428z M440.571,31.796l0.048-2.068c-0.847-0.094-1.739-0.141-2.586-0.141
			c-5.874,0-7.754,2.209-7.754,4.652c0,2.021,1.222,3.666,4.136,3.666C437.799,37.905,440.431,35.32,440.571,31.796z"/>
		<path fill="#43311E" d="M457.162,33.676c-1.033,0-2.021-0.141-2.867-0.423c-1.409,0.799-2.114,1.551-2.114,2.303
			c0,1.128,1.128,1.833,4.841,1.833l2.021,0.047c5.733,0.094,8.647,1.739,8.647,5.264c0,4.136-5.076,7.66-11.608,7.66
			c-5.78,0-8.929-2.396-8.929-5.404c0-2.397,1.738-4.136,4.887-5.64c-1.645-0.658-2.772-1.692-2.772-3.102
			c0-1.598,1.128-2.773,3.103-3.901c-2.021-1.363-3.291-3.572-3.291-6.062c0-4.512,3.76-8.13,8.742-8.13
			c1.41,0,2.679,0.329,3.76,0.799c0.939-3.008,2.82-4.417,5.969-3.901l-0.235,2.867c-2.161-0.329-3.243,0.47-3.9,2.256
			c1.691,1.504,2.585,3.619,2.585,5.451C465.998,30.292,462.145,33.676,457.162,33.676z M454.906,40.02
			c-3.289,1.363-4.699,2.961-4.699,4.465c0,1.786,2.114,3.29,6.109,3.29c4.841,0,8.318-2.208,8.318-4.652
			c0-1.88-1.786-2.867-5.593-2.914l-1.739-0.047L454.906,40.02z M457.633,20.657c-3.149,0-5.452,2.538-5.452,5.264
			c0,3.337,2.256,5.17,5.264,5.17c3.243,0,5.499-2.35,5.499-5.17C462.943,22.725,460.688,20.657,457.633,20.657z"/>
		<path fill="#43311E" d="M486.442,29.681l-14.099,0.376c0.141,5.076,2.914,7.802,7.52,7.802c3.289,0,5.733-1.41,7.801-3.149
			l-0.141,3.384c-2.209,1.551-4.699,2.632-8.036,2.632c-6.768,0-10.387-4.841-10.387-10.762c0-6.674,4.229-11.938,10.669-11.938
			c6.062,0,8.835,4.559,8.835,10.339L486.442,29.681z M485.55,27.237c-0.423-4.136-2.303-6.438-6.016-6.438
			c-3.901,0-6.485,3.008-7.097,6.768L485.55,27.237z"/>
		<path fill="#43311E" d="M505.431,19.717l-1.128,2.867c-1.41-0.987-3.195-1.645-5.217-1.645c-2.256,0-4.183,0.987-4.183,3.148
			c0,4.136,11.279,3.243,11.279,9.823c0,4.277-3.807,6.814-8.083,6.814c-2.444,0-5.405-0.705-7.05-1.786l0.188-3.431
			c1.786,1.316,4.418,2.303,6.956,2.303c2.632,0,4.793-1.175,4.793-3.384c0-4.7-11.279-3.431-11.279-10.199
			c0-3.478,3.103-6.204,7.426-6.204C501.765,18.025,504.021,18.872,505.431,19.717z"/>
	</g>
</g>
<g id="Layer_2">
	<rect y="0" fill="none" width="538.708" height="51.889"/>
</g>
</svg>
