<?xml version="1.0" encoding="utf-8"?>
<!-- Generator: Adobe Illustrator 17.0.0, SVG Export Plug-In . SVG Version: 6.00 Build 0)  -->
<!DOCTYPE svg PUBLIC "-//W3C//DTD SVG 1.1//EN" "http://www.w3.org/Graphics/SVG/1.1/DTD/svg11.dtd">
<svg version="1.1" id="Layer_1" xmlns="http://www.w3.org/2000/svg" xmlns:xlink="http://www.w3.org/1999/xlink" x="0px" y="0px"
	 width="538.708px" height="51.889px" viewBox="0 0 538.708 51.889" enable-background="new 0 0 538.708 51.889"
	 xml:space="preserve">
<g id="Layer_1_1_">
	<g>
		<path fill="#43311E" d="M9.773,33.206c0,1.786,0.047,5.452,0.094,6.768H6.061c0.188-2.256,0.282-8.271,0.282-11.326V18.261
			c0-3.008-0.094-9.118-0.282-11.374c1.645,0,5.17-0.188,8.037-0.188c7.848,0,11.843,4.183,11.843,9.493
			c0,5.969-3.948,10.668-13.582,10.668c-0.799,0-1.739,0-2.585-0.047v6.393H9.773z M13.486,9.754c-1.269,0-2.397,0.047-3.713,0.094
			V23.9c0.846,0.094,1.88,0.141,2.679,0.141c6.58,0,9.917-2.914,9.917-7.284C22.369,12.198,19.502,9.754,13.486,9.754z"/>
		<path fill="#43311E" d="M44.271,29.681l-14.099,0.376c0.141,5.076,2.914,7.802,7.52,7.802c3.29,0,5.733-1.41,7.801-3.149
			l-0.141,3.384c-2.209,1.551-4.7,2.632-8.036,2.632c-6.768,0-10.387-4.841-10.387-10.762c0-6.674,4.23-11.938,10.668-11.938
			c6.062,0,8.835,4.559,8.835,10.339L44.271,29.681z M43.378,27.237c-0.423-4.136-2.303-6.438-6.016-6.438
			c-3.901,0-6.486,3.008-7.097,6.768L43.378,27.237z"/>
		<path fill="#43311E" d="M61.003,21.785c-3.572-0.376-7.144,2.35-7.144,5.734v7.613c0,1.645,0.047,3.478,0.141,4.841h-3.619
			c0.188-2.021,0.235-5.264,0.235-7.99v-6.016c0-2.726-0.141-5.169-0.423-7.144c1.081-0.047,2.208-0.235,3.243-0.47l0.376,4.841
			c1.457-2.773,3.807-4.794,7.613-5.17L61.003,21.785z"/>
		<path fill="#43311E" d="M77.218,19.717l-1.128,2.867c-1.41-0.987-3.196-1.645-5.217-1.645c-2.256,0-4.183,0.987-4.183,3.148
			c0,4.136,11.279,3.243,11.279,9.823c0,4.277-3.807,6.814-8.083,6.814c-2.444,0-5.405-0.705-7.049-1.786l0.188-3.431
			c1.786,1.316,4.418,2.303,6.956,2.303c2.632,0,4.793-1.175,4.793-3.384c0-4.7-11.279-3.431-11.279-10.199
			c0-3.478,3.102-6.204,7.425-6.204C73.552,18.025,75.808,18.872,77.218,19.717z"/>
		<path fill="#43311E" d="M91.271,40.725c-2.35,0-4.512-0.799-5.781-1.927v6.438c0,1.598,0.047,3.337,0.188,4.512
			c-0.094,0-3.525,0.329-3.666,0.329c0.141-1.363,0.235-5.17,0.235-7.285v-16.12c0-2.726-0.094-6.016-0.329-8.036
			c1.269,0,2.209-0.047,3.196-0.141l0.235,3.102c1.504-1.739,4.136-3.572,7.379-3.572c5.733,0,9.305,4.653,9.305,10.574
			C102.033,35.979,96.675,40.725,91.271,40.725z M91.928,20.893c-2.632,0-4.888,1.598-6.438,3.571v11.139
			c1.269,1.363,3.055,2.303,5.734,2.303c4.512,0,7.566-4.136,7.566-8.93C98.79,23.571,95.829,20.893,91.928,20.893z"/>
		<path fill="#43311E" d="M122.148,29.681l-14.099,0.376c0.141,5.076,2.914,7.802,7.52,7.802c3.29,0,5.733-1.41,7.801-3.149
			l-0.141,3.384c-2.209,1.551-4.7,2.632-8.036,2.632c-6.768,0-10.387-4.841-10.387-10.762c0-6.674,4.23-11.938,10.668-11.938
			c6.062,0,8.835,4.559,8.835,10.339L122.148,29.681z M121.256,27.237c-0.423-4.136-2.303-6.438-6.016-6.438
			c-3.901,0-6.486,3.008-7.097,6.768L121.256,27.237z"/>
		<path fill="#43311E" d="M144.191,23.054c-1.598-1.269-3.76-2.115-6.156-2.115c-4.794,0-7.943,3.807-7.943,8.412
			c0,5.452,3.666,8.507,8.083,8.507c2.82,0,4.841-0.893,7.003-2.773l-0.188,3.431c-2.256,1.504-4.183,2.209-7.19,2.209
			c-6.392,0-10.903-4.7-10.903-10.856c0-6.533,4.559-11.843,11.326-11.843c2.726,0,5.217,0.893,6.909,2.115L144.191,23.054z"/>
		<path fill="#43311E" d="M160.03,39.456c-0.893,0.705-2.491,1.175-3.995,1.175c-3.666,0-5.311-2.115-5.311-5.78V21.315h-3.76
			l0.893-2.82h2.914l0.329-4.7l2.867-0.752v5.452h5.922c-0.094,0.799-0.141,1.551-0.141,2.82h-5.781v13.206
			c0,2.35,0.987,3.149,2.773,3.149c1.316,0,2.538-0.517,3.431-1.081L160.03,39.456z"/>
		<path fill="#43311E" d="M165.765,13.279c-1.363,0-2.256-1.081-2.256-2.209c0-1.316,0.94-2.444,2.35-2.444
			c1.363,0,2.256,1.081,2.256,2.256C168.115,12.198,167.175,13.279,165.765,13.279z M163.838,39.973
			c0.188-2.021,0.235-5.029,0.235-7.801v-5.499c0-2.726-0.094-6.062-0.282-8.083c1.269,0,2.585-0.047,3.666-0.188
			c-0.094,0.846-0.141,4.23-0.141,5.358v11.56c0,1.645,0.047,3.431,0.141,4.653H163.838z"/>
		<path fill="#43311E" d="M176.81,33.676l-3.243-7.473c-1.175-2.726-2.256-5.405-3.29-7.426l3.524-0.517l6.956,17.201l3.008-7.754
			c0.752-2.021,2.679-6.674,3.524-9.165c1.269,0,2.538-0.047,3.572-0.141l-9.117,21.995l-2.115,0.235
			C179.019,38.845,177.844,36.119,176.81,33.676z"/>
		<path fill="#43311E" d="M209.192,29.681l-14.1,0.376c0.141,5.076,2.914,7.802,7.52,7.802c3.29,0,5.734-1.41,7.802-3.149
			l-0.141,3.384c-2.208,1.551-4.7,2.632-8.037,2.632c-6.768,0-10.386-4.841-10.386-10.762c0-6.674,4.23-11.938,10.668-11.938
			c6.062,0,8.835,4.559,8.835,10.339L209.192,29.681z M208.299,27.237c-0.423-4.136-2.303-6.438-6.016-6.438
			c-3.901,0-6.486,3.008-7.097,6.768L208.299,27.237z"/>
		<path fill="#43311E" d="M234.384,39.973h-9.306c0.188-2.256,0.282-8.271,0.282-11.326V18.261c0-3.008-0.094-9.071-0.282-11.327
			c1.692,0,4.794-0.235,8.93-0.235c11.514,0,17.906,7.097,17.906,15.838C251.914,32.689,245.053,39.973,234.384,39.973z
			 M233.867,9.754c-2.068,0-3.807,0.047-5.029,0.141c-0.047,0.987-0.047,2.726-0.047,3.807v19.457c0,1.128,0,2.538,0.047,3.572
			c1.457,0.141,3.384,0.235,5.076,0.235c9.963,0,14.428-6.25,14.428-13.958C248.342,15.112,243.173,9.754,233.867,9.754z"/>
		<path fill="#43311E" d="M267.19,21.785c-3.572-0.376-7.144,2.35-7.144,5.734v7.613c0,1.645,0.047,3.478,0.141,4.841h-3.619
			c0.188-2.021,0.235-5.264,0.235-7.99v-6.016c0-2.726-0.141-5.169-0.423-7.144c1.081-0.047,2.208-0.235,3.243-0.47L260,23.195
			c1.457-2.773,3.807-4.794,7.613-5.17L267.19,21.785z"/>
		<path fill="#43311E" d="M268.413,34.428c0-3.995,3.384-7.05,10.997-7.05c0.893,0,1.739,0.047,2.538,0.141l0.047-0.893
			c0.142-3.854-1.504-5.733-4.981-5.733c-2.209,0-4.512,0.939-6.109,2.067l-0.752-2.867c2.256-1.316,4.653-2.068,7.332-2.068
			c5.075,0,7.849,3.055,7.708,8.271l-0.282,9.306c-0.047,1.739,0.423,2.303,1.457,2.303c0.61,0,1.222-0.188,1.88-0.47l-0.329,2.35
			c-0.658,0.329-1.504,0.658-2.491,0.658c-1.691,0-3.242-1.081-3.289-4.183c-1.176,2.491-3.901,4.277-7.098,4.277
			C270.857,40.537,268.413,37.999,268.413,34.428z M281.855,31.796l0.047-2.068c-0.847-0.094-1.739-0.141-2.585-0.141
			c-5.875,0-7.754,2.209-7.754,4.652c0,2.021,1.221,3.666,4.135,3.666C279.082,37.905,281.713,35.32,281.855,31.796z"/>
		<path fill="#43311E" d="M293.464,33.676l-2.679-7.426c-0.987-2.773-2.021-5.499-2.914-7.473l3.572-0.517l5.451,16.449l2.35-6.862
			c1.034-2.96,2.35-6.768,3.148-9.305l2.304-0.235l5.733,16.402l2.256-6.814c0.658-2.021,2.209-6.815,2.914-9.353
			c1.315,0,2.396,0,3.524-0.141l-7.755,21.995l-2.021,0.235c-0.563-2.067-1.645-5.216-2.726-8.177l-3.102-8.742l-5.734,16.637
			l-2.021,0.282C295.297,38.845,294.31,36.072,293.464,33.676z"/>
		<path fill="#43311E" d="M323.92,13.279c-1.363,0-2.256-1.081-2.256-2.209c0-1.316,0.939-2.444,2.35-2.444
			c1.363,0,2.256,1.081,2.256,2.256C326.27,12.198,325.33,13.279,323.92,13.279z M321.993,39.973
			c0.188-2.021,0.235-5.029,0.235-7.801v-5.499c0-2.726-0.095-6.062-0.283-8.083c1.27,0,2.586-0.047,3.666-0.188
			c-0.094,0.846-0.141,4.23-0.141,5.358v11.56c0,1.645,0.047,3.431,0.141,4.653H321.993z"/>
		<path fill="#43311E" d="M346.15,39.973c0.188-2.021,0.281-5.264,0.281-7.99v-5.687c0-3.478-1.457-5.404-4.465-5.404
			c-3.524,0-7.284,3.807-7.284,6.392v7.848c0,1.645,0.047,3.478,0.142,4.841h-3.619c0.141-2.021,0.234-5.264,0.234-7.99v-5.357
			c0-2.726-0.094-5.969-0.234-7.989c1.222,0,2.115-0.094,3.195-0.188l0.235,4.653c1.598-2.584,4.888-5.076,8.225-5.076
			c4.229,0,6.814,2.538,6.814,7.52v9.587c0,1.645,0.094,3.619,0.141,4.841L346.15,39.973L346.15,39.973z"/>
		<path fill="#43311E" d="M362.601,33.676c-1.034,0-2.021-0.141-2.866-0.423c-1.41,0.799-2.115,1.551-2.115,2.303
			c0,1.128,1.128,1.833,4.841,1.833l2.021,0.047c5.734,0.094,8.647,1.739,8.647,5.264c0,4.136-5.075,7.66-11.608,7.66
			c-5.78,0-8.93-2.396-8.93-5.404c0-2.397,1.739-4.136,4.889-5.64c-1.646-0.658-2.773-1.692-2.773-3.102
			c0-1.598,1.128-2.773,3.102-3.901c-2.021-1.363-3.289-3.572-3.289-6.062c0-4.512,3.76-8.13,8.741-8.13
			c1.409,0,2.679,0.329,3.76,0.799c0.94-3.008,2.819-4.417,5.969-3.901l-0.235,2.867c-2.162-0.329-3.242,0.47-3.9,2.256
			c1.691,1.504,2.584,3.619,2.584,5.451C371.436,30.292,367.582,33.676,362.601,33.676z M360.345,40.02
			c-3.29,1.363-4.7,2.961-4.7,4.465c0,1.786,2.115,3.29,6.11,3.29c4.841,0,8.318-2.208,8.318-4.652c0-1.88-1.786-2.867-5.593-2.914
			l-1.738-0.047L360.345,40.02z M363.07,20.657c-3.148,0-5.451,2.538-5.451,5.264c0,3.337,2.256,5.17,5.264,5.17
			c3.242,0,5.498-2.35,5.498-5.17C368.381,22.725,366.125,20.657,363.07,20.657z"/>
		<path fill="#43311E" d="M392.115,40.819c-3.148,0-6.768-1.175-9.164-2.679l0.234-3.712c1.975,1.645,5.688,3.29,9.118,3.29
			c4.37,0,7.05-2.538,7.05-6.157c0-7.19-15.086-7.332-15.086-16.167c0-5.123,4.041-9.258,10.15-9.258
			c2.961,0,5.593,0.987,7.52,2.303l-1.127,3.055c-1.787-1.316-4.23-2.256-6.533-2.256c-4.042,0-6.58,2.443-6.58,5.733
			c0,6.814,15.086,6.768,15.086,16.12C402.783,36.355,398.836,40.819,392.115,40.819z"/>
		<path fill="#43311E" d="M405.699,34.428c0-3.995,3.384-7.05,10.997-7.05c0.894,0,1.739,0.047,2.538,0.141l0.047-0.893
			c0.141-3.854-1.504-5.733-4.981-5.733c-2.209,0-4.512,0.939-6.11,2.067l-0.752-2.867c2.256-1.316,4.653-2.068,7.332-2.068
			c5.076,0,7.849,3.055,7.707,8.271l-0.281,9.306c-0.047,1.739,0.423,2.303,1.457,2.303c0.611,0,1.222-0.188,1.88-0.47l-0.329,2.35
			c-0.658,0.329-1.504,0.658-2.491,0.658c-1.691,0-3.243-1.081-3.29-4.183c-1.174,2.491-3.9,4.277-7.096,4.277
			C408.143,40.537,405.699,37.999,405.699,34.428z M419.141,31.796l0.047-2.068c-0.846-0.094-1.739-0.141-2.585-0.141
			c-5.874,0-7.755,2.209-7.755,4.652c0,2.021,1.223,3.666,4.137,3.666C416.367,37.905,419,35.32,419.141,31.796z"/>
		<path fill="#43311E" d="M456.598,39.973c0.188-2.021,0.282-5.264,0.282-7.99v-5.687c0-3.478-1.315-5.404-4.183-5.404
			c-3.479,0-6.721,3.384-6.721,5.968v8.271c0,1.645,0.047,3.619,0.141,4.841h-3.619c0.142-2.021,0.235-5.264,0.235-7.99v-5.687
			c0-3.478-1.222-5.404-4.089-5.404c-3.478,0-6.721,3.384-6.721,5.968v8.271c0,1.645,0.047,3.478,0.142,4.841h-3.619
			c0.142-2.021,0.235-5.264,0.235-7.99v-5.357c0-2.726-0.094-5.969-0.282-7.989c1.269,0,2.115-0.094,3.196-0.188l0.234,4.23
			c1.692-2.35,4.512-4.653,7.66-4.653c3.291,0,5.594,1.739,6.204,4.794c1.315-2.256,4.183-4.794,7.849-4.794
			c4.136,0,6.58,2.538,6.58,7.52v9.587c0,1.645,0.047,3.619,0.141,4.841L456.598,39.973L456.598,39.973z"/>
		<path fill="#43311E" d="M475.022,40.725c-2.351,0-4.512-0.799-5.78-1.927v6.438c0,1.598,0.047,3.337,0.188,4.512
			c-0.094,0-3.525,0.329-3.666,0.329c0.141-1.363,0.235-5.17,0.235-7.285v-16.12c0-2.726-0.095-6.016-0.329-8.036
			c1.27,0,2.209-0.047,3.195-0.141l0.235,3.102c1.504-1.739,4.136-3.572,7.379-3.572c5.733,0,9.306,4.653,9.306,10.574
			C485.785,35.979,480.427,40.725,475.022,40.725z M475.68,20.893c-2.631,0-4.887,1.598-6.438,3.571v11.139
			c1.269,1.363,3.055,2.303,5.733,2.303c4.512,0,7.566-4.136,7.566-8.93C482.542,23.571,479.581,20.893,475.68,20.893z"/>
		<path fill="#43311E" d="M489.922,39.973c0.188-2.021,0.234-5.029,0.234-7.801V14.501c0-3.196-0.047-5.734-0.234-7.896
			c1.222-0.094,2.537-0.235,3.619-0.47c-0.095,0.846-0.142,3.525-0.142,5.405v23.78c0,1.645,0.047,3.431,0.142,4.653H489.922z"/>
		<path fill="#43311E" d="M515.112,29.681l-14.099,0.376c0.141,5.076,2.914,7.802,7.52,7.802c3.289,0,5.733-1.41,7.801-3.149
			l-0.141,3.384c-2.209,1.551-4.699,2.632-8.036,2.632c-6.768,0-10.387-4.841-10.387-10.762c0-6.674,4.229-11.938,10.669-11.938
			c6.063,0,8.835,4.559,8.835,10.339L515.112,29.681z M514.22,27.237c-0.423-4.136-2.303-6.438-6.016-6.438
			c-3.901,0-6.485,3.008-7.097,6.768L514.22,27.237z"/>
		<path fill="#43311E" d="M534.1,19.717l-1.127,2.867c-1.41-0.987-3.196-1.645-5.217-1.645c-2.256,0-4.184,0.987-4.184,3.148
			c0,4.136,11.279,3.243,11.279,9.823c0,4.277-3.807,6.814-8.083,6.814c-2.444,0-5.405-0.705-7.05-1.786l0.188-3.431
			c1.786,1.316,4.417,2.303,6.955,2.303c2.632,0,4.794-1.175,4.794-3.384c0-4.7-11.279-3.431-11.279-10.199
			c0-3.478,3.102-6.204,7.426-6.204C530.435,18.025,532.69,18.872,534.1,19.717z"/>
	</g>
</g>
<g id="Layer_2">
	<rect y="0" fill="none" width="538.708" height="51.889"/>
</g>
</svg>
