<?xml version="1.0" encoding="utf-8"?>
<!-- Generator: Adobe Illustrator 17.0.0, SVG Export Plug-In . SVG Version: 6.00 Build 0)  -->
<!DOCTYPE svg PUBLIC "-//W3C//DTD SVG 1.1//EN" "http://www.w3.org/Graphics/SVG/1.1/DTD/svg11.dtd">
<svg version="1.1" xmlns="http://www.w3.org/2000/svg" xmlns:xlink="http://www.w3.org/1999/xlink" x="0px" y="0px"
	 width="538.708px" height="51.889px" viewBox="0 0 538.708 51.889" enable-background="new 0 0 538.708 51.889"
	 xml:space="preserve">
<g id="Layer_1">
	<g id="Layer_1_1_">
		<g>
			<path fill="#43311E" d="M25.964,33.206c0,1.786,0.047,5.452,0.094,6.768h-3.807c0.188-2.256,0.282-8.271,0.282-11.326V18.261
				c0-3.008-0.094-9.118-0.282-11.374c1.645,0,5.169-0.188,8.037-0.188c7.849,0,11.843,4.183,11.843,9.493
				c0,5.969-3.948,10.668-13.583,10.668c-0.799,0-1.739,0-2.584-0.047C25.964,26.813,25.964,33.206,25.964,33.206z M29.677,9.754
				c-1.269,0-2.396,0.047-3.712,0.094V23.9c0.846,0.094,1.88,0.141,2.679,0.141c6.58,0,9.917-2.914,9.917-7.284
				C38.56,12.198,35.692,9.754,29.677,9.754z"/>
			<path fill="#43311E" d="M53.412,40.725c-6.25,0-10.292-4.841-10.292-10.809c0-6.674,4.277-11.891,10.903-11.891
				c6.298,0,10.386,4.888,10.386,10.81C64.409,35.508,60.086,40.725,53.412,40.725z M53.835,20.893c-4.512,0-7.52,3.807-7.52,8.506
				c0,5.452,2.961,8.459,7.332,8.459c4.653,0,7.52-3.807,7.52-8.554C61.167,23.9,57.971,20.893,53.835,20.893z"/>
			<path fill="#43311E" d="M79.215,21.785c-3.572-0.376-7.144,2.35-7.144,5.734v7.613c0,1.645,0.047,3.478,0.141,4.841h-3.619
				c0.188-2.021,0.235-5.264,0.235-7.99v-6.016c0-2.726-0.141-5.169-0.423-7.144c1.081-0.047,2.208-0.235,3.243-0.47l0.376,4.841
				c1.457-2.773,3.807-4.794,7.613-5.17L79.215,21.785z"/>
			<path fill="#43311E" d="M93.221,39.456c-0.893,0.705-2.491,1.175-3.995,1.175c-3.666,0-5.311-2.115-5.311-5.78V21.315h-3.76
				l0.893-2.82h2.914l0.329-4.7l2.867-0.752v5.452h5.922c-0.094,0.799-0.141,1.551-0.141,2.82h-5.781v13.206
				c0,2.35,0.987,3.149,2.773,3.149c1.316,0,2.538-0.517,3.431-1.081L93.221,39.456z"/>
			<path fill="#43311E" d="M97.028,39.973c0.188-2.021,0.235-5.029,0.235-7.801V14.501c0-3.196-0.047-5.734-0.235-7.896
				c1.222-0.094,2.538-0.235,3.619-0.47c-0.094,0.846-0.141,3.525-0.141,5.405v23.78c0,1.645,0.047,3.431,0.141,4.653H97.028z"/>
			<path fill="#43311E" d="M104.643,34.428c0-3.995,3.384-7.05,10.997-7.05c0.893,0,1.739,0.047,2.538,0.141l0.047-0.893
				c0.141-3.854-1.504-5.733-4.981-5.733c-2.209,0-4.512,0.939-6.11,2.067l-0.752-2.867c2.256-1.316,4.653-2.068,7.332-2.068
				c5.076,0,7.849,3.055,7.708,8.271l-0.282,9.306c-0.047,1.739,0.423,2.303,1.457,2.303c0.611,0,1.222-0.188,1.88-0.47l-0.329,2.35
				c-0.658,0.329-1.504,0.658-2.491,0.658c-1.691,0-3.243-1.081-3.29-4.183c-1.175,2.491-3.901,4.277-7.097,4.277
				C107.086,40.537,104.643,37.999,104.643,34.428z M118.084,31.796l0.047-2.068c-0.846-0.094-1.739-0.141-2.585-0.141
				c-5.875,0-7.754,2.209-7.754,4.652c0,2.021,1.222,3.666,4.136,3.666C115.311,37.905,117.943,35.32,118.084,31.796z"/>
			<path fill="#43311E" d="M142.335,39.973c0.188-2.021,0.282-5.264,0.282-7.99v-5.687c0-3.478-1.457-5.404-4.465-5.404
				c-3.525,0-7.285,3.807-7.285,6.392v7.848c0,1.645,0.047,3.478,0.141,4.841h-3.619c0.141-2.021,0.235-5.264,0.235-7.99v-5.357
				c0-2.726-0.094-5.969-0.235-7.989c1.222,0,2.115-0.094,3.196-0.188l0.235,4.653c1.598-2.584,4.888-5.076,8.224-5.076
				c4.23,0,6.815,2.538,6.815,7.52v9.587c0,1.645,0.094,3.619,0.141,4.841L142.335,39.973L142.335,39.973z"/>
			<path fill="#43311E" d="M166.634,19.812v-5.311c0-3.196-0.047-5.734-0.235-7.896c1.222-0.094,2.584-0.235,3.619-0.47
				c-0.094,0.846-0.141,3.525-0.141,5.405v21.571c0,2.585,0.094,4.935,0.282,6.815h-3.008l-0.282-2.632
				c-1.316,1.645-3.995,3.431-7.002,3.431c-6.016,0-9.775-4.653-9.775-10.622c0-6.861,4.605-12.078,11.044-12.078
				C163.344,18.025,165.365,18.777,166.634,19.812z M153.334,29.634c0,5.264,3.055,8.225,7.097,8.225
				c2.632,0,4.982-1.551,6.204-3.619V23.054c-1.269-1.316-3.102-2.162-5.452-2.162C156.294,20.893,153.334,24.84,153.334,29.634z"/>
			<path fill="#43311E" d="M183.225,24.323c0-10.151,6.909-18.188,16.919-18.188c9.494,0,15.979,7.614,15.979,16.496
				c0,10.151-6.909,18.188-16.919,18.188C189.71,40.819,183.225,33.206,183.225,24.323z M212.551,23.242
				c0-8.365-5.311-14.146-12.689-14.146c-7.801,0-13.112,6.673-13.112,14.616c0,8.319,5.311,14.146,12.736,14.146
				C207.287,37.858,212.551,31.185,212.551,23.242z"/>
			<path fill="#43311E" d="M231.399,21.785c-3.572-0.376-7.144,2.35-7.144,5.734v7.613c0,1.645,0.047,3.478,0.141,4.841h-3.619
				c0.188-2.021,0.235-5.264,0.235-7.99v-6.016c0-2.726-0.141-5.169-0.423-7.144c1.081-0.047,2.208-0.235,3.243-0.47l0.376,4.841
				c1.457-2.773,3.807-4.794,7.613-5.17L231.399,21.785z"/>
			<path fill="#43311E" d="M250.246,29.681l-14.099,0.376c0.141,5.076,2.914,7.802,7.52,7.802c3.29,0,5.733-1.41,7.801-3.149
				l-0.141,3.384c-2.209,1.551-4.7,2.632-8.036,2.632c-6.768,0-10.387-4.841-10.387-10.762c0-6.674,4.23-11.938,10.668-11.938
				c6.062,0,8.835,4.559,8.835,10.339L250.246,29.681z M249.354,27.237c-0.423-4.136-2.303-6.438-6.016-6.438
				c-3.901,0-6.486,3.008-7.097,6.768L249.354,27.237z"/>
			<path fill="#43311E" d="M263.501,33.676c-1.034,0-2.021-0.141-2.867-0.423c-1.41,0.799-2.115,1.551-2.115,2.303
				c0,1.128,1.128,1.833,4.841,1.833l2.021,0.047c5.734,0.094,8.647,1.739,8.647,5.264c0,4.136-5.076,7.66-11.608,7.66
				c-5.78,0-8.929-2.396-8.929-5.404c0-2.397,1.739-4.136,4.888-5.64c-1.645-0.658-2.773-1.692-2.773-3.102
				c0-1.598,1.128-2.773,3.102-3.901c-2.021-1.363-3.29-3.572-3.29-6.062c0-4.512,3.76-8.13,8.742-8.13
				c1.41,0,2.679,0.329,3.76,0.799c0.94-3.008,2.819-4.417,5.969-3.901l-0.235,2.867c-2.162-0.329-3.242,0.47-3.9,2.256
				c1.691,1.504,2.584,3.619,2.584,5.451C272.336,30.292,268.483,33.676,263.501,33.676z M261.245,40.02
				c-3.29,1.363-4.7,2.961-4.7,4.465c0,1.786,2.115,3.29,6.11,3.29c4.841,0,8.318-2.208,8.318-4.652c0-1.88-1.786-2.867-5.593-2.914
				l-1.739-0.047L261.245,40.02z M263.971,20.657c-3.149,0-5.452,2.538-5.452,5.264c0,3.337,2.256,5.17,5.264,5.17
				c3.243,0,5.499-2.35,5.499-5.17C269.282,22.725,267.026,20.657,263.971,20.657z"/>
			<path fill="#43311E" d="M285.731,40.725c-6.251,0-10.292-4.841-10.292-10.809c0-6.674,4.276-11.891,10.902-11.891
				c6.299,0,10.387,4.888,10.387,10.81C296.729,35.508,292.405,40.725,285.731,40.725z M286.154,20.893
				c-4.512,0-7.52,3.807-7.52,8.506c0,5.452,2.961,8.459,7.332,8.459c4.652,0,7.52-3.807,7.52-8.554
				C293.486,23.9,290.29,20.893,286.154,20.893z"/>
			<path fill="#43311E" d="M315.857,39.973c0.188-2.021,0.282-5.264,0.282-7.99v-5.687c0-3.478-1.456-5.404-4.464-5.404
				c-3.525,0-7.285,3.807-7.285,6.392v7.848c0,1.645,0.047,3.478,0.141,4.841h-3.618c0.141-2.021,0.235-5.264,0.235-7.99v-5.357
				c0-2.726-0.095-5.969-0.235-7.989c1.222,0,2.114-0.094,3.195-0.188l0.235,4.653c1.598-2.584,4.888-5.076,8.225-5.076
				c4.229,0,6.814,2.538,6.814,7.52v9.587c0,1.645,0.094,3.619,0.141,4.841L315.857,39.973L315.857,39.973z"/>
			<path fill="#43311E" d="M353.739,40.302l-9.117-14.146h-6.157v7.049c0,1.786,0.047,5.452,0.094,6.768h-3.807
				c0.188-2.256,0.282-8.271,0.282-11.326V18.261c0-3.008-0.094-9.118-0.282-11.374c1.928,0,6.11-0.141,8.271-0.188
				c7.802-0.094,11.984,4.229,11.891,9.211c-0.094,4.606-2.679,7.754-7.097,9.446l5.076,7.567c1.222,1.833,3.712,5.311,4.888,6.861
				L353.739,40.302z M343.964,23.242c4.653,0,7.378-3.196,7.378-6.861c0-4.183-2.678-6.627-8.083-6.627
				c-1.692,0-3.384,0-4.794,0.094v13.394H343.964z"/>
			<path fill="#43311E" d="M376.393,29.681l-14.099,0.376c0.141,5.076,2.913,7.802,7.52,7.802c3.29,0,5.733-1.41,7.802-3.149
				l-0.142,3.384c-2.209,1.551-4.7,2.632-8.036,2.632c-6.768,0-10.387-4.841-10.387-10.762c0-6.674,4.23-11.938,10.668-11.938
				c6.062,0,8.836,4.559,8.836,10.339L376.393,29.681z M375.5,27.237c-0.423-4.136-2.303-6.438-6.016-6.438
				c-3.9,0-6.486,3.008-7.097,6.768L375.5,27.237z"/>
			<path fill="#43311E" d="M395.381,19.717l-1.127,2.867c-1.41-0.987-3.196-1.645-5.217-1.645c-2.256,0-4.184,0.987-4.184,3.148
				c0,4.136,11.279,3.243,11.279,9.823c0,4.277-3.807,6.814-8.083,6.814c-2.444,0-5.405-0.705-7.05-1.786l0.188-3.431
				c1.786,1.316,4.417,2.303,6.955,2.303c2.632,0,4.794-1.175,4.794-3.384c0-4.7-11.279-3.431-11.279-10.199
				c0-3.478,3.102-6.204,7.426-6.204C391.716,18.025,393.972,18.872,395.381,19.717z"/>
			<path fill="#43311E" d="M402.103,13.279c-1.363,0-2.256-1.081-2.256-2.209c0-1.316,0.94-2.444,2.35-2.444
				c1.363,0,2.256,1.081,2.256,2.256C404.452,12.198,403.512,13.279,402.103,13.279z M400.176,39.973
				c0.188-2.021,0.234-5.029,0.234-7.801v-5.499c0-2.726-0.094-6.062-0.281-8.083c1.269,0,2.584-0.047,3.666-0.188
				c-0.095,0.846-0.142,4.23-0.142,5.358v11.56c0,1.645,0.047,3.431,0.142,4.653H400.176z"/>
			<path fill="#43311E" d="M424.521,19.812v-5.311c0-3.196-0.047-5.734-0.235-7.896c1.223-0.094,2.585-0.235,3.619-0.47
				c-0.094,0.846-0.141,3.525-0.141,5.405v21.571c0,2.585,0.094,4.935,0.281,6.815h-3.008l-0.281-2.632
				c-1.316,1.645-3.995,3.431-7.003,3.431c-6.016,0-9.775-4.653-9.775-10.622c0-6.861,4.605-12.078,11.044-12.078
				C421.23,18.025,423.252,18.777,424.521,19.812z M411.221,29.634c0,5.264,3.055,8.225,7.096,8.225
				c2.633,0,4.982-1.551,6.204-3.619V23.054c-1.269-1.316-3.102-2.162-5.452-2.162C414.182,20.893,411.221,24.84,411.221,29.634z"/>
			<path fill="#43311E" d="M449.524,29.681l-14.1,0.376c0.142,5.076,2.914,7.802,7.52,7.802c3.29,0,5.733-1.41,7.802-3.149
				l-0.141,3.384c-2.209,1.551-4.7,2.632-8.037,2.632c-6.768,0-10.387-4.841-10.387-10.762c0-6.674,4.23-11.938,10.669-11.938
				c6.062,0,8.835,4.559,8.835,10.339L449.524,29.681z M448.631,27.237c-0.423-4.136-2.303-6.438-6.016-6.438
				c-3.9,0-6.485,3.008-7.096,6.768L448.631,27.237z"/>
			<path fill="#43311E" d="M470.58,39.973c0.188-2.021,0.282-5.264,0.282-7.99v-5.687c0-3.478-1.457-5.404-4.465-5.404
				c-3.524,0-7.284,3.807-7.284,6.392v7.848c0,1.645,0.047,3.478,0.141,4.841h-3.619c0.141-2.021,0.235-5.264,0.235-7.99v-5.357
				c0-2.726-0.095-5.969-0.235-7.989c1.223,0,2.115-0.094,3.196-0.188l0.235,4.653c1.598-2.584,4.887-5.076,8.224-5.076
				c4.229,0,6.815,2.538,6.815,7.52v9.587c0,1.645,0.094,3.619,0.141,4.841L470.58,39.973L470.58,39.973z"/>
			<path fill="#43311E" d="M495.678,23.054c-1.598-1.269-3.76-2.115-6.156-2.115c-4.794,0-7.943,3.807-7.943,8.412
				c0,5.452,3.666,8.507,8.084,8.507c2.82,0,4.841-0.893,7.003-2.773l-0.188,3.431c-2.256,1.504-4.183,2.209-7.19,2.209
				c-6.392,0-10.903-4.7-10.903-10.856c0-6.533,4.559-11.843,11.326-11.843c2.727,0,5.217,0.893,6.908,2.115L495.678,23.054z"/>
			<path fill="#43311E" d="M516.594,29.681l-14.1,0.376c0.141,5.076,2.914,7.802,7.52,7.802c3.29,0,5.734-1.41,7.802-3.149
				l-0.142,3.384c-2.208,1.551-4.699,2.632-8.036,2.632c-6.768,0-10.386-4.841-10.386-10.762c0-6.674,4.229-11.938,10.668-11.938
				c6.063,0,8.836,4.559,8.836,10.339L516.594,29.681z M515.701,27.237c-0.424-4.136-2.304-6.438-6.016-6.438
				c-3.901,0-6.486,3.008-7.098,6.768L515.701,27.237z"/>
		</g>
	</g>
	<g id="Layer_2">
		<rect y="0" fill="none" width="538.708" height="51.889"/>
	</g>
</g>
<g id="Layer_2_1_">
	<rect y="0" fill="none" width="538.708" height="51.889"/>
</g>
</svg>
