<?xml version="1.0" encoding="utf-8"?>
<!-- Generator: Adobe Illustrator 17.0.0, SVG Export Plug-In . SVG Version: 6.00 Build 0)  -->
<!DOCTYPE svg PUBLIC "-//W3C//DTD SVG 1.1//EN" "http://www.w3.org/Graphics/SVG/1.1/DTD/svg11.dtd">
<svg version="1.1" id="Layer_1" xmlns="http://www.w3.org/2000/svg" xmlns:xlink="http://www.w3.org/1999/xlink" x="0px" y="0px"
	 width="538.708px" height="99.582px" viewBox="0 0 538.708 99.582" enable-background="new 0 0 538.708 99.582"
	 xml:space="preserve">
<path fill="#43311E" d="M33.319,10.655v13.159c0,5.123-1.222,8.083-3.572,10.433c-2.397,2.35-5.593,3.572-9.87,3.572
	c-7.284,0-12.454-4.465-12.454-12.079V15.26c0-3.008-0.047-9.071-0.235-11.327c1.363,0,2.679-0.047,3.854-0.188
	c-0.141,1.363-0.141,5.076-0.141,6.909v13.911c0,7.238,3.712,10.151,9.681,10.151c5.734,0,9.306-3.525,9.306-9.494v-9.963
	c0-3.008-0.047-9.071-0.282-11.327c1.363,0,2.679-0.047,3.901-0.188C33.366,5.109,33.319,8.822,33.319,10.655z"/>
<path fill="#43311E" d="M54.047,36.973c0.188-2.021,0.282-5.264,0.282-7.99v-5.687c0-3.478-1.457-5.404-4.465-5.404
	c-3.525,0-7.285,3.807-7.285,6.392v7.848c0,1.645,0.047,3.478,0.141,4.841h-3.619c0.141-2.021,0.235-5.264,0.235-7.99v-5.357
	c0-2.726-0.094-5.969-0.235-7.989c1.222,0,2.115-0.094,3.196-0.188l0.235,4.653c1.598-2.584,4.888-5.076,8.224-5.076
	c4.23,0,6.815,2.538,6.815,7.52v9.587c0,1.645,0.094,3.619,0.141,4.841L54.047,36.973L54.047,36.973z"/>
<path fill="#43311E" d="M65.14,10.279c-1.363,0-2.256-1.081-2.256-2.209c0-1.316,0.94-2.444,2.35-2.444
	c1.363,0,2.256,1.081,2.256,2.256C67.49,9.198,66.55,10.279,65.14,10.279z M63.213,36.973c0.188-2.021,0.235-5.029,0.235-7.801
	v-5.499c0-2.726-0.094-6.062-0.282-8.083c1.269,0,2.585-0.047,3.666-0.188c-0.094,0.846-0.141,4.23-0.141,5.358v11.56
	c0,1.645,0.047,3.431,0.141,4.653H63.213z"/>
<path fill="#43311E" d="M76.185,30.676l-3.243-7.473c-1.175-2.726-2.256-5.405-3.29-7.426l3.524-0.517l6.956,17.201l3.008-7.754
	c0.752-2.021,2.679-6.674,3.524-9.165c1.269,0,2.538-0.047,3.572-0.141L81.12,37.396l-2.115,0.235
	C78.394,35.845,77.219,33.119,76.185,30.676z"/>
<path fill="#43311E" d="M108.567,26.681l-14.1,0.376c0.141,5.076,2.914,7.802,7.52,7.802c3.29,0,5.734-1.41,7.802-3.149
	l-0.141,3.384c-2.208,1.551-4.7,2.632-8.037,2.632c-6.768,0-10.386-4.841-10.386-10.762c0-6.674,4.23-11.938,10.668-11.938
	c6.062,0,8.835,4.559,8.835,10.339L108.567,26.681z M107.674,24.237c-0.423-4.136-2.303-6.438-6.016-6.438
	c-3.901,0-6.486,3.008-7.097,6.768L107.674,24.237z"/>
<path fill="#43311E" d="M125.3,18.785c-3.572-0.376-7.144,2.35-7.144,5.734v7.613c0,1.645,0.047,3.478,0.141,4.841h-3.619
	c0.188-2.021,0.235-5.264,0.235-7.99v-6.016c0-2.726-0.141-5.169-0.423-7.144c1.081-0.047,2.209-0.235,3.243-0.47l0.376,4.841
	c1.457-2.773,3.807-4.794,7.613-5.17L125.3,18.785z"/>
<path fill="#43311E" d="M141.514,16.717l-1.128,2.867c-1.41-0.987-3.196-1.645-5.217-1.645c-2.256,0-4.183,0.987-4.183,3.148
	c0,4.136,11.279,3.243,11.279,9.823c0,4.277-3.807,6.814-8.083,6.814c-2.444,0-5.405-0.705-7.05-1.786l0.188-3.431
	c1.786,1.316,4.417,2.303,6.955,2.303c2.632,0,4.794-1.175,4.794-3.384c0-4.7-11.279-3.431-11.279-10.199
	c0-3.478,3.102-6.204,7.426-6.204C137.849,15.025,140.105,15.872,141.514,16.717z"/>
<path fill="#43311E" d="M148.236,10.279c-1.363,0-2.256-1.081-2.256-2.209c0-1.316,0.94-2.444,2.35-2.444
	c1.363,0,2.256,1.081,2.256,2.256C150.585,9.198,149.646,10.279,148.236,10.279z M146.309,36.973
	c0.188-2.021,0.235-5.029,0.235-7.801v-5.499c0-2.726-0.094-6.062-0.282-8.083c1.269,0,2.585-0.047,3.666-0.188
	c-0.094,0.846-0.141,4.23-0.141,5.358v11.56c0,1.645,0.047,3.431,0.141,4.653H146.309z"/>
<path fill="#43311E" d="M166.189,36.456c-0.893,0.705-2.491,1.175-3.995,1.175c-3.666,0-5.311-2.115-5.311-5.78V18.315h-3.76
	l0.893-2.82h2.914l0.329-4.7l2.867-0.752v5.452h5.922c-0.094,0.799-0.141,1.551-0.141,2.82h-5.781v13.206
	c0,2.35,0.987,3.149,2.773,3.149c1.316,0,2.538-0.517,3.431-1.081L166.189,36.456z"/>
<path fill="#43311E" d="M175.872,35.14c-0.517-1.316-1.034-2.679-1.974-4.793c-0.282-0.658-2.538-5.64-3.196-7.19
	c-1.175-2.773-2.35-5.358-3.431-7.379l3.666-0.517l6.58,16.073l2.772-6.673c1.081-2.773,2.538-6.392,3.478-9.118
	c1.316,0,2.584,0,3.619-0.141l-10.48,25.05c-0.47,1.128-2.021,4.84-2.538,6.392c-1.128,0-2.679,0.047-3.619,0.141L175.872,35.14z"/>
<path fill="#43311E" d="M207.36,37.725c-6.25,0-10.292-4.841-10.292-10.809c0-6.674,4.277-11.891,10.903-11.891
	c6.298,0,10.386,4.888,10.386,10.81C218.357,32.508,214.034,37.725,207.36,37.725z M207.783,17.893c-4.512,0-7.52,3.807-7.52,8.506
	c0,5.452,2.961,8.459,7.332,8.459c4.653,0,7.52-3.807,7.52-8.554C215.115,20.9,211.919,17.893,207.783,17.893z"/>
<path fill="#43311E" d="M233.54,6.472c-0.611-0.235-1.316-0.423-2.068-0.423c-2.914,0-4.324,2.256-4.324,6.439v3.008h6.109
	c-0.141,0.799-0.188,1.598-0.188,2.82h-5.921V32.32c0,1.645,0.047,3.478,0.141,4.653h-3.619c0.188-2.021,0.235-5.029,0.235-7.754
	V18.315h-3.995l0.94-2.82h3.055v-2.679c0-5.968,2.491-9.822,7.144-9.822c1.034,0,1.645,0.188,2.209,0.376L233.54,6.472z"/>
<path fill="#43311E" d="M249.049,30.206c0,1.786,0.047,5.452,0.094,6.768h-3.807c0.188-2.256,0.282-8.271,0.282-11.326V15.261
	c0-3.008-0.094-9.118-0.282-11.374c1.645,0,5.17-0.188,8.037-0.188c7.848,0,11.843,4.183,11.843,9.493
	c0,5.969-3.948,10.668-13.582,10.668c-0.799,0-1.739,0-2.585-0.047L249.049,30.206L249.049,30.206z M252.762,6.754
	c-1.269,0-2.397,0.047-3.713,0.094V20.9c0.846,0.094,1.88,0.141,2.679,0.141c6.58,0,9.917-2.914,9.917-7.284
	C261.644,9.198,258.777,6.754,252.762,6.754z"/>
<path fill="#43311E" d="M276.496,37.725c-6.25,0-10.292-4.841-10.292-10.809c0-6.674,4.276-11.891,10.903-11.891
	c6.298,0,10.387,4.888,10.387,10.81C287.494,32.508,283.17,37.725,276.496,37.725z M276.92,17.893c-4.512,0-7.52,3.807-7.52,8.506
	c0,5.452,2.961,8.459,7.332,8.459c4.653,0,7.52-3.807,7.52-8.554C284.251,20.9,281.055,17.893,276.92,17.893z"/>
<path fill="#43311E" d="M302.299,18.785c-3.571-0.376-7.143,2.35-7.143,5.734v7.613c0,1.645,0.047,3.478,0.141,4.841h-3.619
	c0.188-2.021,0.235-5.264,0.235-7.99v-6.016c0-2.726-0.142-5.169-0.423-7.144c1.08-0.047,2.209-0.235,3.242-0.47l0.377,4.841
	c1.456-2.773,3.807-4.794,7.613-5.17L302.299,18.785z"/>
<path fill="#43311E" d="M316.305,36.456c-0.893,0.705-2.49,1.175-3.994,1.175c-3.666,0-5.311-2.115-5.311-5.78V18.315h-3.76
	l0.893-2.82h2.914l0.329-4.7l2.866-0.752v5.452h5.922c-0.094,0.799-0.141,1.551-0.141,2.82h-5.781v13.206
	c0,2.35,0.987,3.149,2.773,3.149c1.316,0,2.537-0.517,3.431-1.081L316.305,36.456z"/>
<path fill="#43311E" d="M320.113,36.973c0.188-2.021,0.234-5.029,0.234-7.801V11.501c0-3.196-0.047-5.734-0.234-7.896
	c1.222-0.094,2.537-0.235,3.619-0.47c-0.095,0.846-0.142,3.525-0.142,5.405v23.78c0,1.645,0.047,3.431,0.142,4.653H320.113z"/>
<path fill="#43311E" d="M327.727,31.428c0-3.995,3.385-7.05,10.998-7.05c0.893,0,1.738,0.047,2.537,0.141l0.047-0.893
	c0.142-3.854-1.504-5.733-4.98-5.733c-2.209,0-4.512,0.939-6.11,2.067l-0.752-2.867c2.256-1.316,4.653-2.068,7.331-2.068
	c5.076,0,7.85,3.055,7.708,8.271l-0.282,9.306c-0.047,1.739,0.424,2.303,1.457,2.303c0.611,0,1.223-0.188,1.88-0.47l-0.329,2.35
	c-0.658,0.329-1.504,0.658-2.49,0.658c-1.692,0-3.243-1.081-3.29-4.183c-1.175,2.491-3.901,4.277-7.097,4.277
	C330.171,37.537,327.727,34.999,327.727,31.428z M341.168,28.796l0.047-2.068c-0.846-0.094-1.738-0.141-2.584-0.141
	c-5.875,0-7.755,2.209-7.755,4.652c0,2.021,1.222,3.666,4.136,3.666C338.396,34.905,341.027,32.32,341.168,28.796z"/>
<path fill="#43311E" d="M365.42,36.973c0.188-2.021,0.281-5.264,0.281-7.99v-5.687c0-3.478-1.457-5.404-4.465-5.404
	c-3.524,0-7.284,3.807-7.284,6.392v7.848c0,1.645,0.047,3.478,0.142,4.841h-3.619c0.141-2.021,0.234-5.264,0.234-7.99v-5.357
	c0-2.726-0.094-5.969-0.234-7.989c1.222,0,2.115-0.094,3.195-0.188l0.235,4.653c1.598-2.584,4.888-5.076,8.225-5.076
	c4.229,0,6.814,2.538,6.814,7.52v9.587c0,1.645,0.094,3.619,0.141,4.841L365.42,36.973L365.42,36.973z"/>
<path fill="#43311E" d="M389.719,16.812v-5.311c0-3.196-0.047-5.734-0.234-7.896c1.221-0.094,2.584-0.235,3.618-0.47
	c-0.094,0.846-0.142,3.525-0.142,5.405v21.571c0,2.585,0.095,4.935,0.283,6.815h-3.008l-0.283-2.632
	c-1.315,1.645-3.994,3.431-7.002,3.431c-6.016,0-9.775-4.653-9.775-10.622c0-6.861,4.605-12.078,11.045-12.078
	C386.429,15.025,388.449,15.777,389.719,16.812z M376.418,26.634c0,5.264,3.056,8.225,7.098,8.225c2.631,0,4.981-1.551,6.203-3.619
	V20.054c-1.27-1.316-3.102-2.162-5.451-2.162C379.379,17.893,376.418,21.84,376.418,26.634z"/>
<path fill="#43311E" d="M408.189,25.929l1.598-11.608c0.47-3.336,1.081-8.412,1.316-10.95l0.986-0.235
	c0.987,2.491,2.115,4.888,3.102,7.144l9.306,21.055l9.306-20.96c0.939-2.115,2.443-5.452,3.102-7.238h0.939
	c0.188,1.786,1.082,8.694,1.363,10.715l1.598,11.843c0.424,3.055,1.363,8.835,1.834,11.279l-3.666,0.282
	c-0.142-1.504-0.471-4.699-0.846-7.237l-2.304-17.248c-2.067,4.653-10.433,23.357-10.903,24.626l-0.939,0.235l-10.903-24.814
	l-2.304,17.436c-0.234,1.974-0.657,5.17-0.752,6.721h-3.571C407.014,34.153,407.766,29.219,408.189,25.929z"/>
<path fill="#43311E" d="M445.93,31.428c0-3.995,3.385-7.05,10.998-7.05c0.893,0,1.738,0.047,2.537,0.141l0.047-0.893
	c0.142-3.854-1.504-5.733-4.98-5.733c-2.209,0-4.512,0.939-6.11,2.067l-0.752-2.867c2.256-1.316,4.653-2.068,7.331-2.068
	c5.076,0,7.85,3.055,7.708,8.271l-0.282,9.306c-0.047,1.739,0.424,2.303,1.457,2.303c0.611,0,1.223-0.188,1.88-0.47l-0.329,2.35
	c-0.658,0.329-1.504,0.658-2.49,0.658c-1.692,0-3.243-1.081-3.29-4.183c-1.175,2.491-3.901,4.277-7.097,4.277
	C448.374,37.537,445.93,34.999,445.93,31.428z M459.371,28.796l0.047-2.068c-0.846-0.094-1.738-0.141-2.584-0.141
	c-5.875,0-7.755,2.209-7.755,4.652c0,2.021,1.222,3.666,4.136,3.666C456.599,34.905,459.23,32.32,459.371,28.796z"/>
<path fill="#43311E" d="M479.299,18.785c-3.572-0.376-7.144,2.35-7.144,5.734v7.613c0,1.645,0.047,3.478,0.142,4.841h-3.619
	c0.188-2.021,0.234-5.264,0.234-7.99v-6.016c0-2.726-0.141-5.169-0.423-7.144c1.081-0.047,2.209-0.235,3.243-0.47l0.376,4.841
	c1.457-2.773,3.807-4.794,7.613-5.17L479.299,18.785z"/>
<path fill="#43311E" d="M484.657,10.279c-1.363,0-2.256-1.081-2.256-2.209c0-1.316,0.94-2.444,2.35-2.444
	c1.363,0,2.256,1.081,2.256,2.256C487.007,9.198,486.066,10.279,484.657,10.279z M482.73,36.973
	c0.188-2.021,0.234-5.029,0.234-7.801v-5.499c0-2.726-0.094-6.062-0.281-8.083c1.269,0,2.584-0.047,3.666-0.188
	c-0.095,0.846-0.142,4.23-0.142,5.358v11.56c0,1.645,0.047,3.431,0.142,4.653H482.73z"/>
<path fill="#43311E" d="M490.345,31.428c0-3.995,3.384-7.05,10.997-7.05c0.893,0,1.739,0.047,2.538,0.141l0.047-0.893
	c0.142-3.854-1.504-5.733-4.981-5.733c-2.209,0-4.512,0.939-6.109,2.067l-0.752-2.867c2.256-1.316,4.652-2.068,7.331-2.068
	c5.075,0,7.849,3.055,7.708,8.271l-0.282,9.306c-0.047,1.739,0.423,2.303,1.457,2.303c0.61,0,1.222-0.188,1.88-0.47l-0.329,2.35
	c-0.658,0.329-1.504,0.658-2.491,0.658c-1.691,0-3.242-1.081-3.289-4.183c-1.176,2.491-3.901,4.277-7.098,4.277
	C492.789,37.537,490.345,34.999,490.345,31.428z M503.786,28.796l0.047-2.068c-0.847-0.094-1.739-0.141-2.585-0.141
	c-5.875,0-7.754,2.209-7.754,4.652c0,2.021,1.221,3.666,4.135,3.666C501.014,34.905,503.645,32.32,503.786,28.796z"/>
<path fill="#43311E" d="M528.037,36.973c0.188-2.021,0.282-5.264,0.282-7.99v-5.687c0-3.478-1.456-5.404-4.464-5.404
	c-3.525,0-7.285,3.807-7.285,6.392v7.848c0,1.645,0.047,3.478,0.141,4.841h-3.618c0.141-2.021,0.235-5.264,0.235-7.99v-5.357
	c0-2.726-0.095-5.969-0.235-7.989c1.222,0,2.114-0.094,3.195-0.188l0.235,4.653c1.598-2.584,4.888-5.076,8.225-5.076
	c4.229,0,6.814,2.538,6.814,7.52v9.587c0,1.645,0.094,3.619,0.141,4.841L528.037,36.973L528.037,36.973z"/>
<path fill="#43311E" d="M22.698,89.772c-9.822,0-17.013-7.566-17.013-16.872c0-9.87,7.426-17.765,17.671-17.765
	c3.619,0,7.614,1.222,10.151,2.914l-1.034,3.196c-2.35-1.833-6.11-2.961-9.494-2.961c-8.177,0-13.77,6.204-13.77,14.24
	c0,8.553,6.063,14.146,13.864,14.146c3.196,0,5.452-0.705,7.52-1.833v-7.049c0-0.752,0-2.115-0.094-3.008
	c-1.927-0.047-1.363-0.047-3.336-0.047c-2.35,0-3.76,0-6.439,0.094c0.094-1.175,0.094-2.303,0-3.196
	c2.726,0.094,4.324,0.141,6.439,0.141c3.055,0,4.559-0.047,7.049-0.188c-0.188,1.88-0.235,7.849-0.235,10.668v4.23
	C31.439,88.127,28.149,89.772,22.698,89.772z"/>
<path fill="#43311E" d="M38.632,83.428c0-3.995,3.384-7.05,10.997-7.05c0.893,0,1.739,0.047,2.538,0.141l0.047-0.893
	c0.141-3.854-1.504-5.733-4.981-5.733c-2.209,0-4.512,0.939-6.11,2.067l-0.752-2.867c2.256-1.316,4.653-2.068,7.332-2.068
	c5.076,0,7.849,3.055,7.708,8.271l-0.282,9.306c-0.047,1.739,0.423,2.303,1.457,2.303c0.611,0,1.222-0.188,1.88-0.47l-0.329,2.35
	c-0.658,0.329-1.504,0.658-2.491,0.658c-1.691,0-3.243-1.081-3.29-4.183c-1.175,2.491-3.901,4.277-7.097,4.277
	C41.076,89.537,38.632,86.999,38.632,83.428z M52.073,80.796l0.047-2.068c-0.846-0.094-1.739-0.141-2.585-0.141
	c-5.875,0-7.754,2.209-7.754,4.652c0,2.021,1.222,3.666,4.136,3.666C49.3,86.905,51.932,84.32,52.073,80.796z"/>
<path fill="#43311E" d="M72.471,70.785c-3.572-0.376-7.144,2.35-7.144,5.734v7.613c0,1.645,0.047,3.478,0.141,4.841H61.85
	c0.188-2.021,0.235-5.264,0.235-7.99v-6.016c0-2.726-0.141-5.169-0.423-7.144c1.081-0.047,2.209-0.235,3.243-0.47l0.376,4.841
	c1.457-2.773,3.807-4.794,7.613-5.17L72.471,70.785z"/>
<path fill="#43311E" d="M90.942,68.812v-5.311c0-3.196-0.047-5.734-0.235-7.896c1.222-0.094,2.585-0.235,3.619-0.47
	c-0.094,0.846-0.141,3.525-0.141,5.405v21.571c0,2.585,0.094,4.935,0.282,6.815h-3.008l-0.282-2.632
	c-1.316,1.645-3.995,3.431-7.002,3.431c-6.016,0-9.775-4.653-9.775-10.622c0-6.861,4.606-12.078,11.044-12.078
	C87.652,67.025,89.673,67.777,90.942,68.812z M77.642,78.634c0,5.264,3.055,8.225,7.097,8.225c2.632,0,4.981-1.551,6.204-3.619
	V72.054c-1.269-1.316-3.102-2.162-5.452-2.162C80.603,69.893,77.642,73.84,77.642,78.634z"/>
<path fill="#43311E" d="M116.415,78.681l-14.099,0.376c0.141,5.076,2.914,7.802,7.52,7.802c3.29,0,5.733-1.41,7.801-3.149
	l-0.141,3.384c-2.209,1.551-4.7,2.632-8.036,2.632c-6.768,0-10.387-4.841-10.387-10.762c0-6.674,4.23-11.938,10.668-11.938
	c6.062,0,8.835,4.559,8.835,10.339L116.415,78.681z M115.522,76.237c-0.423-4.136-2.303-6.438-6.016-6.438
	c-3.901,0-6.486,3.008-7.097,6.768L115.522,76.237z"/>
<path fill="#43311E" d="M137.941,88.973c0.188-2.021,0.282-5.264,0.282-7.99v-5.687c0-3.478-1.457-5.404-4.464-5.404
	c-3.525,0-7.285,3.807-7.285,6.392v7.848c0,1.645,0.047,3.478,0.141,4.841h-3.619c0.141-2.021,0.235-5.264,0.235-7.99v-5.357
	c0-2.726-0.094-5.969-0.235-7.989c1.222,0,2.115-0.094,3.195-0.188l0.235,4.653c1.598-2.584,4.888-5.076,8.225-5.076
	c4.229,0,6.814,2.538,6.814,7.52v9.587c0,1.645,0.094,3.619,0.141,4.841L137.941,88.973L137.941,88.973z"/>
<path fill="#43311E" d="M154.768,83.428c0-3.995,3.384-7.05,10.997-7.05c0.893,0,1.739,0.047,2.538,0.141l0.047-0.893
	c0.141-3.854-1.504-5.733-4.981-5.733c-2.209,0-4.512,0.939-6.11,2.067l-0.752-2.867c2.256-1.316,4.653-2.068,7.332-2.068
	c5.076,0,7.849,3.055,7.708,8.271l-0.282,9.306c-0.047,1.739,0.423,2.303,1.457,2.303c0.611,0,1.222-0.188,1.88-0.47l-0.329,2.35
	c-0.658,0.329-1.504,0.658-2.491,0.658c-1.691,0-3.243-1.081-3.29-4.183c-1.175,2.491-3.901,4.277-7.097,4.277
	C157.211,89.537,154.768,86.999,154.768,83.428z M168.209,80.796l0.047-2.068c-0.846-0.094-1.739-0.141-2.585-0.141
	c-5.875,0-7.754,2.209-7.754,4.652c0,2.021,1.222,3.666,4.136,3.666C165.436,86.905,168.068,84.32,168.209,80.796z"/>
<path fill="#43311E" d="M192.93,88.973c0.188-2.021,0.282-5.264,0.282-7.99v-5.687c0-3.478-1.457-5.404-4.464-5.404
	c-3.525,0-7.285,3.807-7.285,6.392v7.848c0,1.645,0.047,3.478,0.141,4.841h-3.619c0.141-2.021,0.235-5.264,0.235-7.99v-5.357
	c0-2.726-0.094-5.969-0.235-7.989c1.222,0,2.115-0.094,3.195-0.188l0.235,4.653c1.598-2.584,4.888-5.076,8.225-5.076
	c4.229,0,6.814,2.538,6.814,7.52v9.587c0,1.645,0.094,3.619,0.141,4.841L192.93,88.973L192.93,88.973z"/>
<path fill="#43311E" d="M217.699,68.812v-5.311c0-3.196-0.047-5.734-0.235-7.896c1.222-0.094,2.584-0.235,3.619-0.47
	c-0.094,0.846-0.141,3.525-0.141,5.405v21.571c0,2.585,0.094,4.935,0.282,6.815h-3.008l-0.282-2.632
	c-1.316,1.645-3.995,3.431-7.002,3.431c-6.016,0-9.775-4.653-9.775-10.622c0-6.861,4.605-12.078,11.044-12.078
	C214.409,67.025,216.43,67.777,217.699,68.812z M204.399,78.634c0,5.264,3.055,8.225,7.097,8.225c2.632,0,4.982-1.551,6.204-3.619
	V72.054c-1.269-1.316-3.102-2.162-5.452-2.162C207.36,69.893,204.399,73.84,204.399,78.634z"/>
<path fill="#43311E" d="M237.439,88.973c0.188-2.256,0.235-8.271,0.235-11.326V67.261c0-3.008-0.047-9.071-0.235-11.327
	c1.457,0,6.063-0.188,8.178-0.188c8.224,0,11.373,4.136,11.373,8.225c0,3.572-2.256,6.298-5.781,7.378
	c4.935,1.222,7.332,4.277,7.332,8.178c0,5.357-4.371,9.446-12.031,9.446H237.439z M245.147,70.315c5.546,0,8.318-2.491,8.318-5.969
	c0-3.478-2.538-5.593-8.13-5.593c-1.88,0-3.243,0.094-4.229,0.141c-0.047,0.517-0.047,2.632-0.047,3.102v5.216
	c0,0.658,0,2.585,0.047,3.008C241.81,70.269,244.301,70.315,245.147,70.315z M246.321,85.918c5.311,0,8.695-2.115,8.695-6.439
	c0-3.712-3.008-6.344-9.775-6.344c-1.598,0-2.961,0-4.183,0.094v8.977c0,1.128,0,2.444,0.047,3.525
	C242.844,85.871,244.724,85.918,246.321,85.918z"/>
<path fill="#43311E" d="M279.456,78.681l-14.1,0.376c0.141,5.076,2.914,7.802,7.52,7.802c3.29,0,5.733-1.41,7.802-3.149
	l-0.141,3.384c-2.209,1.551-4.7,2.632-8.037,2.632c-6.768,0-10.386-4.841-10.386-10.762c0-6.674,4.23-11.938,10.668-11.938
	c6.062,0,8.835,4.559,8.835,10.339L279.456,78.681z M278.563,76.237c-0.423-4.136-2.303-6.438-6.016-6.438
	c-3.9,0-6.485,3.008-7.096,6.768L278.563,76.237z"/>
<path fill="#43311E" d="M286.036,88.973c0.188-2.021,0.235-5.029,0.235-7.801V63.501c0-3.196-0.047-5.734-0.235-7.896
	c1.222-0.094,2.538-0.235,3.619-0.47c-0.095,0.846-0.142,3.525-0.142,5.405v23.78c0,1.645,0.047,3.431,0.142,4.653H286.036z"/>
<path fill="#43311E" d="M295.719,88.973c0.188-2.021,0.234-5.029,0.234-7.801V63.501c0-3.196-0.047-5.734-0.234-7.896
	c1.222-0.094,2.537-0.235,3.619-0.47c-0.095,0.846-0.142,3.525-0.142,5.405v23.78c0,1.645,0.047,3.431,0.142,4.653H295.719z"/>
<path fill="#43311E" d="M338.486,58.895c-3.571-0.094-7.143-0.094-11.42-0.094c-0.047,1.128,0,2.82,0,3.948v19.457
	c0,1.786,0,5.452,0.094,6.768h-3.807c0.188-2.256,0.235-8.271,0.235-11.326V67.401c0-2.35,0.047-6.109-0.048-8.601
	c-4.276,0-8.224,0.047-11.607,0.094c0.141-0.94,0.188-2.068,0.188-3.196c4.042,0.094,8.46,0.188,13.207,0.188
	c4.746,0,9.352-0.094,13.487-0.188C338.58,56.733,338.533,57.72,338.486,58.895z"/>
<path fill="#43311E" d="M346.807,89.725c-6.25,0-10.293-4.841-10.293-10.809c0-6.674,4.277-11.891,10.904-11.891
	c6.297,0,10.386,4.888,10.386,10.81C357.804,84.508,353.48,89.725,346.807,89.725z M347.23,69.893c-4.512,0-7.52,3.807-7.52,8.506
	c0,5.452,2.961,8.459,7.331,8.459c4.653,0,7.52-3.807,7.52-8.554C354.561,72.9,351.365,69.893,347.23,69.893z"/>
<path fill="#43311E" d="M365.091,82.676l-2.679-7.426c-0.987-2.773-2.021-5.499-2.914-7.473l3.572-0.517l5.451,16.449l2.35-6.862
	c1.034-2.96,2.35-6.768,3.148-9.305l2.304-0.235l5.733,16.402l2.256-6.814c0.658-2.021,2.209-6.815,2.914-9.353
	c1.315,0,2.396,0,3.524-0.141l-7.755,21.995l-2.021,0.235c-0.563-2.067-1.645-5.216-2.726-8.177l-3.102-8.742l-5.734,16.637
	l-2.021,0.282C366.924,87.845,365.937,85.072,365.091,82.676z"/>
<path fill="#43311E" d="M409.505,78.681l-14.099,0.376c0.141,5.076,2.914,7.802,7.52,7.802c3.289,0,5.733-1.41,7.801-3.149
	l-0.141,3.384c-2.209,1.551-4.699,2.632-8.036,2.632c-6.768,0-10.387-4.841-10.387-10.762c0-6.674,4.229-11.938,10.669-11.938
	c6.062,0,8.835,4.559,8.835,10.339L409.505,78.681z M408.612,76.237c-0.423-4.136-2.303-6.438-6.016-6.438
	c-3.901,0-6.485,3.008-7.097,6.768L408.612,76.237z"/>
<path fill="#43311E" d="M426.707,70.785c-3.571-0.376-7.143,2.35-7.143,5.734v7.613c0,1.645,0.047,3.478,0.141,4.841h-3.619
	c0.188-2.021,0.235-5.264,0.235-7.99v-6.016c0-2.726-0.142-5.169-0.423-7.144c1.08-0.047,2.209-0.235,3.242-0.47l0.377,4.841
	c1.456-2.773,3.807-4.794,7.613-5.17L426.707,70.785z"/>
<path fill="#43311E" d="M444.52,82.206c0,1.786,0.047,5.452,0.094,6.768h-3.807c0.188-2.256,0.282-8.271,0.282-11.326V67.261
	c0-3.008-0.094-9.118-0.282-11.374c1.646,0,5.17-0.188,8.037-0.188c7.849,0,11.844,4.183,11.844,9.493
	c0,5.969-3.948,10.668-13.583,10.668c-0.799,0-1.739,0-2.585-0.047L444.52,82.206L444.52,82.206z M448.232,58.754
	c-1.269,0-2.396,0.047-3.713,0.094V72.9c0.846,0.094,1.881,0.141,2.68,0.141c6.579,0,9.916-2.914,9.916-7.284
	C457.115,61.198,454.248,58.754,448.232,58.754z"/>
<path fill="#43311E" d="M464.542,88.973c0.188-2.021,0.235-5.029,0.235-7.801V63.501c0-3.196-0.048-5.734-0.235-7.896
	c1.222-0.094,2.538-0.235,3.618-0.47c-0.094,0.846-0.141,3.525-0.141,5.405v23.78c0,1.645,0.047,3.431,0.141,4.653H464.542z"/>
<path fill="#43311E" d="M472.626,83.428c0-3.995,3.384-7.05,10.997-7.05c0.893,0,1.739,0.047,2.538,0.141l0.047-0.893
	c0.142-3.854-1.504-5.733-4.981-5.733c-2.209,0-4.512,0.939-6.109,2.067l-0.752-2.867c2.256-1.316,4.652-2.068,7.331-2.068
	c5.075,0,7.849,3.055,7.708,8.271l-0.282,9.306c-0.047,1.739,0.423,2.303,1.457,2.303c0.61,0,1.222-0.188,1.88-0.47l-0.329,2.35
	c-0.658,0.329-1.504,0.658-2.491,0.658c-1.691,0-3.242-1.081-3.289-4.183c-1.176,2.491-3.901,4.277-7.098,4.277
	C475.07,89.537,472.626,86.999,472.626,83.428z M486.067,80.796l0.047-2.068c-0.847-0.094-1.739-0.141-2.585-0.141
	c-5.875,0-7.754,2.209-7.754,4.652c0,2.021,1.221,3.666,4.135,3.666C483.295,86.905,485.926,84.32,486.067,80.796z"/>
<path fill="#43311E" d="M512.198,68.248L498.616,86.2c3.524,0,9.306,0,13.206-0.094c-0.188,1.081-0.281,1.88-0.328,3.055
	c-2.68-0.141-5.499-0.235-8.742-0.235c-3.242,0-5.922,0.094-8.694,0.235l-0.517-0.846l13.582-18.047c-4.371,0-8.318,0-12.36,0.094
	c0.141-0.987,0.188-1.833,0.188-2.961c2.772,0.094,4.464,0.141,7.754,0.141c3.384,0,6.109-0.047,8.977-0.141L512.198,68.248z"/>
<path fill="#43311E" d="M514.361,83.428c0-3.995,3.385-7.05,10.998-7.05c0.893,0,1.738,0.047,2.537,0.141l0.047-0.893
	c0.142-3.854-1.504-5.733-4.98-5.733c-2.209,0-4.512,0.939-6.11,2.067l-0.752-2.867c2.256-1.316,4.653-2.068,7.331-2.068
	c5.076,0,7.85,3.055,7.708,8.271l-0.282,9.306c-0.047,1.739,0.424,2.303,1.457,2.303c0.611,0,1.223-0.188,1.88-0.47l-0.329,2.35
	c-0.658,0.329-1.504,0.658-2.49,0.658c-1.692,0-3.243-1.081-3.29-4.183c-1.175,2.491-3.901,4.277-7.097,4.277
	C516.806,89.537,514.361,86.999,514.361,83.428z M527.803,80.796l0.047-2.068c-0.846-0.094-1.738-0.141-2.584-0.141
	c-5.875,0-7.755,2.209-7.755,4.652c0,2.021,1.222,3.666,4.136,3.666C525.03,86.905,527.662,84.32,527.803,80.796z"/>
<rect y="0" fill="none" width="538.708" height="99.582"/>
</svg>
