<?xml version="1.0" encoding="utf-8"?>
<!-- Generator: Adobe Illustrator 17.0.0, SVG Export Plug-In . SVG Version: 6.00 Build 0)  -->
<!DOCTYPE svg PUBLIC "-//W3C//DTD SVG 1.1//EN" "http://www.w3.org/Graphics/SVG/1.1/DTD/svg11.dtd">
<svg version="1.1" id="Layer_1" xmlns="http://www.w3.org/2000/svg" xmlns:xlink="http://www.w3.org/1999/xlink" x="0px" y="0px"
	 width="538.708px" height="51.889px" viewBox="0 0 538.708 51.889" enable-background="new 0 0 538.708 51.889"
	 xml:space="preserve">
<g id="Layer_1_1_">
	<g>
		<path fill="#43311E" d="M86.5,40.114c-2.773-0.141-6.157-0.188-9.447-0.188c-3.243,0-6.626,0.047-9.258,0.235
			c0.188-2.256,0.235-8.459,0.235-11.514V18.261c0-3.008-0.047-9.306-0.235-11.562c2.632,0.094,5.781,0.188,8.977,0.188
			c3.243,0,6.438-0.094,9.211-0.188c-0.235,1.034-0.282,1.974-0.329,3.102c-2.726,0-5.593-0.047-8.882-0.047
			c-1.363,0-3.901,0-5.217,0.047c-0.047,1.128-0.047,2.867-0.047,3.807v7.566l12.266-0.094c-0.094,0.893-0.141,2.021-0.141,3.055
			l-12.125-0.047v9.118c0,0.94,0,2.679,0.047,3.807c1.551,0.047,3.572,0.047,5.17,0.047c3.712,0,6.909-0.047,10.057-0.141
			C86.593,37.999,86.5,38.986,86.5,40.114z"/>
		<path fill="#43311E" d="M103.372,19.717l-1.128,2.867c-1.41-0.987-3.196-1.645-5.217-1.645c-2.256,0-4.183,0.987-4.183,3.148
			c0,4.136,11.279,3.243,11.279,9.823c0,4.277-3.807,6.814-8.083,6.814c-2.444,0-5.405-0.705-7.049-1.786l0.188-3.431
			c1.786,1.316,4.418,2.303,6.956,2.303c2.632,0,4.793-1.175,4.793-3.384c0-4.7-11.279-3.431-11.279-10.199
			c0-3.478,3.102-6.204,7.425-6.204C99.706,18.025,101.962,18.872,103.372,19.717z"/>
		<path fill="#43311E" d="M118.835,39.456c-0.893,0.705-2.491,1.175-3.995,1.175c-3.666,0-5.311-2.115-5.311-5.78V21.315h-3.76
			l0.893-2.82h2.914l0.329-4.7l2.867-0.752v5.452h5.922c-0.094,0.799-0.141,1.551-0.141,2.82h-5.781v13.206
			c0,2.35,0.987,3.149,2.773,3.149c1.316,0,2.538-0.517,3.431-1.081L118.835,39.456z"/>
		<path fill="#43311E" d="M120.951,34.428c0-3.995,3.384-7.05,10.998-7.05c0.893,0,1.739,0.047,2.538,0.141l0.047-0.893
			c0.141-3.854-1.504-5.733-4.981-5.733c-2.209,0-4.512,0.939-6.11,2.067l-0.752-2.867c2.256-1.316,4.653-2.068,7.332-2.068
			c5.076,0,7.849,3.055,7.708,8.271l-0.282,9.306c-0.047,1.739,0.423,2.303,1.457,2.303c0.611,0,1.222-0.188,1.88-0.47l-0.329,2.35
			c-0.658,0.329-1.504,0.658-2.491,0.658c-1.692,0-3.243-1.081-3.29-4.183c-1.175,2.491-3.901,4.277-7.097,4.277
			C123.395,40.537,120.951,37.999,120.951,34.428z M134.392,31.796l0.047-2.068c-0.846-0.094-1.739-0.141-2.585-0.141
			c-5.875,0-7.754,2.209-7.754,4.652c0,2.021,1.222,3.666,4.136,3.666C131.619,37.905,134.251,35.32,134.392,31.796z"/>
		<path fill="#43311E" d="M154.272,39.456c-0.893,0.705-2.491,1.175-3.995,1.175c-3.666,0-5.311-2.115-5.311-5.78V21.315h-3.76
			l0.893-2.82h2.914l0.329-4.7l2.867-0.752v5.452h5.921c-0.094,0.799-0.141,1.551-0.141,2.82h-5.781v13.206
			c0,2.35,0.987,3.149,2.773,3.149c1.316,0,2.538-0.517,3.431-1.081L154.272,39.456z"/>
		<path fill="#43311E" d="M173.965,29.681l-14.099,0.376c0.141,5.076,2.914,7.802,7.52,7.802c3.29,0,5.733-1.41,7.801-3.149
			l-0.141,3.384c-2.209,1.551-4.7,2.632-8.036,2.632c-6.768,0-10.387-4.841-10.387-10.762c0-6.674,4.23-11.938,10.668-11.938
			c6.062,0,8.835,4.559,8.835,10.339L173.965,29.681z M173.072,27.237c-0.423-4.136-2.303-6.438-6.016-6.438
			c-3.901,0-6.486,3.008-7.097,6.768L173.072,27.237z"/>
		<path fill="#43311E" d="M196.29,40.819c-3.149,0-6.768-1.175-9.165-2.679l0.235-3.712c1.974,1.645,5.687,3.29,9.117,3.29
			c4.371,0,7.05-2.538,7.05-6.157c0-7.19-15.086-7.332-15.086-16.167c0-5.123,4.042-9.258,10.151-9.258
			c2.961,0,5.593,0.987,7.52,2.303l-1.128,3.055c-1.786-1.316-4.23-2.256-6.533-2.256c-4.042,0-6.58,2.443-6.58,5.733
			c0,6.814,15.086,6.768,15.086,16.12C206.958,36.355,203.01,40.819,196.29,40.819z"/>
		<path fill="#43311E" d="M213.398,13.279c-1.363,0-2.256-1.081-2.256-2.209c0-1.316,0.94-2.444,2.35-2.444
			c1.363,0,2.256,1.081,2.256,2.256C215.748,12.198,214.808,13.279,213.398,13.279z M211.472,39.973
			c0.188-2.021,0.235-5.029,0.235-7.801v-5.499c0-2.726-0.094-6.062-0.282-8.083c1.269,0,2.585-0.047,3.666-0.188
			c-0.094,0.846-0.141,4.23-0.141,5.358v11.56c0,1.645,0.047,3.431,0.141,4.653H211.472z"/>
		<path fill="#43311E" d="M231.352,39.456c-0.893,0.705-2.491,1.175-3.995,1.175c-3.666,0-5.311-2.115-5.311-5.78V21.315h-3.76
			l0.893-2.82h2.914l0.329-4.7l2.867-0.752v5.452h5.922c-0.094,0.799-0.141,1.551-0.141,2.82h-5.781v13.206
			c0,2.35,0.987,3.149,2.773,3.149c1.316,0,2.538-0.517,3.431-1.081L231.352,39.456z"/>
		<path fill="#43311E" d="M251.044,29.681l-14.1,0.376c0.141,5.076,2.914,7.802,7.52,7.802c3.29,0,5.734-1.41,7.802-3.149
			l-0.141,3.384c-2.208,1.551-4.7,2.632-8.037,2.632c-6.768,0-10.386-4.841-10.386-10.762c0-6.674,4.23-11.938,10.668-11.938
			c6.062,0,8.835,4.559,8.835,10.339L251.044,29.681z M250.151,27.237c-0.423-4.136-2.303-6.438-6.016-6.438
			c-3.901,0-6.486,3.008-7.097,6.768L250.151,27.237z"/>
		<path fill="#43311E" d="M285.87,40.302l-9.117-14.146h-6.157v7.049c0,1.786,0.047,5.452,0.094,6.768h-3.806
			c0.188-2.256,0.282-8.271,0.282-11.326V18.261c0-3.008-0.094-9.118-0.282-11.374c1.927,0,6.11-0.141,8.271-0.188
			c7.802-0.094,11.984,4.229,11.891,9.211c-0.094,4.606-2.679,7.754-7.097,9.446l5.076,7.567c1.222,1.833,3.712,5.311,4.888,6.861
			L285.87,40.302z M276.095,23.242c4.653,0,7.378-3.196,7.378-6.861c0-4.183-2.678-6.627-8.083-6.627c-1.692,0-3.384,0-4.794,0.094
			v13.394H276.095z"/>
		<path fill="#43311E" d="M308.524,29.681l-14.1,0.376c0.142,5.076,2.914,7.802,7.52,7.802c3.29,0,5.733-1.41,7.802-3.149
			l-0.141,3.384c-2.209,1.551-4.7,2.632-8.037,2.632c-6.768,0-10.387-4.841-10.387-10.762c0-6.674,4.23-11.938,10.669-11.938
			c6.062,0,8.835,4.559,8.835,10.339L308.524,29.681z M307.631,27.237c-0.423-4.136-2.303-6.438-6.016-6.438
			c-3.9,0-6.485,3.008-7.096,6.768L307.631,27.237z"/>
		<path fill="#43311E" d="M327.512,19.717l-1.127,2.867c-1.41-0.987-3.196-1.645-5.217-1.645c-2.256,0-4.184,0.987-4.184,3.148
			c0,4.136,11.279,3.243,11.279,9.823c0,4.277-3.807,6.814-8.083,6.814c-2.444,0-5.405-0.705-7.05-1.786l0.188-3.431
			c1.786,1.316,4.417,2.303,6.955,2.303c2.632,0,4.794-1.175,4.794-3.384c0-4.7-11.279-3.431-11.279-10.199
			c0-3.478,3.102-6.204,7.426-6.204C323.847,18.025,326.103,18.872,327.512,19.717z"/>
		<path fill="#43311E" d="M342.975,39.456c-0.893,0.705-2.49,1.175-3.994,1.175c-3.666,0-5.311-2.115-5.311-5.78V21.315h-3.76
			l0.893-2.82h2.914l0.329-4.7l2.866-0.752v5.452h5.922c-0.094,0.799-0.141,1.551-0.141,2.82h-5.781v13.206
			c0,2.35,0.987,3.149,2.773,3.149c1.316,0,2.537-0.517,3.431-1.081L342.975,39.456z"/>
		<path fill="#43311E" d="M355.617,40.725c-6.25,0-10.292-4.841-10.292-10.809c0-6.674,4.276-11.891,10.903-11.891
			c6.298,0,10.387,4.888,10.387,10.81C366.615,35.508,362.291,40.725,355.617,40.725z M356.041,20.893
			c-4.512,0-7.52,3.807-7.52,8.506c0,5.452,2.961,8.459,7.331,8.459c4.653,0,7.52-3.807,7.52-8.554
			C363.372,23.9,360.176,20.893,356.041,20.893z"/>
		<path fill="#43311E" d="M381.42,21.785c-3.571-0.376-7.143,2.35-7.143,5.734v7.613c0,1.645,0.047,3.478,0.141,4.841h-3.619
			c0.188-2.021,0.235-5.264,0.235-7.99v-6.016c0-2.726-0.142-5.169-0.423-7.144c1.08-0.047,2.209-0.235,3.242-0.47l0.377,4.841
			c1.456-2.773,3.807-4.794,7.613-5.17L381.42,21.785z"/>
		<path fill="#43311E" d="M382.645,34.428c0-3.995,3.383-7.05,10.997-7.05c0.893,0,1.739,0.047,2.538,0.141l0.047-0.893
			c0.141-3.854-1.504-5.733-4.982-5.733c-2.209,0-4.512,0.939-6.109,2.067l-0.752-2.867c2.256-1.316,4.652-2.068,7.332-2.068
			c5.075,0,7.848,3.055,7.707,8.271l-0.281,9.306c-0.048,1.739,0.422,2.303,1.456,2.303c0.611,0,1.222-0.188,1.88-0.47l-0.328,2.35
			c-0.658,0.329-1.504,0.658-2.491,0.658c-1.692,0-3.243-1.081-3.29-4.183c-1.175,2.491-3.9,4.277-7.097,4.277
			C385.088,40.537,382.645,37.999,382.645,34.428z M396.085,31.796l0.048-2.068c-0.847-0.094-1.739-0.141-2.586-0.141
			c-5.874,0-7.754,2.209-7.754,4.652c0,2.021,1.222,3.666,4.136,3.666C393.313,37.905,395.944,35.32,396.085,31.796z"/>
		<path fill="#43311E" d="M415.966,39.456c-0.893,0.705-2.491,1.175-3.995,1.175c-3.665,0-5.311-2.115-5.311-5.78V21.315h-3.76
			l0.894-2.82h2.913l0.33-4.7l2.866-0.752v5.452h5.922c-0.095,0.799-0.142,1.551-0.142,2.82h-5.78v13.206
			c0,2.35,0.987,3.149,2.772,3.149c1.316,0,2.538-0.517,3.432-1.081L415.966,39.456z"/>
		<path fill="#43311E" d="M421.7,13.279c-1.363,0-2.256-1.081-2.256-2.209c0-1.316,0.94-2.444,2.35-2.444
			c1.363,0,2.256,1.081,2.256,2.256C424.05,12.198,423.109,13.279,421.7,13.279z M419.773,39.973
			c0.188-2.021,0.234-5.029,0.234-7.801v-5.499c0-2.726-0.094-6.062-0.281-8.083c1.269,0,2.584-0.047,3.666-0.188
			c-0.095,0.846-0.142,4.23-0.142,5.358v11.56c0,1.645,0.047,3.431,0.142,4.653H419.773z"/>
		<path fill="#43311E" d="M437.915,40.725c-6.251,0-10.292-4.841-10.292-10.809c0-6.674,4.276-11.891,10.902-11.891
			c6.299,0,10.387,4.888,10.387,10.81C448.912,35.508,444.589,40.725,437.915,40.725z M438.338,20.893
			c-4.512,0-7.52,3.807-7.52,8.506c0,5.452,2.961,8.459,7.332,8.459c4.652,0,7.52-3.807,7.52-8.554
			C445.67,23.9,442.474,20.893,438.338,20.893z"/>
		<path fill="#43311E" d="M468.041,39.973c0.188-2.021,0.282-5.264,0.282-7.99v-5.687c0-3.478-1.456-5.404-4.464-5.404
			c-3.525,0-7.285,3.807-7.285,6.392v7.848c0,1.645,0.047,3.478,0.141,4.841h-3.618c0.141-2.021,0.235-5.264,0.235-7.99v-5.357
			c0-2.726-0.095-5.969-0.235-7.989c1.222,0,2.114-0.094,3.195-0.188l0.235,4.653c1.598-2.584,4.888-5.076,8.225-5.076
			c4.229,0,6.814,2.538,6.814,7.52v9.587c0,1.645,0.094,3.619,0.141,4.841L468.041,39.973L468.041,39.973z"/>
	</g>
</g>
<g id="Layer_2">
	<rect y="0" fill="none" width="538.708" height="51.889"/>
</g>
</svg>
