<?xml version="1.0" encoding="utf-8"?>
<!-- Generator: Adobe Illustrator 17.0.0, SVG Export Plug-In . SVG Version: 6.00 Build 0)  -->
<!DOCTYPE svg PUBLIC "-//W3C//DTD SVG 1.1//EN" "http://www.w3.org/Graphics/SVG/1.1/DTD/svg11.dtd">
<svg version="1.1" id="Layer_1" xmlns="http://www.w3.org/2000/svg" xmlns:xlink="http://www.w3.org/1999/xlink" x="0px" y="0px"
	 width="538.708px" height="51.889px" viewBox="0 0 538.708 51.889" enable-background="new 0 0 538.708 51.889"
	 xml:space="preserve">
<g id="Layer_1_1_">
	<g>
		<path fill="#43311E" d="M113.665,30.809c-1.598,4.559-2.585,7.19-3.431,9.775l-0.94,0.282l-9.399-26.694l-6.204,16.919
			c-1.222,3.384-2.491,6.438-3.619,9.729h-0.94l-8.694-24.814c-1.175-3.337-2.538-7.097-3.337-8.977l3.76-0.282l8.977,26.413
			l6.438-17.765c0.799-2.35,2.726-7.66,3.102-8.788l0.987-0.282l9.399,26.835l5.875-17.389c1.034-3.055,2.256-6.908,2.867-8.835
			h3.807L113.665,30.809z"/>
		<path fill="#43311E" d="M138.435,29.681l-14.099,0.376c0.141,5.076,2.914,7.802,7.52,7.802c3.29,0,5.733-1.41,7.801-3.149
			l-0.141,3.384c-2.209,1.551-4.7,2.632-8.036,2.632c-6.768,0-10.387-4.841-10.387-10.762c0-6.674,4.23-11.938,10.668-11.938
			c6.062,0,8.835,4.559,8.835,10.339L138.435,29.681z M137.542,27.237c-0.423-4.136-2.303-6.438-6.016-6.438
			c-3.901,0-6.486,3.008-7.097,6.768L137.542,27.237z"/>
		<path fill="#43311E" d="M157.423,19.717l-1.128,2.867c-1.41-0.987-3.196-1.645-5.217-1.645c-2.256,0-4.183,0.987-4.183,3.148
			c0,4.136,11.279,3.243,11.279,9.823c0,4.277-3.807,6.814-8.083,6.814c-2.444,0-5.405-0.705-7.05-1.786l0.188-3.431
			c1.786,1.316,4.417,2.303,6.955,2.303c2.632,0,4.794-1.175,4.794-3.384c0-4.7-11.279-3.431-11.279-10.199
			c0-3.478,3.102-6.204,7.426-6.204C153.758,18.025,156.014,18.872,157.423,19.717z"/>
		<path fill="#43311E" d="M172.886,39.456c-0.893,0.705-2.491,1.175-3.995,1.175c-3.666,0-5.311-2.115-5.311-5.78V21.315h-3.76
			l0.893-2.82h2.914l0.329-4.7l2.867-0.752v5.452h5.922c-0.094,0.799-0.141,1.551-0.141,2.82h-5.781v13.206
			c0,2.35,0.987,3.149,2.773,3.149c1.316,0,2.538-0.517,3.431-1.081L172.886,39.456z"/>
		<path fill="#43311E" d="M205.268,40.114c-2.82-0.141-6.156-0.188-9.446-0.188c-3.196,0-6.626,0.047-9.353,0.188
			c0.188-2.256,0.282-8.413,0.282-11.467V18.261c0-3.008-0.094-9.071-0.282-11.327c1.316,0,2.679-0.047,3.807-0.188
			c-0.047,1.363-0.094,5.076-0.094,6.909v19.504c0,1.081,0,2.726,0.094,3.807c1.316,0,3.948,0.047,5.358,0.047
			c3.619,0,6.862-0.047,9.917-0.094C205.362,37.905,205.314,38.986,205.268,40.114z"/>
		<path fill="#43311E" d="M210.439,13.279c-1.363,0-2.256-1.081-2.256-2.209c0-1.316,0.94-2.444,2.35-2.444
			c1.363,0,2.256,1.081,2.256,2.256C212.789,12.198,211.849,13.279,210.439,13.279z M208.512,39.973
			c0.188-2.021,0.235-5.029,0.235-7.801v-5.499c0-2.726-0.094-6.062-0.282-8.083c1.269,0,2.585-0.047,3.666-0.188
			c-0.094,0.846-0.141,4.23-0.141,5.358v11.56c0,1.645,0.047,3.431,0.141,4.653H208.512z"/>
		<path fill="#43311E" d="M232.669,39.973c0.188-2.021,0.282-5.264,0.282-7.99v-5.687c0-3.478-1.457-5.404-4.465-5.404
			c-3.525,0-7.285,3.807-7.285,6.392v7.848c0,1.645,0.047,3.478,0.141,4.841h-3.619c0.141-2.021,0.235-5.264,0.235-7.99v-5.357
			c0-2.726-0.094-5.969-0.235-7.989c1.222,0,2.115-0.094,3.196-0.188l0.235,4.653c1.598-2.584,4.888-5.076,8.224-5.076
			c4.23,0,6.815,2.538,6.815,7.52v9.587c0,1.645,0.094,3.619,0.141,4.841L232.669,39.973L232.669,39.973z"/>
		<path fill="#43311E" d="M256.78,39.973c0.188-2.021,0.282-5.264,0.282-7.99v-5.687c0-3.478-1.457-5.404-4.465-5.404
			c-3.525,0-7.285,3.807-7.285,6.392v7.848c0,1.645,0.047,3.478,0.141,4.841h-3.619c0.141-2.021,0.235-5.264,0.235-7.99v-5.357
			c0-2.726-0.094-5.969-0.235-7.989c1.222,0,2.115-0.094,3.196-0.188l0.235,4.653c1.598-2.584,4.888-5.076,8.224-5.076
			c4.23,0,6.815,2.538,6.815,7.52v9.587c0,1.645,0.094,3.619,0.141,4.841L256.78,39.973L256.78,39.973z"/>
		<path fill="#43311E" d="M294.661,40.302l-9.117-14.146h-6.157v7.049c0,1.786,0.047,5.452,0.094,6.768h-3.807
			c0.188-2.256,0.282-8.271,0.282-11.326V18.261c0-3.008-0.094-9.118-0.282-11.374c1.928,0,6.11-0.141,8.271-0.188
			c7.802-0.094,11.984,4.229,11.891,9.211c-0.094,4.606-2.679,7.754-7.097,9.446l5.076,7.567c1.222,1.833,3.712,5.311,4.888,6.861
			L294.661,40.302z M284.886,23.242c4.653,0,7.378-3.196,7.378-6.861c0-4.183-2.678-6.627-8.083-6.627c-1.692,0-3.384,0-4.794,0.094
			v13.394H284.886z"/>
		<path fill="#43311E" d="M317.315,29.681l-14.1,0.376c0.142,5.076,2.914,7.802,7.52,7.802c3.29,0,5.733-1.41,7.802-3.149
			l-0.141,3.384c-2.209,1.551-4.7,2.632-8.037,2.632c-6.768,0-10.387-4.841-10.387-10.762c0-6.674,4.23-11.938,10.669-11.938
			c6.062,0,8.835,4.559,8.835,10.339L317.315,29.681z M316.422,27.237c-0.423-4.136-2.303-6.438-6.016-6.438
			c-3.9,0-6.485,3.008-7.096,6.768L316.422,27.237z"/>
		<path fill="#43311E" d="M336.303,19.717l-1.127,2.867c-1.41-0.987-3.196-1.645-5.217-1.645c-2.256,0-4.184,0.987-4.184,3.148
			c0,4.136,11.279,3.243,11.279,9.823c0,4.277-3.807,6.814-8.083,6.814c-2.444,0-5.405-0.705-7.05-1.786l0.188-3.431
			c1.786,1.316,4.417,2.303,6.955,2.303c2.632,0,4.794-1.175,4.794-3.384c0-4.7-11.279-3.431-11.279-10.199
			c0-3.478,3.102-6.204,7.426-6.204C332.638,18.025,334.894,18.872,336.303,19.717z"/>
		<path fill="#43311E" d="M343.024,13.279c-1.363,0-2.256-1.081-2.256-2.209c0-1.316,0.94-2.444,2.35-2.444
			c1.363,0,2.256,1.081,2.256,2.256C345.374,12.198,344.434,13.279,343.024,13.279z M341.098,39.973
			c0.188-2.021,0.234-5.029,0.234-7.801v-5.499c0-2.726-0.094-6.062-0.281-8.083c1.269,0,2.584-0.047,3.666-0.188
			c-0.095,0.846-0.142,4.23-0.142,5.358v11.56c0,1.645,0.047,3.431,0.142,4.653H341.098z"/>
		<path fill="#43311E" d="M365.442,19.812v-5.311c0-3.196-0.047-5.734-0.235-7.896c1.223-0.094,2.585-0.235,3.619-0.47
			c-0.094,0.846-0.141,3.525-0.141,5.405v21.571c0,2.585,0.094,4.935,0.281,6.815h-3.008l-0.281-2.632
			c-1.316,1.645-3.995,3.431-7.003,3.431c-6.016,0-9.775-4.653-9.775-10.622c0-6.861,4.605-12.078,11.044-12.078
			C362.152,18.025,364.174,18.777,365.442,19.812z M352.143,29.634c0,5.264,3.055,8.225,7.096,8.225
			c2.633,0,4.982-1.551,6.204-3.619V23.054c-1.269-1.316-3.102-2.162-5.452-2.162C355.104,20.893,352.143,24.84,352.143,29.634z"/>
		<path fill="#43311E" d="M390.446,29.681l-14.1,0.376c0.142,5.076,2.914,7.802,7.52,7.802c3.29,0,5.733-1.41,7.802-3.149
			l-0.141,3.384c-2.209,1.551-4.7,2.632-8.037,2.632c-6.768,0-10.387-4.841-10.387-10.762c0-6.674,4.23-11.938,10.669-11.938
			c6.062,0,8.835,4.559,8.835,10.339L390.446,29.681z M389.553,27.237c-0.423-4.136-2.303-6.438-6.016-6.438
			c-3.9,0-6.485,3.008-7.096,6.768L389.553,27.237z"/>
		<path fill="#43311E" d="M411.502,39.973c0.188-2.021,0.282-5.264,0.282-7.99v-5.687c0-3.478-1.457-5.404-4.465-5.404
			c-3.524,0-7.284,3.807-7.284,6.392v7.848c0,1.645,0.047,3.478,0.141,4.841h-3.619c0.141-2.021,0.235-5.264,0.235-7.99v-5.357
			c0-2.726-0.095-5.969-0.235-7.989c1.223,0,2.115-0.094,3.196-0.188l0.235,4.653c1.598-2.584,4.887-5.076,8.224-5.076
			c4.229,0,6.815,2.538,6.815,7.52v9.587c0,1.645,0.094,3.619,0.141,4.841L411.502,39.973L411.502,39.973z"/>
		<path fill="#43311E" d="M436.6,23.054c-1.598-1.269-3.76-2.115-6.156-2.115c-4.794,0-7.943,3.807-7.943,8.412
			c0,5.452,3.666,8.507,8.084,8.507c2.82,0,4.841-0.893,7.003-2.773l-0.188,3.431c-2.256,1.504-4.183,2.209-7.19,2.209
			c-6.392,0-10.903-4.7-10.903-10.856c0-6.533,4.559-11.843,11.326-11.843c2.727,0,5.217,0.893,6.908,2.115L436.6,23.054z"/>
		<path fill="#43311E" d="M457.516,29.681l-14.1,0.376c0.141,5.076,2.914,7.802,7.52,7.802c3.29,0,5.734-1.41,7.802-3.149
			l-0.142,3.384c-2.208,1.551-4.699,2.632-8.036,2.632c-6.768,0-10.386-4.841-10.386-10.762c0-6.674,4.229-11.938,10.668-11.938
			c6.062,0,8.836,4.559,8.836,10.339L457.516,29.681z M456.623,27.237c-0.424-4.136-2.304-6.438-6.016-6.438
			c-3.901,0-6.486,3.008-7.098,6.768L456.623,27.237z"/>
	</g>
</g>
<g id="Layer_2">
	<rect y="0" fill="none" width="538.708" height="51.889"/>
</g>
</svg>
