<?xml version="1.0" encoding="utf-8"?>
<!-- Generator: Adobe Illustrator 17.0.0, SVG Export Plug-In . SVG Version: 6.00 Build 0)  -->
<!DOCTYPE svg PUBLIC "-//W3C//DTD SVG 1.1//EN" "http://www.w3.org/Graphics/SVG/1.1/DTD/svg11.dtd">
<svg version="1.1" id="Layer_1" xmlns="http://www.w3.org/2000/svg" xmlns:xlink="http://www.w3.org/1999/xlink" x="0px" y="0px"
	 width="469.289px" height="34.684px" viewBox="0 0 469.289 34.684" enable-background="new 0 0 469.289 34.684"
	 xml:space="preserve">
<g>
	<path fill="#81673F" d="M165.716,10.058c2.021-4.464,3.243-7.189,4.229-9.774l0.94-0.281l11.326,24.908
		c1.457,3.29,3.242,7.05,4.183,8.929l-3.76,0.33l-4.888-10.904h-14.569l-0.752,1.739c-1.315,3.148-2.819,6.956-3.571,8.835H155
		L165.716,10.058z M164.447,20.398h12.031l-6.016-13.771L164.447,20.398z"/>
	<path fill="#81673F" d="M191.988,33.838c0.188-2.256,0.235-8.271,0.235-11.326V12.126c0-3.008-0.047-9.07-0.235-11.326
		c1.457,0,6.063-0.188,8.179-0.188c8.224,0,11.373,4.137,11.373,8.226c0,3.572-2.256,6.298-5.781,7.379
		c4.935,1.222,7.332,4.276,7.332,8.178c0,5.357-4.371,9.445-12.031,9.445L191.988,33.838L191.988,33.838z M199.696,15.181
		c5.546,0,8.318-2.491,8.318-5.969c0-3.479-2.538-5.593-8.131-5.593c-1.879,0-3.242,0.094-4.229,0.141
		c-0.047,0.517-0.047,2.632-0.047,3.102v5.217c0,0.657,0,2.585,0.047,3.008C196.359,15.134,198.851,15.181,199.696,15.181z
		 M200.871,30.783c5.311,0,8.695-2.114,8.695-6.438c0-3.712-3.008-6.345-9.775-6.345c-1.599,0-2.961,0-4.184,0.094v8.977
		c0,1.13,0,2.444,0.047,3.525C197.394,30.737,199.273,30.783,200.871,30.783z"/>
	<path fill="#81673F" d="M218.215,18.189c0-10.15,6.909-18.188,16.919-18.188c9.493,0,15.979,7.613,15.979,16.496
		c0,10.151-6.908,18.188-16.919,18.188C224.7,34.685,218.215,27.071,218.215,18.189z M247.541,17.108
		c0-8.364-5.311-14.146-12.689-14.146c-7.801,0-13.112,6.673-13.112,14.616c0,8.318,5.311,14.146,12.736,14.146
		C242.277,31.724,247.541,25.05,247.541,17.108z"/>
	<path fill="#81673F" d="M282.415,7.521V20.68c0,5.122-1.222,8.083-3.571,10.433c-2.396,2.352-5.594,3.572-9.869,3.572
		c-7.285,0-12.455-4.465-12.455-12.079v-10.48c0-3.008-0.047-9.07-0.233-11.326c1.362,0,2.678-0.048,3.854-0.188
		c-0.142,1.363-0.142,5.076-0.142,6.909v13.911c0,7.237,3.712,10.15,9.681,10.15c5.733,0,9.307-3.524,9.307-9.493v-9.963
		c0-3.008-0.047-9.07-0.282-11.326c1.362,0,2.679-0.048,3.901-0.188C282.462,1.975,282.415,5.687,282.415,7.521z"/>
	<path fill="#81673F" d="M314.751,3.76c-3.571-0.094-7.144-0.094-11.421-0.094c-0.047,1.128,0,2.819,0,3.948V27.07
		c0,1.786,0,5.452,0.095,6.769h-3.808c0.188-2.256,0.234-8.271,0.234-11.326V12.267c0-2.35,0.049-6.108-0.047-8.601
		c-4.275,0-8.225,0.047-11.607,0.094c0.141-0.94,0.188-2.068,0.188-3.196c4.042,0.095,8.459,0.188,13.206,0.188
		c4.746,0,9.354-0.094,13.488-0.188C314.845,1.599,314.798,2.586,314.751,3.76z"/>
</g>
<line display="none" fill="none" stroke="#BCDFD6" stroke-width="0.25" stroke-miterlimit="10" x1="1" y1="31.509" x2="1" y2="3.176"/>
<line display="none" fill="none" stroke="#BCDFD6" stroke-width="0.25" stroke-miterlimit="10" x1="468.143" y1="31.509" x2="468.143" y2="3.176"/>
</svg>
