<?xml version="1.0" encoding="utf-8"?>
<!-- Generator: Adobe Illustrator 16.0.0, SVG Export Plug-In . SVG Version: 6.00 Build 0)  -->
<!DOCTYPE svg PUBLIC "-//W3C//DTD SVG 1.1//EN" "http://www.w3.org/Graphics/SVG/1.1/DTD/svg11.dtd">
<svg version="1.1" id="Layer_1" xmlns="http://www.w3.org/2000/svg" xmlns:xlink="http://www.w3.org/1999/xlink" x="0px" y="0px"
	 width="603.268px" height="105.426px" viewBox="0 0 603.268 105.426" enable-background="new 0 0 603.268 105.426"
	 xml:space="preserve">
<path fill="#43311E" stroke="#43311E" stroke-miterlimit="10" d="M0.5,71.333c0-17.578,13.431-32.241,30.941-33.78l0.035,0.068
	v-17.07h2.965v50.813H0.566L0.5,71.333z M7.486,68.399h23.99v-23.99l-0.034-0.035C18.813,45.763,8.841,55.735,7.451,68.366
	L7.486,68.399z"/>
<path fill="#43311E" stroke="#43311E" stroke-width="0.24" stroke-linecap="round" stroke-linejoin="round" stroke-miterlimit="10" d="
	M69.108,68.267h30.778v2.966H66.011L65.945,71.2c0-18.727,15.181-33.909,33.909-33.909l0.013,0.008
	c-1.56,14.775-14.616,25.612-29.426,24.422l-0.05,0.021c-0.677,2.108-1.126,4.284-1.338,6.489L69.108,68.267z M73.519,55.066
	c8.41-0.362,15.753-5.823,18.545-13.79l-0.008-0.021c-7.743,2.016-14.404,6.953-18.585,13.775L73.519,55.066z"/>
<path fill="#43311E" stroke="#43311E" stroke-width="0.24" stroke-linecap="round" stroke-linejoin="round" stroke-miterlimit="10" d="
	M108.356,71.233c18.727,0,33.909-15.182,33.909-33.909v0.032h-6.789v-0.032c0,10.547-6.115,20.137-15.678,24.588l-0.008,0.027
	V37.356h-2.966v25.77l0.006-0.041c-1.79,0.59-3.636,0.99-5.509,1.197l0.033,0.029V37.356h-2.966v33.876L108.356,71.233
	L108.356,71.233z"/>
<path fill="#43311E" stroke="#43311E" stroke-width="0.24" stroke-linecap="round" stroke-linejoin="round" stroke-miterlimit="10" d="
	M61.99,53.174l5.272-5.338l-0.003-0.009c-6.378-6.606-15.167-10.338-24.349-10.338h0.033v33.876h2.966V45.2l-0.039-0.097
	c6.126,0.695,11.814,3.522,16.075,7.991L61.99,53.174z"/>
<path fill="#43311E" stroke="#43311E" stroke-width="0.24" stroke-linecap="round" stroke-linejoin="round" stroke-miterlimit="10" d="
	M178.808,68.366c1.512-13.748,13.127-24.154,26.958-24.154l0.033,0.066v-6.789h-0.043c-8.989-0.014-17.615,3.547-23.974,9.901
	c-6.359,6.353-9.93,14.976-9.924,23.965l0.066,0.011h33.875v-2.967h-26.956L178.808,68.366z"/>
<path fill="#43311E" stroke="#43311E" stroke-width="0.24" stroke-linecap="round" stroke-linejoin="round" stroke-miterlimit="10" d="
	M217.266,71.366V45.2l-0.039-0.097c6.126,0.695,11.815,3.522,16.075,7.991l0.045,0.08l5.272-5.338l-0.003-0.009
	c-6.377-6.606-15.166-10.338-24.349-10.338h0.033v33.876H217.266z"/>
<path fill="#43311E" stroke="#43311E" stroke-width="0.24" stroke-linecap="round" stroke-linejoin="round" stroke-miterlimit="10" d="
	M272.429,37.456c0,18.727-15.182,33.91-33.909,33.91l-0.033,0.032c0-18.728,15.181-33.909,33.909-33.909L272.429,37.456z
	 M244.685,67.778c12.171-2.474,21.684-11.986,24.158-24.158l-0.034,0.031c-12.606,1.629-22.529,11.553-24.16,24.159L244.685,67.778z
	"/>
<path fill="#43311E" stroke="#43311E" stroke-width="0.24" stroke-linecap="round" stroke-linejoin="round" stroke-miterlimit="10" d="
	M314.741,71.43h-5.932l-0.065-0.036c-0.002-14.267-10.762-26.237-24.949-27.75l0.037,0.04V71.43h-2.966V37.555h-0.033
	c18.69,0,33.841,15.15,33.843,33.84L314.741,71.43z"/>
<rect x="323.177" y="37.489" fill="#43311E" stroke="#43311E" stroke-width="0.24" stroke-linecap="round" stroke-linejoin="round" stroke-miterlimit="10" width="2.966" height="33.941"/>
<path fill="#43311E" stroke="#43311E" stroke-width="0.24" stroke-linecap="round" stroke-linejoin="round" stroke-miterlimit="10" d="
	M324.66,30.503c-1.365,0-2.472,1.106-2.472,2.472c0,1.365,1.106,2.471,2.472,2.471s2.471-1.106,2.471-2.471
	C327.131,31.609,326.025,30.503,324.66,30.503"/>
<path fill="#43311E" stroke="#43311E" stroke-width="0.24" stroke-linecap="round" stroke-linejoin="round" stroke-miterlimit="10" d="
	M367.202,71.43h-5.933v-0.036c-0.001-14.267-10.762-26.237-24.948-27.75l0.036,0.04V71.43h-2.967V37.555h-0.032
	c18.689,0,33.841,15.15,33.843,33.84L367.202,71.43L367.202,71.43z"/>
<line fill="none" stroke="#000000" stroke-width="0.24" stroke-linecap="round" stroke-linejoin="round" stroke-miterlimit="10" x1="396.332" y1="69.717" x2="396.332" y2="69.717"/>
<path fill="#43311E" stroke="#43311E" stroke-width="0.24" stroke-linecap="round" stroke-linejoin="round" stroke-miterlimit="10" d="
	M430.208,71.43h-33.876l-0.065-0.033c0-17.577,13.433-32.24,30.941-33.778l0.035,0.001V0.12h2.965V71.43z M399.431,68.465h27.812
	V40.652l-0.035-0.055c-14.743,1.42-26.411,13.089-27.833,27.833L399.431,68.465z"/>
<path fill="#43311E" stroke="#43311E" stroke-width="0.24" stroke-linecap="round" stroke-linejoin="round" stroke-miterlimit="10" d="
	M441.742,68.465h30.777v2.965h-33.876l-0.064-0.033c0-18.728,15.182-33.909,33.909-33.909l0.012,0.008
	c-1.558,14.775-14.614,25.611-29.424,24.42l-0.051,0.022c-0.679,2.108-1.126,4.285-1.339,6.49L441.742,68.465z M444.171,59.016
	c11.556,0.52,21.892-7.141,24.755-18.35l-0.014-0.004c-10.946,1.274-20.389,8.272-24.792,18.375L444.171,59.016z"/>
<polyline fill="#43311E" stroke="#43311E" stroke-width="0.24" stroke-linecap="round" stroke-linejoin="round" stroke-miterlimit="10" points="
	516.744,71.43 516.744,37.489 519.71,37.489 519.71,71.43 516.744,71.43 "/>
<path fill="#43311E" stroke="#43311E" stroke-width="0.24" stroke-linecap="round" stroke-linejoin="round" stroke-miterlimit="10" d="
	M603.146,71.43h-2.966l-0.065-0.036c-0.001-15.903-12.084-29.206-27.915-30.731l0.037-0.011V71.43h-2.966V37.555l0,0
	c18.688,0,33.808,15.15,33.81,33.84L603.146,71.43z"/>
<path fill="#43311E" stroke="#43311E" stroke-width="0.24" stroke-linecap="round" stroke-linejoin="round" stroke-miterlimit="10" d="
	M481.023,68.397c11.236,0,20.977-7.605,23.664-18.518h-5.081h-18.583v-1.595l0.014-1.384c0.354-3.355,1.244-6.607,2.783-9.609h1.218
	h0.672h1.516c-1.752,2.94-2.861,6.235-3.265,9.634l3.438-0.011h12.108l8.716-0.058c-1.471,13.934-13.189,24.506-27.198,24.506V70.32
	v-0.959L481.023,68.397L481.023,68.397z"/>
<path fill="#43311E" stroke="#43311E" stroke-width="0.24" stroke-linecap="round" stroke-linejoin="round" stroke-miterlimit="10" d="
	M560.769,71.397c0,18.727-15.181,33.909-33.908,33.909h0.032v-2.966h-0.032c17.09,0,30.942-13.854,30.942-30.943v0.033V51.395
	l-0.001-0.067c-5.465,12.192-17.581,20.038-30.941,20.038l-0.031,0.032c0-18.728,15.181-33.909,33.907-33.909h0.032V71.43V71.397z
	 M557.611,40.613c-14.618,1.483-26.177,13.042-27.66,27.66l0.033-0.032c14.617-1.482,26.177-13.041,27.661-27.66L557.611,40.613z"/>
<path fill="#43311E" stroke="#43311E" stroke-width="0.24" stroke-linecap="round" stroke-linejoin="round" stroke-miterlimit="10" d="
	M518.227,30.503c-1.364,0-2.472,1.106-2.472,2.472c0,1.365,1.106,2.471,2.472,2.471c1.366,0,2.473-1.106,2.473-2.471
	C520.698,31.609,519.592,30.503,518.227,30.503"/>
<g>
	<path fill="#42301F" d="M6.116,104.482c-0.84-0.056-1.877-0.069-2.872-0.069c-0.994,0-2.031,0.014-2.857,0.069
		c0.07-0.672,0.098-2.521,0.098-3.432v-3.096c0-0.896-0.028-2.703-0.098-3.376c0.546,0,1.064-0.014,1.513-0.069
		c-0.028,0.406-0.042,1.526-0.042,2.072v5.8c0,0.224,0,0.588,0.028,0.868c0.392,0,0.84,0.014,1.261,0.014
		c1.134,0,2.115-0.014,3.067-0.042C6.158,103.614,6.13,104.034,6.116,104.482z"/>
	<path fill="#42301F" d="M14.29,97.254c0.546-1.177,0.911-2.003,1.219-2.815l0.364-0.098l3.362,7.228
		c0.406,0.883,0.938,2.017,1.373,2.857l-1.513,0.112l-1.317-2.928h-4.146l-0.056,0.14c-0.364,0.854-0.756,1.835-1.093,2.676H10.97
		L14.29,97.254z M14.136,100.49h3.138l-1.569-3.529L14.136,100.49z"/>
	<path fill="#42301F" d="M26.566,101.05l0.056-3.361c0.014-0.896,0-2.578-0.056-3.25l0.364-0.098l6.472,7.493v-3.88
		c0-0.896-0.028-2.703-0.112-3.376c0.546,0,1.079-0.014,1.555-0.069c-0.056,0.406-0.098,1.526-0.112,2.072l-0.098,5.912
		c-0.014,0.546-0.014,1.681,0.028,2.072l-0.364,0.099l-6.416-7.382v5.127c0,0.546,0.014,1.624,0.056,2.017h-1.541
		C26.482,103.753,26.552,101.96,26.566,101.05z"/>
	<path fill="#42301F" d="M44.922,104.426h-2.97c0.07-0.673,0.098-2.466,0.098-3.376v-3.096c0-0.896-0.028-2.703-0.098-3.376
		c0.504,0,1.401-0.069,2.731-0.069c3.488,0,5.323,2.157,5.323,4.692C50.006,102.255,47.961,104.426,44.922,104.426z M44.656,95.7
		c-0.448,0-0.84,0.014-1.219,0.042c-0.014,0.252-0.014,0.645-0.014,0.868v5.771c0,0.238,0,0.504,0.014,0.784
		c0.42,0.042,0.742,0.07,1.261,0.07c2.815,0,3.894-1.779,3.894-3.853C48.592,97.17,47.205,95.7,44.656,95.7z"/>
	<path fill="#42301F" d="M58.641,104.678c-0.91,0-2.031-0.35-2.759-0.826l0.084-1.457c0.561,0.505,1.709,1.051,2.76,1.051
		c1.064,0,1.807-0.546,1.807-1.597c0-1.934-4.258-2.087-4.258-4.665c0-1.583,1.275-2.843,3.096-2.843
		c0.925,0,1.737,0.321,2.283,0.728l-0.448,1.205c-0.476-0.393-1.261-0.7-1.891-0.7c-0.994,0-1.667,0.574-1.667,1.442
		c0,1.793,4.258,1.85,4.258,4.65C61.905,103.348,60.672,104.678,58.641,104.678z"/>
	<path fill="#42301F" d="M75.906,103.558c-0.938,0.729-2.017,1.12-3.208,1.12c-2.872,0-4.903-2.283-4.903-4.916
		c0-3.026,2.185-5.421,5.169-5.421c1.05,0,2.171,0.35,2.914,0.882l-0.392,1.261c-0.701-0.546-1.653-0.896-2.605-0.896
		c-2.144,0-3.67,1.681-3.67,3.88c0,2.563,1.583,3.979,3.572,3.979c1.317,0,2.283-0.532,3.222-1.415L75.906,103.558z"/>
	<path fill="#42301F" d="M84.387,97.254c0.546-1.177,0.911-2.003,1.219-2.815l0.364-0.098l3.362,7.228
		c0.406,0.883,0.938,2.017,1.373,2.857l-1.513,0.112l-1.317-2.928h-4.146l-0.056,0.14c-0.364,0.854-0.756,1.835-1.093,2.676h-1.513
		L84.387,97.254z M84.233,100.49h3.138l-1.569-3.529L84.233,100.49z"/>
	<path fill="#42301F" d="M98.079,102.41c0,0.532,0.014,1.624,0.042,2.017h-1.513c0.07-0.673,0.098-2.466,0.098-3.376v-3.096
		c0-0.896-0.028-2.703-0.098-3.376c0.504,0,1.765-0.069,2.746-0.069c2.381,0,3.586,1.358,3.586,2.899c0,1.835-1.19,3.348-4.09,3.348
		c-0.238,0-0.518-0.014-0.77-0.028V102.41z M99.129,95.7c-0.392,0-0.644,0.014-1.05,0.042v3.852
		c0.252,0.028,0.532,0.042,0.784,0.042c1.667,0,2.662-0.742,2.662-2.017C101.525,96.4,100.782,95.7,99.129,95.7z"/>
	<path fill="#42301F" d="M114.811,104.482c-0.84-0.056-1.877-0.069-2.872-0.069c-0.994,0-2.045,0.014-2.857,0.069
		c0.07-0.672,0.098-2.521,0.098-3.432v-3.096c0-0.896-0.028-2.787-0.098-3.46c0.812,0.042,1.765,0.07,2.76,0.07
		c0.994,0,1.947-0.028,2.787-0.07c-0.07,0.406-0.098,0.771-0.112,1.219c-0.827-0.014-1.681-0.028-2.675-0.028
		c-0.42,0-0.869,0-1.275,0.015c-0.014,0.266-0.014,0.645-0.014,0.854v2.115l3.418-0.028c-0.028,0.336-0.042,0.799-0.042,1.205
		l-3.376-0.028v2.592c0,0.21,0,0.602,0.014,0.868c0.42,0,0.854,0.014,1.275,0.014c1.134,0,2.115-0.014,3.067-0.042
		C114.853,103.642,114.825,104.034,114.811,104.482z"/>
	<path fill="#42301F" d="M145.539,104.678c-0.91,0-2.031-0.35-2.759-0.826l0.084-1.457c0.561,0.505,1.709,1.051,2.76,1.051
		c1.064,0,1.807-0.546,1.807-1.597c0-1.934-4.258-2.087-4.258-4.665c0-1.583,1.275-2.843,3.096-2.843
		c0.925,0,1.737,0.321,2.283,0.728l-0.448,1.205c-0.476-0.393-1.261-0.7-1.891-0.7c-0.994,0-1.667,0.574-1.667,1.442
		c0,1.793,4.258,1.85,4.258,4.65C148.803,103.348,147.57,104.678,145.539,104.678z"/>
	<path fill="#42301F" d="M155.38,104.426c0.07-0.673,0.098-2.466,0.098-3.376v-3.096c0-0.896-0.028-2.703-0.098-3.376
		c0.546,0,1.064-0.014,1.513-0.069c-0.028,0.406-0.042,1.526-0.042,2.072v5.828c0,0.532,0.014,1.624,0.042,2.017H155.38z"/>
	<path fill="#42301F" d="M171.273,95.742c-1.079-0.014-2.017-0.028-3.278-0.028c-0.014,0.309-0.014,0.673-0.014,0.911v5.785
		c0,0.532,0.014,1.624,0.042,2.017h-1.513c0.07-0.673,0.098-2.466,0.098-3.376v-3.039c0-0.589,0-1.514-0.028-2.298
		c-1.261,0-2.255,0.015-3.32,0.028c0.042-0.351,0.056-0.812,0.056-1.247c1.261,0.042,2.465,0.07,3.978,0.07
		c1.527,0,2.802-0.028,4.09-0.07C171.315,94.901,171.287,95.293,171.273,95.742z"/>
	<path fill="#42301F" d="M183.369,104.482c-0.84-0.056-1.877-0.069-2.872-0.069c-0.994,0-2.045,0.014-2.857,0.069
		c0.07-0.672,0.098-2.521,0.098-3.432v-3.096c0-0.896-0.028-2.787-0.098-3.46c0.812,0.042,1.765,0.07,2.76,0.07
		c0.994,0,1.947-0.028,2.787-0.07c-0.07,0.406-0.098,0.771-0.112,1.219c-0.827-0.014-1.681-0.028-2.675-0.028
		c-0.42,0-0.869,0-1.275,0.015c-0.014,0.266-0.014,0.645-0.014,0.854v2.115l3.418-0.028c-0.028,0.336-0.042,0.799-0.042,1.205
		l-3.376-0.028v2.592c0,0.21,0,0.602,0.014,0.868c0.42,0,0.854,0.014,1.275,0.014c1.134,0,2.115-0.014,3.067-0.042
		C183.411,103.642,183.383,104.034,183.369,104.482z"/>
	<path fill="#42301F" d="M216.492,104.678c-2.872,0-5.071-2.227-5.071-5.043c0-2.941,2.283-5.294,5.337-5.294
		c1.051,0,2.339,0.378,3.11,0.882l-0.393,1.261c-0.7-0.561-1.905-0.896-2.857-0.896c-2.269,0-3.782,1.667-3.782,3.937
		c0,2.493,1.737,3.922,3.81,3.922c0.784,0,1.4-0.14,1.989-0.448v-1.751c0-0.21,0-0.588-0.028-0.841
		c-0.42-0.014-0.308-0.014-0.743-0.014c-0.7,0-1.106,0.014-1.905,0.042c0.028-0.477,0.028-0.925,0-1.261
		c0.854,0.028,1.274,0.042,1.905,0.042c0.98,0,1.387-0.014,2.213-0.056c-0.07,0.546-0.098,2.493-0.098,3.39v1.093
		C219.195,104.16,218.187,104.678,216.492,104.678z"/>
	<path fill="#42301F" d="M232.354,104.524l-2.535-3.978h-1.555v1.863c0,0.532,0.014,1.624,0.042,2.017h-1.513
		c0.07-0.673,0.098-2.466,0.098-3.376v-3.096c0-0.896-0.028-2.703-0.098-3.376c0.504,0,1.933-0.056,2.578-0.069
		c2.451-0.042,3.81,1.316,3.768,2.857c-0.042,1.358-0.743,2.269-2.073,2.857l1.443,2.115c0.378,0.532,1.148,1.61,1.471,2.003
		L232.354,104.524z M229.735,99.398c1.261,0,1.989-0.854,1.989-1.85c0-1.204-0.742-1.849-2.213-1.849
		c-0.462,0-0.869,0.014-1.247,0.042v3.656H229.735z"/>
	<path fill="#42301F" d="M242.125,97.254c0.546-1.177,0.911-2.003,1.219-2.815l0.364-0.098l3.362,7.228
		c0.406,0.883,0.938,2.017,1.373,2.857l-1.513,0.112l-1.317-2.928h-4.146l-0.056,0.14c-0.364,0.854-0.756,1.835-1.093,2.676h-1.513
		L242.125,97.254z M241.971,100.49h3.138l-1.569-3.529L241.971,100.49z"/>
	<path fill="#42301F" d="M257.329,104.426h-2.97c0.07-0.673,0.098-2.466,0.098-3.376v-3.096c0-0.896-0.028-2.703-0.098-3.376
		c0.504,0,1.401-0.069,2.731-0.069c3.488,0,5.323,2.157,5.323,4.692C262.414,102.255,260.369,104.426,257.329,104.426z
		 M257.063,95.7c-0.448,0-0.84,0.014-1.219,0.042c-0.014,0.252-0.014,0.645-0.014,0.868v5.771c0,0.238,0,0.504,0.014,0.784
		c0.42,0.042,0.742,0.07,1.261,0.07c2.815,0,3.894-1.779,3.894-3.853C260.999,97.17,259.612,95.7,257.063,95.7z"/>
	<path fill="#42301F" d="M274.732,104.482c-0.84-0.056-1.877-0.069-2.872-0.069c-0.994,0-2.045,0.014-2.857,0.069
		c0.07-0.672,0.098-2.521,0.098-3.432v-3.096c0-0.896-0.028-2.787-0.098-3.46c0.812,0.042,1.765,0.07,2.76,0.07
		c0.994,0,1.947-0.028,2.787-0.07c-0.07,0.406-0.098,0.771-0.112,1.219c-0.827-0.014-1.681-0.028-2.675-0.028
		c-0.42,0-0.869,0-1.275,0.015c-0.014,0.266-0.014,0.645-0.014,0.854v2.115l3.418-0.028c-0.028,0.336-0.042,0.799-0.042,1.205
		l-3.376-0.028v2.592c0,0.21,0,0.602,0.014,0.868c0.42,0,0.854,0.014,1.275,0.014c1.134,0,2.115-0.014,3.067-0.042
		C274.774,103.642,274.746,104.034,274.732,104.482z"/>
	<path fill="#42301F" d="M304.872,102.41c0,0.532,0.014,1.624,0.042,2.017h-1.513c0.069-0.673,0.098-2.466,0.098-3.376v-3.096
		c0-0.896-0.028-2.703-0.098-3.376c0.504,0,1.765-0.069,2.745-0.069c2.381,0,3.586,1.358,3.586,2.899c0,1.835-1.19,3.348-4.09,3.348
		c-0.238,0-0.519-0.014-0.771-0.028V102.41z M305.923,95.7c-0.393,0-0.645,0.014-1.051,0.042v3.852
		c0.252,0.028,0.532,0.042,0.784,0.042c1.667,0,2.661-0.742,2.661-2.017C308.317,96.4,307.575,95.7,305.923,95.7z"/>
	<path fill="#42301F" d="M321.604,104.482c-0.841-0.056-1.877-0.069-2.872-0.069c-0.994,0-2.031,0.014-2.857,0.069
		c0.07-0.672,0.098-2.521,0.098-3.432v-3.096c0-0.896-0.027-2.703-0.098-3.376c0.546,0,1.064-0.014,1.513-0.069
		c-0.028,0.406-0.042,1.526-0.042,2.072v5.8c0,0.224,0,0.588,0.028,0.868c0.392,0,0.84,0.014,1.261,0.014
		c1.135,0,2.115-0.014,3.067-0.042C321.646,103.614,321.618,104.034,321.604,104.482z"/>
	<path fill="#42301F" d="M329.778,97.254c0.546-1.177,0.91-2.003,1.218-2.815l0.364-0.098l3.362,7.228
		c0.406,0.883,0.938,2.017,1.373,2.857l-1.514,0.112l-1.316-2.928h-4.146l-0.056,0.14c-0.364,0.854-0.757,1.835-1.093,2.676h-1.513
		L329.778,97.254z M329.624,100.49h3.138l-1.569-3.529L329.624,100.49z"/>
	<path fill="#42301F" d="M342.055,101.05l0.056-3.361c0.015-0.896,0-2.578-0.056-3.25l0.364-0.098l6.472,7.493v-3.88
		c0-0.896-0.028-2.703-0.112-3.376c0.546,0,1.079-0.014,1.555-0.069c-0.056,0.406-0.098,1.526-0.112,2.072l-0.098,5.912
		c-0.014,0.546-0.014,1.681,0.028,2.072l-0.364,0.099l-6.416-7.382v5.127c0,0.546,0.015,1.624,0.057,2.017h-1.541
		C341.971,103.753,342.041,101.96,342.055,101.05z"/>
	<path fill="#42301F" d="M364.5,95.742c-1.078-0.014-2.017-0.028-3.277-0.028c-0.014,0.309-0.014,0.673-0.014,0.911v5.785
		c0,0.532,0.014,1.624,0.042,2.017h-1.514c0.07-0.673,0.099-2.466,0.099-3.376v-3.039c0-0.589,0-1.514-0.028-2.298
		c-1.261,0-2.255,0.015-3.319,0.028c0.042-0.351,0.056-0.812,0.056-1.247c1.261,0.042,2.466,0.07,3.979,0.07
		c1.526,0,2.801-0.028,4.09-0.07C364.542,94.901,364.515,95.293,364.5,95.742z"/>
	<path fill="#42301F" d="M395.255,104.678c-0.91,0-2.031-0.35-2.759-0.826l0.084-1.457c0.56,0.505,1.709,1.051,2.759,1.051
		c1.064,0,1.808-0.546,1.808-1.597c0-1.934-4.259-2.087-4.259-4.665c0-1.583,1.274-2.843,3.096-2.843
		c0.925,0,1.737,0.321,2.283,0.728l-0.448,1.205c-0.477-0.393-1.261-0.7-1.891-0.7c-0.995,0-1.667,0.574-1.667,1.442
		c0,1.793,4.258,1.85,4.258,4.65C398.519,103.348,397.286,104.678,395.255,104.678z"/>
	<path fill="#42301F" d="M411.96,95.742c-1.078-0.014-2.017-0.028-3.277-0.028c-0.015,0.309-0.015,0.673-0.015,0.911v5.785
		c0,0.532,0.015,1.624,0.043,2.017h-1.514c0.07-0.673,0.099-2.466,0.099-3.376v-3.039c0-0.589,0-1.514-0.028-2.298
		c-1.261,0-2.255,0.015-3.319,0.028c0.042-0.351,0.056-0.812,0.056-1.247c1.261,0.042,2.466,0.07,3.979,0.07
		c1.526,0,2.801-0.028,4.09-0.07C412.002,94.901,411.975,95.293,411.96,95.742z"/>
	<path fill="#42301F" d="M423.873,104.524l-2.535-3.978h-1.555v1.863c0,0.532,0.014,1.624,0.042,2.017h-1.513
		c0.069-0.673,0.098-2.466,0.098-3.376v-3.096c0-0.896-0.028-2.703-0.098-3.376c0.504,0,1.933-0.056,2.577-0.069
		c2.451-0.042,3.81,1.316,3.768,2.857c-0.042,1.358-0.742,2.269-2.072,2.857l1.442,2.115c0.378,0.532,1.148,1.61,1.471,2.003
		L423.873,104.524z M421.254,99.398c1.261,0,1.989-0.854,1.989-1.85c0-1.204-0.743-1.849-2.214-1.849
		c-0.462,0-0.868,0.014-1.246,0.042v3.656H421.254z"/>
	<path fill="#42301F" d="M439.358,96.582v3.755c0,1.639-0.35,2.493-1.078,3.207c-0.742,0.743-1.724,1.135-3.096,1.135
		c-2.199,0-3.754-1.387-3.754-3.614v-3.109c0-0.896-0.028-2.703-0.099-3.376c0.561,0,1.064-0.014,1.527-0.069
		c-0.042,0.406-0.057,1.526-0.057,2.072v4.035c0,2.087,1.037,2.843,2.647,2.843c1.597,0,2.536-0.98,2.536-2.549v-2.956
		c0-0.896-0.028-2.703-0.112-3.376c0.561,0,1.078-0.014,1.555-0.069C439.373,94.916,439.358,96.036,439.358,96.582z"/>
	<path fill="#42301F" d="M453.988,103.558c-0.938,0.729-2.018,1.12-3.208,1.12c-2.872,0-4.902-2.283-4.902-4.916
		c0-3.026,2.185-5.421,5.168-5.421c1.051,0,2.172,0.35,2.914,0.882l-0.393,1.261c-0.7-0.546-1.652-0.896-2.605-0.896
		c-2.143,0-3.67,1.681-3.67,3.88c0,2.563,1.583,3.979,3.572,3.979c1.316,0,2.283-0.532,3.222-1.415L453.988,103.558z"/>
	<path fill="#42301F" d="M467.512,95.742c-1.078-0.014-2.017-0.028-3.277-0.028c-0.014,0.309-0.014,0.673-0.014,0.911v5.785
		c0,0.532,0.014,1.624,0.042,2.017h-1.514c0.07-0.673,0.099-2.466,0.099-3.376v-3.039c0-0.589,0-1.514-0.028-2.298
		c-1.261,0-2.255,0.015-3.319,0.028c0.042-0.351,0.056-0.812,0.056-1.247c1.261,0.042,2.466,0.07,3.979,0.07
		c1.526,0,2.801-0.028,4.09-0.07C467.554,94.901,467.526,95.293,467.512,95.742z"/>
	<path fill="#42301F" d="M481.75,96.582v3.755c0,1.639-0.35,2.493-1.078,3.207c-0.742,0.743-1.724,1.135-3.096,1.135
		c-2.199,0-3.754-1.387-3.754-3.614v-3.109c0-0.896-0.028-2.703-0.099-3.376c0.561,0,1.064-0.014,1.527-0.069
		c-0.042,0.406-0.057,1.526-0.057,2.072v4.035c0,2.087,1.037,2.843,2.647,2.843c1.598,0,2.536-0.98,2.536-2.549v-2.956
		c0-0.896-0.028-2.703-0.112-3.376c0.561,0,1.078-0.014,1.555-0.069C481.765,94.916,481.75,96.036,481.75,96.582z"/>
	<path fill="#42301F" d="M494.447,104.524l-2.535-3.978h-1.555v1.863c0,0.532,0.014,1.624,0.042,2.017h-1.513
		c0.069-0.673,0.098-2.466,0.098-3.376v-3.096c0-0.896-0.028-2.703-0.098-3.376c0.504,0,1.933-0.056,2.577-0.069
		c2.451-0.042,3.81,1.316,3.768,2.857c-0.042,1.358-0.742,2.269-2.072,2.857l1.442,2.115c0.378,0.532,1.148,1.61,1.471,2.003
		L494.447,104.524z M491.828,99.398c1.261,0,1.989-0.854,1.989-1.85c0-1.204-0.743-1.849-2.214-1.849
		c-0.462,0-0.868,0.014-1.246,0.042v3.656H491.828z"/>
	<path fill="#42301F" d="M507.93,104.482c-0.841-0.056-1.877-0.069-2.872-0.069c-0.994,0-2.045,0.014-2.857,0.069
		c0.07-0.672,0.098-2.521,0.098-3.432v-3.096c0-0.896-0.027-2.787-0.098-3.46c0.812,0.042,1.765,0.07,2.76,0.07
		c0.994,0,1.947-0.028,2.787-0.07c-0.07,0.406-0.098,0.771-0.112,1.219c-0.826-0.014-1.681-0.028-2.675-0.028
		c-0.421,0-0.869,0-1.275,0.015c-0.014,0.266-0.014,0.645-0.014,0.854v2.115l3.418-0.028c-0.028,0.336-0.042,0.799-0.042,1.205
		l-3.376-0.028v2.592c0,0.21,0,0.602,0.014,0.868c0.421,0,0.854,0.014,1.275,0.014c1.135,0,2.115-0.014,3.067-0.042
		C507.972,103.642,507.943,104.034,507.93,104.482z"/>
</g>
</svg>
