<?xml version="1.0" encoding="utf-8"?>
<!-- Generator: Adobe Illustrator 16.0.0, SVG Export Plug-In . SVG Version: 6.00 Build 0)  -->
<!DOCTYPE svg PUBLIC "-//W3C//DTD SVG 1.1//EN" "http://www.w3.org/Graphics/SVG/1.1/DTD/svg11.dtd">
<svg version="1.1" id="Layer_1" xmlns="http://www.w3.org/2000/svg" xmlns:xlink="http://www.w3.org/1999/xlink" x="0px" y="0px"
	 width="603.268px" height="105.426px" viewBox="0 0 603.268 105.426" enable-background="new 0 0 603.268 105.426"
	 xml:space="preserve">
<path fill="#43311E" stroke="#43311E" stroke-miterlimit="10" d="M0.5,71.333c0-17.578,13.431-32.241,30.941-33.78l0.035,0.068
	v-17.07h2.965v50.813H0.566L0.5,71.333z M7.486,68.399h23.99v-23.99l-0.034-0.035C18.813,45.763,8.841,55.735,7.451,68.366
	L7.486,68.399z"/>
<path fill="#43311E" stroke="#43311E" stroke-width="0.24" stroke-linecap="round" stroke-linejoin="round" stroke-miterlimit="10" d="
	M69.108,68.267h30.778v2.966H66.011L65.945,71.2c0-18.727,15.181-33.909,33.909-33.909l0.013,0.008
	c-1.56,14.775-14.616,25.612-29.426,24.422l-0.05,0.021c-0.677,2.108-1.126,4.284-1.338,6.489L69.108,68.267z M73.519,55.066
	c8.41-0.362,15.753-5.823,18.545-13.79l-0.008-0.021c-7.743,2.016-14.404,6.953-18.585,13.775L73.519,55.066z"/>
<path fill="#43311E" stroke="#43311E" stroke-width="0.24" stroke-linecap="round" stroke-linejoin="round" stroke-miterlimit="10" d="
	M108.356,71.233c18.727,0,33.909-15.182,33.909-33.909v0.032h-6.789v-0.032c0,10.547-6.115,20.137-15.678,24.588l-0.008,0.027
	V37.356h-2.966v25.77l0.006-0.041c-1.79,0.59-3.636,0.99-5.509,1.197l0.033,0.029V37.356h-2.966v33.876L108.356,71.233
	L108.356,71.233z"/>
<path fill="#43311E" stroke="#43311E" stroke-width="0.24" stroke-linecap="round" stroke-linejoin="round" stroke-miterlimit="10" d="
	M61.99,53.174l5.272-5.338l-0.003-0.009c-6.378-6.606-15.167-10.338-24.349-10.338h0.033v33.876h2.966V45.2l-0.039-0.097
	c6.126,0.695,11.814,3.522,16.075,7.991L61.99,53.174z"/>
<path fill="#43311E" stroke="#43311E" stroke-width="0.24" stroke-linecap="round" stroke-linejoin="round" stroke-miterlimit="10" d="
	M178.808,68.366c1.512-13.748,13.127-24.154,26.958-24.154l0.033,0.066v-6.789h-0.043c-8.989-0.014-17.615,3.547-23.974,9.901
	c-6.359,6.353-9.93,14.976-9.924,23.965l0.066,0.011h33.875v-2.967h-26.956L178.808,68.366z"/>
<path fill="#43311E" stroke="#43311E" stroke-width="0.24" stroke-linecap="round" stroke-linejoin="round" stroke-miterlimit="10" d="
	M217.266,71.366V45.2l-0.039-0.097c6.126,0.695,11.815,3.522,16.075,7.991l0.045,0.08l5.272-5.338l-0.003-0.009
	c-6.377-6.606-15.166-10.338-24.349-10.338h0.033v33.876H217.266z"/>
<path fill="#43311E" stroke="#43311E" stroke-width="0.24" stroke-linecap="round" stroke-linejoin="round" stroke-miterlimit="10" d="
	M272.429,37.456c0,18.727-15.182,33.91-33.909,33.91l-0.033,0.032c0-18.728,15.181-33.909,33.909-33.909L272.429,37.456z
	 M244.685,67.778c12.171-2.474,21.684-11.986,24.158-24.158l-0.034,0.031c-12.606,1.629-22.529,11.553-24.16,24.159L244.685,67.778z
	"/>
<path fill="#43311E" stroke="#43311E" stroke-width="0.24" stroke-linecap="round" stroke-linejoin="round" stroke-miterlimit="10" d="
	M314.741,71.43h-5.932l-0.065-0.036c-0.002-14.267-10.762-26.237-24.949-27.75l0.037,0.04V71.43h-2.966V37.555h-0.033
	c18.69,0,33.841,15.15,33.843,33.84L314.741,71.43z"/>
<rect x="323.177" y="37.489" fill="#43311E" stroke="#43311E" stroke-width="0.24" stroke-linecap="round" stroke-linejoin="round" stroke-miterlimit="10" width="2.966" height="33.941"/>
<path fill="#43311E" stroke="#43311E" stroke-width="0.24" stroke-linecap="round" stroke-linejoin="round" stroke-miterlimit="10" d="
	M324.66,30.503c-1.365,0-2.472,1.106-2.472,2.472c0,1.365,1.106,2.471,2.472,2.471s2.471-1.106,2.471-2.471
	C327.131,31.609,326.025,30.503,324.66,30.503"/>
<path fill="#43311E" stroke="#43311E" stroke-width="0.24" stroke-linecap="round" stroke-linejoin="round" stroke-miterlimit="10" d="
	M367.202,71.43h-5.933v-0.036c-0.001-14.267-10.762-26.237-24.948-27.75l0.036,0.04V71.43h-2.967V37.555h-0.032
	c18.689,0,33.841,15.15,33.843,33.84L367.202,71.43L367.202,71.43z"/>
<line fill="none" stroke="#000000" stroke-width="0.24" stroke-linecap="round" stroke-linejoin="round" stroke-miterlimit="10" x1="396.332" y1="69.717" x2="396.332" y2="69.717"/>
<path fill="#43311E" stroke="#43311E" stroke-width="0.24" stroke-linecap="round" stroke-linejoin="round" stroke-miterlimit="10" d="
	M430.208,71.43h-33.876l-0.065-0.033c0-17.577,13.433-32.24,30.941-33.778l0.035,0.001V0.12h2.965V71.43z M399.431,68.465h27.812
	V40.652l-0.035-0.055c-14.743,1.42-26.411,13.089-27.833,27.833L399.431,68.465z"/>
<path fill="#43311E" stroke="#43311E" stroke-width="0.24" stroke-linecap="round" stroke-linejoin="round" stroke-miterlimit="10" d="
	M441.742,68.465h30.777v2.965h-33.876l-0.064-0.033c0-18.728,15.182-33.909,33.909-33.909l0.012,0.008
	c-1.558,14.775-14.614,25.611-29.424,24.42l-0.051,0.022c-0.679,2.108-1.126,4.285-1.339,6.49L441.742,68.465z M444.171,59.016
	c11.556,0.52,21.892-7.141,24.755-18.35l-0.014-0.004c-10.946,1.274-20.389,8.272-24.792,18.375L444.171,59.016z"/>
<polyline fill="#43311E" stroke="#43311E" stroke-width="0.24" stroke-linecap="round" stroke-linejoin="round" stroke-miterlimit="10" points="
	516.744,71.43 516.744,37.489 519.71,37.489 519.71,71.43 516.744,71.43 "/>
<path fill="#43311E" stroke="#43311E" stroke-width="0.24" stroke-linecap="round" stroke-linejoin="round" stroke-miterlimit="10" d="
	M603.146,71.43h-2.966l-0.065-0.036c-0.001-15.903-12.084-29.206-27.915-30.731l0.037-0.011V71.43h-2.966V37.555l0,0
	c18.688,0,33.808,15.15,33.81,33.84L603.146,71.43z"/>
<path fill="#43311E" stroke="#43311E" stroke-width="0.24" stroke-linecap="round" stroke-linejoin="round" stroke-miterlimit="10" d="
	M481.023,68.397c11.236,0,20.977-7.605,23.664-18.518h-5.081h-18.583v-1.595l0.014-1.384c0.354-3.355,1.244-6.607,2.783-9.609h1.218
	h0.672h1.516c-1.752,2.94-2.861,6.235-3.265,9.634l3.438-0.011h12.108l8.716-0.058c-1.471,13.934-13.189,24.506-27.198,24.506V70.32
	v-0.959L481.023,68.397L481.023,68.397z"/>
<path fill="#43311E" stroke="#43311E" stroke-width="0.24" stroke-linecap="round" stroke-linejoin="round" stroke-miterlimit="10" d="
	M560.769,71.397c0,18.727-15.181,33.909-33.908,33.909h0.032v-2.966h-0.032c17.09,0,30.942-13.854,30.942-30.943v0.033V51.395
	l-0.001-0.067c-5.465,12.192-17.581,20.038-30.941,20.038l-0.031,0.032c0-18.728,15.181-33.909,33.907-33.909h0.032V71.43V71.397z
	 M557.611,40.613c-14.618,1.483-26.177,13.042-27.66,27.66l0.033-0.032c14.617-1.482,26.177-13.041,27.661-27.66L557.611,40.613z"/>
<path fill="#43311E" stroke="#43311E" stroke-width="0.24" stroke-linecap="round" stroke-linejoin="round" stroke-miterlimit="10" d="
	M518.227,30.503c-1.364,0-2.472,1.106-2.472,2.472c0,1.365,1.106,2.471,2.472,2.471c1.366,0,2.473-1.106,2.473-2.471
	C520.698,31.609,519.592,30.503,518.227,30.503"/>
<g>
	<path fill="#42301F" d="M7.292,105.491c-0.993-0.064-2.193-0.08-3.394-0.08s-2.449,0.016-3.458,0.08
		c0.08-0.769,0.112-2.897,0.112-3.922v-3.537c0-1.024-0.032-3.09-0.112-3.858c0.625,0,1.697-0.016,2.225-0.08
		c-0.048,0.465-0.064,1.745-0.064,2.369v6.323c0,0.239,0,0.656,0.032,0.944c0.432,0.016,0.913,0.016,1.377,0.016
		c1.264,0,2.353-0.016,3.409-0.032C7.355,104.274,7.307,104.85,7.292,105.491z"/>
	<path fill="#42301F" d="M14.713,97.231c0.608-1.345,1.009-2.257,1.361-3.169l1.024-0.128l3.746,8.227
		c0.464,1.009,1.056,2.306,1.552,3.266l-2.225,0.128l-1.297-2.993h-4.53l-0.016,0.048c-0.32,0.784-0.816,2.049-1.137,2.817h-2.177
		L14.713,97.231z M14.954,101.073h3.297l-1.648-3.906L14.954,101.073z"/>
	<path fill="#42301F" d="M27.224,101.569l0.048-3.777c0.016-1.024,0-2.962-0.064-3.729l0.96-0.128l6.754,7.955v-3.857
		c0-1.024-0.032-3.09-0.128-3.858c0.624,0,1.665-0.016,2.209-0.08c-0.064,0.465-0.112,1.745-0.128,2.369l-0.064,6.739
		c-0.016,0.608-0.032,1.904,0.032,2.353l-0.96,0.128l-6.723-7.859v5.299c0,0.624,0.016,1.856,0.064,2.305h-2.177
		C27.145,104.658,27.208,102.609,27.224,101.569z"/>
	<path fill="#42301F" d="M46.666,105.426h-3.634c0.08-0.769,0.112-2.817,0.112-3.857v-3.537c0-1.024-0.032-3.09-0.112-3.858
		c0.576,0,1.729-0.08,3.313-0.08c4.065,0,6.227,2.337,6.227,5.395C52.572,103.009,50.219,105.426,46.666,105.426z M46.426,95.758
		c-0.448,0-0.833,0.016-1.216,0.048c-0.016,0.272-0.016,0.688-0.016,0.929v6.114c0,0.256,0,0.544,0.016,0.832
		c0.416,0.049,0.736,0.08,1.264,0.08c2.897,0,4.05-1.856,4.05-4.098C50.523,97.295,49.067,95.758,46.426,95.758z"/>
	<path fill="#42301F" d="M60.649,105.714c-1.121,0-2.481-0.416-3.33-0.944l0.096-2.001c0.672,0.576,2.049,1.217,3.313,1.217
		c1.072,0,1.792-0.544,1.792-1.568c0-1.969-4.818-2.178-4.818-5.187c0-1.953,1.521-3.329,3.666-3.329
		c1.121,0,2.161,0.368,2.817,0.832l-0.512,1.681c-0.608-0.432-1.537-0.784-2.289-0.784c-1.009,0-1.681,0.576-1.681,1.425
		c0,1.856,4.802,1.969,4.802,5.17C64.507,104.257,63.002,105.714,60.649,105.714z"/>
	<path fill="#42301F" d="M78.587,104.53c-1.073,0.769-2.289,1.185-3.649,1.185c-3.361,0-5.699-2.577-5.699-5.618
		c0-3.489,2.513-6.194,6.002-6.194c1.233,0,2.513,0.384,3.362,0.977l-0.464,1.792c-0.752-0.608-1.809-1.024-2.897-1.024
		c-2.305,0-3.921,1.761-3.921,4.114c0,2.705,1.681,4.193,3.826,4.193c1.473,0,2.545-0.592,3.537-1.505L78.587,104.53z"/>
	<path fill="#42301F" d="M86.344,97.231c0.608-1.345,1.009-2.257,1.361-3.169l1.024-0.128l3.746,8.227
		c0.464,1.009,1.056,2.306,1.552,3.266l-2.225,0.128l-1.297-2.993h-4.53l-0.016,0.048c-0.32,0.784-0.816,2.049-1.137,2.817h-2.177
		L86.344,97.231z M86.584,101.073h3.297l-1.648-3.906L86.584,101.073z"/>
	<path fill="#42301F" d="M100.953,103.122c0,0.608,0.016,1.856,0.048,2.305h-2.225c0.08-0.769,0.112-2.817,0.112-3.857v-3.537
		c0-1.024-0.032-3.09-0.112-3.858c0.576,0,2.305-0.08,3.345-0.08c2.897,0,4.37,1.537,4.37,3.441c0,2.193-1.424,3.954-4.802,3.954
		c-0.24,0-0.497-0.016-0.736-0.016V103.122z M102.009,95.774c-0.4,0-0.64,0-1.072,0.032v4.065c0.256,0.032,0.528,0.049,0.784,0.049
		c1.713,0,2.737-0.769,2.737-2.113C104.458,96.495,103.689,95.774,102.009,95.774z"/>
	<path fill="#42301F" d="M118.41,105.491c-0.992-0.064-2.209-0.08-3.377-0.08c-1.216,0-2.513,0.016-3.521,0.08
		c0.08-0.769,0.112-2.882,0.112-3.922v-3.537c0-1.024-0.032-3.186-0.112-3.954c1.009,0.048,2.145,0.08,3.377,0.08
		c1.185,0,2.305-0.032,3.313-0.08c-0.08,0.561-0.112,1.089-0.128,1.729c-0.913-0.016-1.841-0.032-2.929-0.032
		c-0.48,0-1.009,0-1.473,0.017c-0.016,0.271-0.016,0.688-0.016,0.896v2.08l3.793-0.031c-0.032,0.464-0.048,1.057-0.048,1.633
		l-3.746-0.032v2.528c0,0.225,0,0.641,0.016,0.913c0.48,0,0.992,0.016,1.473,0.016c1.249,0,2.321-0.016,3.377-0.048
		C118.458,104.29,118.426,104.85,118.41,105.491z"/>
	<path fill="#42301F" d="M146.216,105.714c-1.121,0-2.481-0.416-3.33-0.944l0.096-2.001c0.672,0.576,2.049,1.217,3.313,1.217
		c1.072,0,1.792-0.544,1.792-1.568c0-1.969-4.818-2.178-4.818-5.187c0-1.953,1.521-3.329,3.666-3.329
		c1.12,0,2.161,0.368,2.817,0.832l-0.512,1.681c-0.608-0.432-1.537-0.784-2.289-0.784c-1.009,0-1.681,0.576-1.681,1.425
		c0,1.856,4.802,1.969,4.802,5.17C150.074,104.257,148.569,105.714,146.216,105.714z"/>
	<path fill="#42301F" d="M155.527,105.426c0.08-0.769,0.112-2.817,0.112-3.857v-3.537c0-1.024-0.032-3.09-0.112-3.858
		c0.64,0,1.696-0.016,2.225-0.08c-0.048,0.465-0.064,1.745-0.064,2.369v6.659c0,0.608,0.016,1.856,0.064,2.305H155.527z"/>
	<path fill="#42301F" d="M172.378,95.886c-1.184-0.016-2.225-0.032-3.617-0.032c-0.016,0.337-0.016,0.753-0.016,1.024v6.243
		c0,0.608,0.016,1.856,0.064,2.305h-2.225c0.08-0.769,0.112-2.817,0.112-3.857v-3.153c0-0.656,0-1.697-0.032-2.562
		c-1.393,0-2.497,0.017-3.682,0.032c0.048-0.528,0.064-1.2,0.064-1.809c1.473,0.048,2.913,0.08,4.674,0.08
		c1.793,0,3.281-0.032,4.786-0.08C172.426,94.654,172.394,95.198,172.378,95.886z"/>
	<path fill="#42301F" d="M184.537,105.491c-0.992-0.064-2.209-0.08-3.377-0.08c-1.216,0-2.513,0.016-3.521,0.08
		c0.08-0.769,0.112-2.882,0.112-3.922v-3.537c0-1.024-0.032-3.186-0.112-3.954c1.009,0.048,2.145,0.08,3.377,0.08
		c1.185,0,2.305-0.032,3.313-0.08c-0.08,0.561-0.112,1.089-0.128,1.729c-0.913-0.016-1.841-0.032-2.929-0.032
		c-0.48,0-1.009,0-1.473,0.017c-0.016,0.271-0.016,0.688-0.016,0.896v2.08l3.793-0.031c-0.032,0.464-0.048,1.057-0.048,1.633
		l-3.746-0.032v2.528c0,0.225,0,0.641,0.016,0.913c0.48,0,0.992,0.016,1.473,0.016c1.249,0,2.321-0.016,3.377-0.048
		C184.585,104.29,184.553,104.85,184.537,105.491z"/>
	<path fill="#42301F" d="M214.92,105.699c-3.409,0-5.858-2.497-5.858-5.715c0-3.425,2.625-6.082,6.163-6.082
		c1.361,0,2.817,0.479,3.666,1.04l-0.544,1.745c-0.752-0.593-2.065-1.009-3.217-1.009c-2.449,0-4.018,1.745-4.018,4.146
		c0,2.657,1.841,4.146,4.002,4.146c0.8,0,1.424-0.128,2.033-0.416v-1.696c0-0.225,0-0.673-0.032-0.944
		c-0.496-0.017-0.352-0.017-0.864-0.017c-0.704,0-1.168,0.017-1.953,0.049c0.032-0.656,0.048-1.217,0.016-1.681
		c0.976,0.031,1.457,0.048,2.177,0.048c1.168,0,1.648-0.017,2.657-0.064c-0.08,0.624-0.112,2.865-0.112,3.89v1.393
		C218.105,105.123,216.905,105.699,214.92,105.699z"/>
	<path fill="#42301F" d="M231.176,105.554l-2.689-4.321h-1.537v1.889c0,0.608,0.016,1.856,0.048,2.305h-2.208
		c0.08-0.769,0.112-2.817,0.112-3.857v-3.537c0-1.024-0.032-3.09-0.112-3.858c0.576,0,2.465-0.063,3.201-0.08
		c2.993-0.031,4.626,1.473,4.578,3.33c-0.032,1.568-0.816,2.593-2.289,3.297l1.729,2.513c0.4,0.577,1.168,1.633,1.521,2.098
		L231.176,105.554z M228.391,99.68c1.345,0,2.145-0.881,2.145-1.969c0-1.232-0.72-1.953-2.353-1.953
		c-0.448,0-0.864,0.016-1.249,0.048v3.874H228.391z"/>
	<path fill="#42301F" d="M240.791,97.231c0.608-1.345,1.009-2.257,1.361-3.169l1.024-0.128l3.746,8.227
		c0.464,1.009,1.056,2.306,1.552,3.266l-2.225,0.128l-1.297-2.993h-4.53l-0.016,0.048c-0.32,0.784-0.816,2.049-1.137,2.817h-2.177
		L240.791,97.231z M241.031,101.073h3.297l-1.648-3.906L241.031,101.073z"/>
	<path fill="#42301F" d="M256.871,105.426h-3.634c0.08-0.769,0.112-2.817,0.112-3.857v-3.537c0-1.024-0.032-3.09-0.112-3.858
		c0.576,0,1.729-0.08,3.313-0.08c4.065,0,6.227,2.337,6.227,5.395C262.777,103.009,260.424,105.426,256.871,105.426z
		 M256.631,95.758c-0.448,0-0.833,0.016-1.216,0.048c-0.016,0.272-0.016,0.688-0.016,0.929v6.114c0,0.256,0,0.544,0.016,0.832
		c0.416,0.049,0.736,0.08,1.264,0.08c2.897,0,4.05-1.856,4.05-4.098C260.729,97.295,259.272,95.758,256.631,95.758z"/>
	<path fill="#42301F" d="M275.144,105.491c-0.992-0.064-2.209-0.08-3.377-0.08c-1.216,0-2.513,0.016-3.521,0.08
		c0.08-0.769,0.112-2.882,0.112-3.922v-3.537c0-1.024-0.032-3.186-0.112-3.954c1.009,0.048,2.145,0.08,3.377,0.08
		c1.185,0,2.305-0.032,3.313-0.08c-0.08,0.561-0.112,1.089-0.128,1.729c-0.913-0.016-1.841-0.032-2.929-0.032
		c-0.48,0-1.009,0-1.473,0.017c-0.016,0.271-0.016,0.688-0.016,0.896v2.08l3.793-0.031c-0.032,0.464-0.048,1.057-0.048,1.633
		l-3.746-0.032v2.528c0,0.225,0,0.641,0.016,0.913c0.48,0,0.992,0.016,1.473,0.016c1.249,0,2.321-0.016,3.377-0.048
		C275.192,104.29,275.16,104.85,275.144,105.491z"/>
	<path fill="#42301F" d="M302.502,103.122c0,0.608,0.016,1.856,0.048,2.305h-2.225c0.08-0.769,0.112-2.817,0.112-3.857v-3.537
		c0-1.024-0.032-3.09-0.112-3.858c0.576,0,2.305-0.08,3.345-0.08c2.897,0,4.37,1.537,4.37,3.441c0,2.193-1.425,3.954-4.802,3.954
		c-0.24,0-0.496-0.016-0.736-0.016V103.122z M303.559,95.774c-0.4,0-0.641,0-1.072,0.032v4.065c0.256,0.032,0.527,0.049,0.784,0.049
		c1.712,0,2.736-0.769,2.736-2.113C306.007,96.495,305.239,95.774,303.559,95.774z"/>
	<path fill="#42301F" d="M319.911,105.491c-0.992-0.064-2.192-0.08-3.393-0.08c-1.201,0-2.449,0.016-3.458,0.08
		c0.08-0.769,0.112-2.897,0.112-3.922v-3.537c0-1.024-0.032-3.09-0.112-3.858c0.624,0,1.697-0.016,2.225-0.08
		c-0.048,0.465-0.063,1.745-0.063,2.369v6.323c0,0.239,0,0.656,0.032,0.944c0.432,0.016,0.912,0.016,1.376,0.016
		c1.265,0,2.354-0.016,3.409-0.032C319.976,104.274,319.928,104.85,319.911,105.491z"/>
	<path fill="#42301F" d="M327.334,97.231c0.608-1.345,1.009-2.257,1.36-3.169l1.024-0.128l3.746,8.227
		c0.464,1.009,1.057,2.306,1.553,3.266l-2.226,0.128l-1.296-2.993h-4.53l-0.016,0.048c-0.32,0.784-0.816,2.049-1.137,2.817h-2.177
		L327.334,97.231z M327.574,101.073h3.298l-1.649-3.906L327.574,101.073z"/>
	<path fill="#42301F" d="M339.845,101.569l0.048-3.777c0.016-1.024,0-2.962-0.064-3.729l0.961-0.128l6.755,7.955v-3.857
		c0-1.024-0.032-3.09-0.129-3.858c0.625,0,1.665-0.016,2.209-0.08c-0.063,0.465-0.111,1.745-0.128,2.369l-0.063,6.739
		c-0.017,0.608-0.032,1.904,0.031,2.353l-0.96,0.128l-6.723-7.859v5.299c0,0.624,0.016,1.856,0.064,2.305h-2.178
		C339.765,104.658,339.828,102.609,339.845,101.569z"/>
	<path fill="#42301F" d="M364.056,95.886c-1.185-0.016-2.225-0.032-3.617-0.032c-0.016,0.337-0.016,0.753-0.016,1.024v6.243
		c0,0.608,0.016,1.856,0.063,2.305h-2.225c0.08-0.769,0.112-2.817,0.112-3.857v-3.153c0-0.656,0-1.697-0.032-2.562
		c-1.393,0-2.497,0.017-3.682,0.032c0.048-0.528,0.064-1.2,0.064-1.809c1.472,0.048,2.913,0.08,4.674,0.08
		c1.792,0,3.281-0.032,4.785-0.08C364.104,94.654,364.072,95.198,364.056,95.886z"/>
	<path fill="#42301F" d="M391.845,105.714c-1.121,0-2.481-0.416-3.329-0.944l0.096-2.001c0.672,0.576,2.049,1.217,3.313,1.217
		c1.072,0,1.793-0.544,1.793-1.568c0-1.969-4.818-2.178-4.818-5.187c0-1.953,1.521-3.329,3.665-3.329
		c1.121,0,2.161,0.368,2.817,0.832l-0.512,1.681c-0.608-0.432-1.537-0.784-2.289-0.784c-1.009,0-1.681,0.576-1.681,1.425
		c0,1.856,4.802,1.969,4.802,5.17C395.702,104.257,394.197,105.714,391.845,105.714z"/>
	<path fill="#42301F" d="M409.351,95.886c-1.185-0.016-2.225-0.032-3.617-0.032c-0.016,0.337-0.016,0.753-0.016,1.024v6.243
		c0,0.608,0.016,1.856,0.063,2.305h-2.225c0.08-0.769,0.112-2.817,0.112-3.857v-3.153c0-0.656,0-1.697-0.032-2.562
		c-1.393,0-2.497,0.017-3.682,0.032c0.048-0.528,0.064-1.2,0.064-1.809c1.472,0.048,2.913,0.08,4.674,0.08
		c1.792,0,3.281-0.032,4.785-0.08C409.398,94.654,409.367,95.198,409.351,95.886z"/>
	<path fill="#42301F" d="M420.982,105.554l-2.689-4.321h-1.537v1.889c0,0.608,0.017,1.856,0.049,2.305h-2.209
		c0.08-0.769,0.111-2.817,0.111-3.857v-3.537c0-1.024-0.031-3.09-0.111-3.858c0.576,0,2.465-0.063,3.201-0.08
		c2.993-0.031,4.626,1.473,4.578,3.33c-0.032,1.568-0.816,2.593-2.289,3.297l1.729,2.513c0.4,0.577,1.168,1.633,1.521,2.098
		L420.982,105.554z M418.197,99.68c1.344,0,2.145-0.881,2.145-1.969c0-1.232-0.721-1.953-2.353-1.953
		c-0.448,0-0.865,0.016-1.249,0.048v3.874H418.197z"/>
	<path fill="#42301F" d="M437.511,96.462v4.21c0,1.841-0.432,2.881-1.296,3.714c-0.864,0.864-2.049,1.328-3.634,1.328
		c-2.657,0-4.514-1.568-4.514-4.226v-3.457c0-1.024-0.032-3.09-0.112-3.858c0.641,0,1.697-0.016,2.226-0.08
		c-0.049,0.465-0.064,1.745-0.064,2.369v4.498c0,2.193,1.057,3.009,2.737,3.009c1.664,0,2.608-1.008,2.608-2.705v-3.232
		c0-1.024-0.031-3.09-0.128-3.858c0.641,0,1.713-0.016,2.257-0.08C437.527,94.558,437.511,95.838,437.511,96.462z"/>
	<path fill="#42301F" d="M452.263,104.53c-1.072,0.769-2.289,1.185-3.649,1.185c-3.361,0-5.698-2.577-5.698-5.618
		c0-3.489,2.513-6.194,6.002-6.194c1.232,0,2.514,0.384,3.361,0.977l-0.464,1.792c-0.752-0.608-1.809-1.024-2.897-1.024
		c-2.305,0-3.921,1.761-3.921,4.114c0,2.705,1.681,4.193,3.825,4.193c1.473,0,2.545-0.592,3.537-1.505L452.263,104.53z"/>
	<path fill="#42301F" d="M466.087,95.886c-1.185-0.016-2.225-0.032-3.617-0.032c-0.016,0.337-0.016,0.753-0.016,1.024v6.243
		c0,0.608,0.016,1.856,0.063,2.305h-2.225c0.08-0.769,0.112-2.817,0.112-3.857v-3.153c0-0.656,0-1.697-0.032-2.562
		c-1.393,0-2.497,0.017-3.682,0.032c0.048-0.528,0.064-1.2,0.064-1.809c1.472,0.048,2.913,0.08,4.674,0.08
		c1.792,0,3.281-0.032,4.785-0.08C466.135,94.654,466.104,95.198,466.087,95.886z"/>
	<path fill="#42301F" d="M480.742,96.462v4.21c0,1.841-0.432,2.881-1.296,3.714c-0.864,0.864-2.049,1.328-3.634,1.328
		c-2.657,0-4.514-1.568-4.514-4.226v-3.457c0-1.024-0.032-3.09-0.112-3.858c0.641,0,1.697-0.016,2.226-0.08
		c-0.049,0.465-0.064,1.745-0.064,2.369v4.498c0,2.193,1.057,3.009,2.737,3.009c1.664,0,2.608-1.008,2.608-2.705v-3.232
		c0-1.024-0.031-3.09-0.128-3.858c0.641,0,1.713-0.016,2.257-0.08C480.759,94.558,480.742,95.838,480.742,96.462z"/>
	<path fill="#42301F" d="M493.19,105.554l-2.689-4.321h-1.536v1.889c0,0.608,0.016,1.856,0.048,2.305h-2.209
		c0.08-0.769,0.112-2.817,0.112-3.857v-3.537c0-1.024-0.032-3.09-0.112-3.858c0.576,0,2.465-0.063,3.201-0.08
		c2.993-0.031,4.626,1.473,4.578,3.33c-0.032,1.568-0.816,2.593-2.289,3.297l1.729,2.513c0.4,0.577,1.168,1.633,1.521,2.098
		L493.19,105.554z M490.405,99.68c1.344,0,2.145-0.881,2.145-1.969c0-1.232-0.721-1.953-2.353-1.953
		c-0.448,0-0.865,0.016-1.249,0.048v3.874H490.405z"/>
	<path fill="#42301F" d="M507.398,105.491c-0.993-0.064-2.209-0.08-3.378-0.08c-1.217,0-2.513,0.016-3.521,0.08
		c0.08-0.769,0.112-2.882,0.112-3.922v-3.537c0-1.024-0.032-3.186-0.112-3.954c1.009,0.048,2.146,0.08,3.378,0.08
		c1.184,0,2.305-0.032,3.312-0.08c-0.08,0.561-0.111,1.089-0.128,1.729c-0.912-0.016-1.841-0.032-2.929-0.032
		c-0.48,0-1.009,0-1.473,0.017c-0.016,0.271-0.016,0.688-0.016,0.896v2.08l3.793-0.031c-0.032,0.464-0.048,1.057-0.048,1.633
		l-3.745-0.032v2.528c0,0.225,0,0.641,0.016,0.913c0.48,0,0.992,0.016,1.473,0.016c1.248,0,2.32-0.016,3.377-0.048
		C507.446,104.29,507.414,104.85,507.398,105.491z"/>
</g>
</svg>
