<?xml version="1.0" encoding="utf-8"?>
<!-- Generator: Adobe Illustrator 16.0.0, SVG Export Plug-In . SVG Version: 6.00 Build 0)  -->
<!DOCTYPE svg PUBLIC "-//W3C//DTD SVG 1.1//EN" "http://www.w3.org/Graphics/SVG/1.1/DTD/svg11.dtd">
<svg version="1.1" id="Layer_1" xmlns="http://www.w3.org/2000/svg" xmlns:xlink="http://www.w3.org/1999/xlink" x="0px" y="0px"
	 width="603.268px" height="105.426px" viewBox="0 0 603.268 105.426" enable-background="new 0 0 603.268 105.426"
	 xml:space="preserve">
<path fill="#43311E" stroke="#43311E" stroke-miterlimit="10" d="M0.5,71.333c0-17.578,13.431-32.241,30.941-33.78l0.035,0.068
	v-17.07h2.965v50.813H0.566L0.5,71.333z M7.486,68.399h23.99v-23.99l-0.034-0.035C18.813,45.763,8.841,55.735,7.451,68.366
	L7.486,68.399z"/>
<path fill="#43311E" stroke="#43311E" stroke-width="0.24" stroke-linecap="round" stroke-linejoin="round" stroke-miterlimit="10" d="
	M69.108,68.267h30.778v2.966H66.011L65.945,71.2c0-18.727,15.181-33.909,33.909-33.909l0.013,0.008
	c-1.56,14.775-14.616,25.612-29.426,24.422l-0.05,0.021c-0.677,2.108-1.126,4.284-1.338,6.489L69.108,68.267z M73.519,55.066
	c8.41-0.362,15.753-5.823,18.545-13.79l-0.008-0.021c-7.743,2.016-14.404,6.953-18.585,13.775L73.519,55.066z"/>
<path fill="#43311E" stroke="#43311E" stroke-width="0.24" stroke-linecap="round" stroke-linejoin="round" stroke-miterlimit="10" d="
	M108.356,71.233c18.727,0,33.909-15.182,33.909-33.909v0.032h-6.789v-0.032c0,10.547-6.115,20.137-15.678,24.588l-0.008,0.027
	V37.356h-2.966v25.77l0.006-0.041c-1.79,0.59-3.636,0.99-5.509,1.197l0.033,0.029V37.356h-2.966v33.876L108.356,71.233
	L108.356,71.233z"/>
<path fill="#43311E" stroke="#43311E" stroke-width="0.24" stroke-linecap="round" stroke-linejoin="round" stroke-miterlimit="10" d="
	M61.99,53.174l5.272-5.338l-0.003-0.009c-6.378-6.606-15.167-10.338-24.349-10.338h0.033v33.876h2.966V45.2l-0.039-0.097
	c6.126,0.695,11.814,3.522,16.075,7.991L61.99,53.174z"/>
<path fill="#43311E" stroke="#43311E" stroke-width="0.24" stroke-linecap="round" stroke-linejoin="round" stroke-miterlimit="10" d="
	M178.808,68.366c1.512-13.748,13.127-24.154,26.958-24.154l0.033,0.066v-6.789h-0.043c-8.989-0.014-17.615,3.547-23.974,9.901
	c-6.359,6.353-9.93,14.976-9.924,23.965l0.066,0.011h33.875v-2.967h-26.956L178.808,68.366z"/>
<path fill="#43311E" stroke="#43311E" stroke-width="0.24" stroke-linecap="round" stroke-linejoin="round" stroke-miterlimit="10" d="
	M217.266,71.366V45.2l-0.039-0.097c6.126,0.695,11.815,3.522,16.075,7.991l0.045,0.08l5.272-5.338l-0.003-0.009
	c-6.377-6.606-15.166-10.338-24.349-10.338h0.033v33.876H217.266z"/>
<path fill="#43311E" stroke="#43311E" stroke-width="0.24" stroke-linecap="round" stroke-linejoin="round" stroke-miterlimit="10" d="
	M272.429,37.456c0,18.727-15.182,33.91-33.909,33.91l-0.033,0.032c0-18.728,15.181-33.909,33.909-33.909L272.429,37.456z
	 M244.685,67.778c12.171-2.474,21.684-11.986,24.158-24.158l-0.034,0.031c-12.606,1.629-22.529,11.553-24.16,24.159L244.685,67.778z
	"/>
<path fill="#43311E" stroke="#43311E" stroke-width="0.24" stroke-linecap="round" stroke-linejoin="round" stroke-miterlimit="10" d="
	M314.741,71.43h-5.932l-0.065-0.036c-0.002-14.267-10.762-26.237-24.949-27.75l0.037,0.04V71.43h-2.966V37.555h-0.033
	c18.69,0,33.841,15.15,33.843,33.84L314.741,71.43z"/>
<rect x="323.177" y="37.489" fill="#43311E" stroke="#43311E" stroke-width="0.24" stroke-linecap="round" stroke-linejoin="round" stroke-miterlimit="10" width="2.966" height="33.941"/>
<path fill="#43311E" stroke="#43311E" stroke-width="0.24" stroke-linecap="round" stroke-linejoin="round" stroke-miterlimit="10" d="
	M324.66,30.503c-1.365,0-2.472,1.106-2.472,2.472c0,1.365,1.106,2.471,2.472,2.471s2.471-1.106,2.471-2.471
	C327.131,31.609,326.025,30.503,324.66,30.503"/>
<path fill="#43311E" stroke="#43311E" stroke-width="0.24" stroke-linecap="round" stroke-linejoin="round" stroke-miterlimit="10" d="
	M367.202,71.43h-5.933v-0.036c-0.001-14.267-10.762-26.237-24.948-27.75l0.036,0.04V71.43h-2.967V37.555h-0.032
	c18.689,0,33.841,15.15,33.843,33.84L367.202,71.43L367.202,71.43z"/>
<line fill="none" stroke="#000000" stroke-width="0.24" stroke-linecap="round" stroke-linejoin="round" stroke-miterlimit="10" x1="396.332" y1="69.717" x2="396.332" y2="69.717"/>
<path fill="#43311E" stroke="#43311E" stroke-width="0.24" stroke-linecap="round" stroke-linejoin="round" stroke-miterlimit="10" d="
	M430.208,71.43h-33.876l-0.065-0.033c0-17.577,13.433-32.24,30.941-33.778l0.035,0.001V0.12h2.965V71.43z M399.431,68.465h27.812
	V40.652l-0.035-0.055c-14.743,1.42-26.411,13.089-27.833,27.833L399.431,68.465z"/>
<path fill="#43311E" stroke="#43311E" stroke-width="0.24" stroke-linecap="round" stroke-linejoin="round" stroke-miterlimit="10" d="
	M441.742,68.465h30.777v2.965h-33.876l-0.064-0.033c0-18.728,15.182-33.909,33.909-33.909l0.012,0.008
	c-1.558,14.775-14.614,25.611-29.424,24.42l-0.051,0.022c-0.679,2.108-1.126,4.285-1.339,6.49L441.742,68.465z M444.171,59.016
	c11.556,0.52,21.892-7.141,24.755-18.35l-0.014-0.004c-10.946,1.274-20.389,8.272-24.792,18.375L444.171,59.016z"/>
<polyline fill="#43311E" stroke="#43311E" stroke-width="0.24" stroke-linecap="round" stroke-linejoin="round" stroke-miterlimit="10" points="
	516.744,71.43 516.744,37.489 519.71,37.489 519.71,71.43 516.744,71.43 "/>
<path fill="#43311E" stroke="#43311E" stroke-width="0.24" stroke-linecap="round" stroke-linejoin="round" stroke-miterlimit="10" d="
	M603.146,71.43h-2.966l-0.065-0.036c-0.001-15.903-12.084-29.206-27.915-30.731l0.037-0.011V71.43h-2.966V37.555l0,0
	c18.688,0,33.808,15.15,33.81,33.84L603.146,71.43z"/>
<path fill="#43311E" stroke="#43311E" stroke-width="0.24" stroke-linecap="round" stroke-linejoin="round" stroke-miterlimit="10" d="
	M481.023,68.397c11.236,0,20.977-7.605,23.664-18.518h-5.081h-18.583v-1.595l0.014-1.384c0.354-3.355,1.244-6.607,2.783-9.609h1.218
	h0.672h1.516c-1.752,2.94-2.861,6.235-3.265,9.634l3.438-0.011h12.108l8.716-0.058c-1.471,13.934-13.189,24.506-27.198,24.506V70.32
	v-0.959L481.023,68.397L481.023,68.397z"/>
<path fill="#43311E" stroke="#43311E" stroke-width="0.24" stroke-linecap="round" stroke-linejoin="round" stroke-miterlimit="10" d="
	M560.769,71.397c0,18.727-15.181,33.909-33.908,33.909h0.032v-2.966h-0.032c17.09,0,30.942-13.854,30.942-30.943v0.033V51.395
	l-0.001-0.067c-5.465,12.192-17.581,20.038-30.941,20.038l-0.031,0.032c0-18.728,15.181-33.909,33.907-33.909h0.032V71.43V71.397z
	 M557.611,40.613c-14.618,1.483-26.177,13.042-27.66,27.66l0.033-0.032c14.617-1.482,26.177-13.041,27.661-27.66L557.611,40.613z"/>
<path fill="#43311E" stroke="#43311E" stroke-width="0.24" stroke-linecap="round" stroke-linejoin="round" stroke-miterlimit="10" d="
	M518.227,30.503c-1.364,0-2.472,1.106-2.472,2.472c0,1.365,1.106,2.471,2.472,2.471c1.366,0,2.473-1.106,2.473-2.471
	C520.698,31.609,519.592,30.503,518.227,30.503"/>
<g>
	<path fill="#42301F" d="M7.131,104.491c-0.96-0.064-2.145-0.08-3.281-0.08c-1.137,0-2.321,0.016-3.266,0.08
		c0.08-0.769,0.112-2.882,0.112-3.922v-3.537c0-1.024-0.032-3.09-0.112-3.858c0.625,0,1.217-0.016,1.729-0.08
		c-0.032,0.465-0.048,1.745-0.048,2.369v6.627c0,0.256,0,0.672,0.032,0.992c0.448,0,0.96,0.017,1.44,0.017
		c1.297,0,2.417-0.017,3.505-0.049C7.179,103.498,7.147,103.978,7.131,104.491z"/>
	<path fill="#42301F" d="M14.762,96.231c0.624-1.345,1.041-2.289,1.393-3.218l0.416-0.111l3.842,8.259
		c0.464,1.009,1.072,2.306,1.568,3.266l-1.729,0.128l-1.505-3.346h-4.738l-0.064,0.16c-0.416,0.977-0.864,2.098-1.249,3.058h-1.729
		L14.762,96.231z M14.585,99.928h3.585l-1.792-4.033L14.585,99.928z"/>
	<path fill="#42301F" d="M27.081,100.569l0.064-3.842c0.016-1.024,0-2.945-0.064-3.714l0.416-0.111l7.395,8.563v-4.434
		c0-1.024-0.032-3.09-0.128-3.858c0.624,0,1.232-0.016,1.776-0.08c-0.064,0.465-0.112,1.745-0.128,2.369l-0.112,6.755
		c-0.016,0.624-0.016,1.921,0.032,2.369l-0.416,0.112l-7.331-8.436v5.858c0,0.624,0.016,1.856,0.064,2.305h-1.761
		C26.984,103.658,27.064,101.609,27.081,100.569z"/>
	<path fill="#42301F" d="M46.346,104.426h-3.394c0.08-0.769,0.112-2.817,0.112-3.857v-3.537c0-1.024-0.032-3.09-0.112-3.858
		c0.576,0,1.601-0.08,3.122-0.08c3.985,0,6.083,2.466,6.083,5.362C52.156,101.945,49.819,104.426,46.346,104.426z M46.042,94.455
		c-0.512,0-0.96,0.016-1.393,0.048c-0.016,0.288-0.016,0.736-0.016,0.992v6.595c0,0.272,0,0.576,0.016,0.896
		c0.48,0.048,0.849,0.08,1.44,0.08c3.217,0,4.45-2.033,4.45-4.402C50.54,96.135,48.955,94.455,46.042,94.455z"/>
	<path fill="#42301F" d="M60.313,104.714c-1.04,0-2.321-0.4-3.153-0.944l0.096-1.665c0.64,0.576,1.953,1.201,3.153,1.201
		c1.216,0,2.065-0.625,2.065-1.825c0-2.209-4.866-2.385-4.866-5.33c0-1.809,1.457-3.249,3.538-3.249
		c1.057,0,1.985,0.368,2.609,0.832l-0.512,1.377c-0.544-0.448-1.44-0.801-2.161-0.801c-1.137,0-1.905,0.656-1.905,1.648
		c0,2.049,4.866,2.113,4.866,5.314C64.042,103.194,62.634,104.714,60.313,104.714z"/>
	<path fill="#42301F" d="M78.332,103.434c-1.073,0.832-2.305,1.28-3.666,1.28c-3.282,0-5.603-2.609-5.603-5.618
		c0-3.457,2.497-6.194,5.906-6.194c1.201,0,2.481,0.4,3.33,1.008l-0.448,1.441c-0.8-0.625-1.889-1.024-2.977-1.024
		c-2.449,0-4.194,1.92-4.194,4.434c0,2.929,1.809,4.546,4.082,4.546c1.505,0,2.609-0.608,3.682-1.617L78.332,103.434z"/>
	<path fill="#42301F" d="M86.313,96.231c0.624-1.345,1.041-2.289,1.393-3.218l0.416-0.111l3.842,8.259
		c0.464,1.009,1.072,2.306,1.568,3.266l-1.729,0.128l-1.505-3.346h-4.738l-0.064,0.16c-0.416,0.977-0.864,2.098-1.249,3.058H82.52
		L86.313,96.231z M86.137,99.928h3.585l-1.792-4.033L86.137,99.928z"/>
	<path fill="#42301F" d="M100.249,102.122c0,0.608,0.016,1.856,0.048,2.305h-1.729c0.08-0.769,0.112-2.817,0.112-3.857v-3.537
		c0-1.024-0.032-3.09-0.112-3.858c0.576,0,2.017-0.08,3.137-0.08c2.721,0,4.098,1.553,4.098,3.313c0,2.097-1.361,3.826-4.674,3.826
		c-0.272,0-0.592-0.017-0.88-0.032V102.122z M101.449,94.455c-0.448,0-0.736,0.016-1.2,0.048v4.401
		c0.288,0.032,0.608,0.048,0.896,0.048c1.905,0,3.042-0.848,3.042-2.305C104.186,95.254,103.337,94.455,101.449,94.455z"/>
	<path fill="#42301F" d="M117.658,104.491c-0.96-0.064-2.145-0.08-3.281-0.08c-1.137,0-2.337,0.016-3.266,0.08
		c0.08-0.769,0.112-2.882,0.112-3.922v-3.537c0-1.024-0.032-3.186-0.112-3.954c0.929,0.048,2.017,0.08,3.153,0.08
		c1.137,0,2.225-0.032,3.186-0.08c-0.08,0.464-0.112,0.881-0.128,1.393c-0.944-0.016-1.92-0.032-3.057-0.032
		c-0.48,0-0.992,0-1.457,0.017c-0.016,0.304-0.016,0.736-0.016,0.976v2.417l3.906-0.031c-0.032,0.384-0.048,0.912-0.048,1.376
		l-3.858-0.032v2.962c0,0.24,0,0.688,0.016,0.992c0.48,0,0.977,0.016,1.457,0.016c1.297,0,2.417-0.016,3.505-0.048
		C117.706,103.53,117.674,103.978,117.658,104.491z"/>
	<path fill="#42301F" d="M145.928,104.714c-1.04,0-2.321-0.4-3.153-0.944l0.096-1.665c0.64,0.576,1.953,1.201,3.153,1.201
		c1.216,0,2.065-0.625,2.065-1.825c0-2.209-4.866-2.385-4.866-5.33c0-1.809,1.457-3.249,3.538-3.249
		c1.057,0,1.985,0.368,2.609,0.832l-0.512,1.377c-0.544-0.448-1.44-0.801-2.161-0.801c-1.137,0-1.905,0.656-1.905,1.648
		c0,2.049,4.866,2.113,4.866,5.314C149.658,103.194,148.25,104.714,145.928,104.714z"/>
	<path fill="#42301F" d="M155.463,104.426c0.08-0.769,0.112-2.817,0.112-3.857v-3.537c0-1.024-0.032-3.09-0.112-3.858
		c0.625,0,1.217-0.016,1.729-0.08c-0.032,0.465-0.048,1.745-0.048,2.369v6.659c0,0.608,0.016,1.856,0.048,2.305H155.463z"/>
	<path fill="#42301F" d="M171.915,94.502c-1.232-0.017-2.305-0.032-3.746-0.032c-0.016,0.353-0.016,0.769-0.016,1.04v6.611
		c0,0.608,0.016,1.856,0.048,2.305h-1.729c0.08-0.769,0.112-2.817,0.112-3.857v-3.474c0-0.672,0-1.729-0.032-2.625
		c-1.44,0-2.577,0.016-3.793,0.032c0.048-0.4,0.064-0.929,0.064-1.425c1.441,0.048,2.817,0.08,4.546,0.08
		c1.745,0,3.201-0.032,4.674-0.08C171.962,93.542,171.931,93.99,171.915,94.502z"/>
	<path fill="#42301F" d="M184.026,104.491c-0.96-0.064-2.145-0.08-3.281-0.08c-1.137,0-2.337,0.016-3.266,0.08
		c0.08-0.769,0.112-2.882,0.112-3.922v-3.537c0-1.024-0.032-3.186-0.112-3.954c0.929,0.048,2.017,0.08,3.153,0.08
		c1.137,0,2.225-0.032,3.186-0.08c-0.08,0.464-0.112,0.881-0.128,1.393c-0.944-0.016-1.92-0.032-3.057-0.032
		c-0.48,0-0.992,0-1.457,0.017c-0.016,0.304-0.016,0.736-0.016,0.976v2.417l3.906-0.031c-0.032,0.384-0.048,0.912-0.048,1.376
		l-3.858-0.032v2.962c0,0.24,0,0.688,0.016,0.992c0.48,0,0.977,0.016,1.457,0.016c1.297,0,2.417-0.016,3.505-0.048
		C184.074,103.53,184.042,103.978,184.026,104.491z"/>
	<path fill="#42301F" d="M215.033,104.714c-3.281,0-5.794-2.545-5.794-5.763c0-3.361,2.609-6.05,6.099-6.05
		c1.2,0,2.673,0.432,3.553,1.008l-0.448,1.441c-0.8-0.641-2.177-1.024-3.265-1.024c-2.593,0-4.322,1.904-4.322,4.497
		c0,2.85,1.985,4.482,4.354,4.482c0.896,0,1.601-0.16,2.273-0.513v-2.001c0-0.24,0-0.672-0.032-0.96
		c-0.48-0.017-0.352-0.017-0.848-0.017c-0.8,0-1.265,0.017-2.177,0.049c0.032-0.545,0.032-1.057,0-1.44
		c0.977,0.031,1.457,0.048,2.177,0.048c1.12,0,1.584-0.017,2.529-0.064c-0.08,0.624-0.112,2.85-0.112,3.874v1.248
		C218.123,104.123,216.97,104.714,215.033,104.714z"/>
	<path fill="#42301F" d="M231.45,104.539l-2.897-4.546h-1.776v2.129c0,0.608,0.016,1.856,0.048,2.305h-1.729
		c0.08-0.769,0.112-2.817,0.112-3.857v-3.537c0-1.024-0.032-3.09-0.112-3.858c0.576,0,2.208-0.063,2.945-0.08
		c2.801-0.048,4.354,1.505,4.306,3.266c-0.048,1.553-0.848,2.593-2.369,3.266l1.648,2.417c0.432,0.608,1.312,1.841,1.681,2.289
		L231.45,104.539z M228.457,98.68c1.44,0,2.273-0.977,2.273-2.113c0-1.376-0.849-2.112-2.529-2.112
		c-0.528,0-0.992,0.016-1.424,0.048v4.178H228.457z"/>
	<path fill="#42301F" d="M240.904,96.231c0.624-1.345,1.041-2.289,1.393-3.218l0.416-0.111l3.842,8.259
		c0.464,1.009,1.072,2.306,1.568,3.266l-1.729,0.128l-1.505-3.346h-4.738l-0.064,0.16c-0.416,0.977-0.864,2.098-1.249,3.058h-1.729
		L240.904,96.231z M240.728,99.928h3.585l-1.792-4.033L240.728,99.928z"/>
	<path fill="#42301F" d="M256.568,104.426h-3.394c0.08-0.769,0.112-2.817,0.112-3.857v-3.537c0-1.024-0.032-3.09-0.112-3.858
		c0.576,0,1.601-0.08,3.122-0.08c3.985,0,6.083,2.466,6.083,5.362C262.379,101.945,260.042,104.426,256.568,104.426z
		 M256.264,94.455c-0.512,0-0.96,0.016-1.393,0.048c-0.016,0.288-0.016,0.736-0.016,0.992v6.595c0,0.272,0,0.576,0.016,0.896
		c0.48,0.048,0.849,0.08,1.44,0.08c3.217,0,4.45-2.033,4.45-4.402C260.762,96.135,259.177,94.455,256.264,94.455z"/>
	<path fill="#42301F" d="M274.745,104.491c-0.96-0.064-2.145-0.08-3.281-0.08c-1.137,0-2.337,0.016-3.266,0.08
		c0.08-0.769,0.112-2.882,0.112-3.922v-3.537c0-1.024-0.032-3.186-0.112-3.954c0.929,0.048,2.017,0.08,3.153,0.08
		c1.137,0,2.225-0.032,3.186-0.08c-0.08,0.464-0.112,0.881-0.128,1.393c-0.944-0.016-1.92-0.032-3.057-0.032
		c-0.48,0-0.992,0-1.457,0.017c-0.016,0.304-0.016,0.736-0.016,0.976v2.417l3.906-0.031c-0.032,0.384-0.048,0.912-0.048,1.376
		l-3.858-0.032v2.962c0,0.24,0,0.688,0.016,0.992c0.48,0,0.977,0.016,1.457,0.016c1.297,0,2.417-0.016,3.505-0.048
		C274.793,103.53,274.761,103.978,274.745,104.491z"/>
	<path fill="#42301F" d="M302.343,102.122c0,0.608,0.017,1.856,0.048,2.305h-1.729c0.08-0.769,0.112-2.817,0.112-3.857v-3.537
		c0-1.024-0.032-3.09-0.112-3.858c0.576,0,2.018-0.08,3.138-0.08c2.721,0,4.098,1.553,4.098,3.313c0,2.097-1.36,3.826-4.674,3.826
		c-0.272,0-0.593-0.017-0.881-0.032V102.122z M303.544,94.455c-0.448,0-0.736,0.016-1.201,0.048v4.401
		c0.288,0.032,0.608,0.048,0.896,0.048c1.905,0,3.041-0.848,3.041-2.305C306.28,95.254,305.433,94.455,303.544,94.455z"/>
	<path fill="#42301F" d="M319.753,104.491c-0.96-0.064-2.145-0.08-3.281-0.08c-1.136,0-2.32,0.016-3.265,0.08
		c0.08-0.769,0.111-2.882,0.111-3.922v-3.537c0-1.024-0.031-3.09-0.111-3.858c0.624,0,1.216-0.016,1.729-0.08
		c-0.032,0.465-0.048,1.745-0.048,2.369v6.627c0,0.256,0,0.672,0.031,0.992c0.448,0,0.961,0.017,1.441,0.017
		c1.296,0,2.417-0.017,3.505-0.049C319.802,103.498,319.77,103.978,319.753,104.491z"/>
	<path fill="#42301F" d="M327.384,96.231c0.624-1.345,1.04-2.289,1.393-3.218l0.416-0.111l3.842,8.259
		c0.464,1.009,1.072,2.306,1.568,3.266l-1.729,0.128l-1.505-3.346h-4.737l-0.064,0.16c-0.416,0.977-0.864,2.098-1.248,3.058h-1.729
		L327.384,96.231z M327.208,99.928h3.585L329,95.895L327.208,99.928z"/>
	<path fill="#42301F" d="M339.702,100.569l0.063-3.842c0.017-1.024,0-2.945-0.063-3.714l0.416-0.111l7.395,8.563v-4.434
		c0-1.024-0.031-3.09-0.128-3.858c0.625,0,1.232-0.016,1.777-0.08c-0.064,0.465-0.112,1.745-0.128,2.369l-0.112,6.755
		c-0.017,0.624-0.017,1.921,0.032,2.369l-0.417,0.112l-7.33-8.436v5.858c0,0.624,0.016,1.856,0.063,2.305h-1.761
		C339.605,103.658,339.686,101.609,339.702,100.569z"/>
	<path fill="#42301F" d="M363.642,94.502c-1.233-0.017-2.306-0.032-3.746-0.032c-0.016,0.353-0.016,0.769-0.016,1.04v6.611
		c0,0.608,0.016,1.856,0.048,2.305h-1.729c0.08-0.769,0.111-2.817,0.111-3.857v-3.474c0-0.672,0-1.729-0.031-2.625
		c-1.44,0-2.577,0.016-3.794,0.032c0.048-0.4,0.064-0.929,0.064-1.425c1.44,0.048,2.816,0.08,4.546,0.08
		c1.744,0,3.201-0.032,4.674-0.08C363.689,93.542,363.657,93.99,363.642,94.502z"/>
	<path fill="#42301F" d="M391.943,104.714c-1.041,0-2.321-0.4-3.153-0.944l0.096-1.665c0.641,0.576,1.953,1.201,3.153,1.201
		c1.217,0,2.064-0.625,2.064-1.825c0-2.209-4.865-2.385-4.865-5.33c0-1.809,1.456-3.249,3.537-3.249
		c1.057,0,1.984,0.368,2.609,0.832l-0.513,1.377c-0.544-0.448-1.44-0.801-2.161-0.801c-1.136,0-1.904,0.656-1.904,1.648
		c0,2.049,4.866,2.113,4.866,5.314C395.673,103.194,394.264,104.714,391.943,104.714z"/>
	<path fill="#42301F" d="M409.321,94.502c-1.233-0.017-2.306-0.032-3.746-0.032c-0.016,0.353-0.016,0.769-0.016,1.04v6.611
		c0,0.608,0.016,1.856,0.048,2.305h-1.729c0.08-0.769,0.111-2.817,0.111-3.857v-3.474c0-0.672,0-1.729-0.031-2.625
		c-1.44,0-2.577,0.016-3.794,0.032c0.048-0.4,0.064-0.929,0.064-1.425c1.44,0.048,2.816,0.08,4.546,0.08
		c1.744,0,3.201-0.032,4.674-0.08C409.369,93.542,409.337,93.99,409.321,94.502z"/>
	<path fill="#42301F" d="M421.224,104.539l-2.896-4.546h-1.777v2.129c0,0.608,0.017,1.856,0.048,2.305h-1.729
		c0.08-0.769,0.112-2.817,0.112-3.857v-3.537c0-1.024-0.032-3.09-0.112-3.858c0.576,0,2.209-0.063,2.945-0.08
		c2.802-0.048,4.354,1.505,4.306,3.266c-0.048,1.553-0.848,2.593-2.369,3.266l1.649,2.417c0.432,0.608,1.312,1.841,1.681,2.289
		L421.224,104.539z M418.23,98.68c1.44,0,2.273-0.977,2.273-2.113c0-1.376-0.849-2.112-2.529-2.112
		c-0.528,0-0.992,0.016-1.425,0.048v4.178H418.23z"/>
	<path fill="#42301F" d="M437.209,95.462v4.29c0,1.873-0.4,2.849-1.232,3.665c-0.849,0.849-1.969,1.297-3.537,1.297
		c-2.514,0-4.29-1.585-4.29-4.13v-3.553c0-1.024-0.032-3.09-0.112-3.858c0.641,0,1.217-0.016,1.745-0.08
		c-0.048,0.465-0.064,1.745-0.064,2.369v4.61c0,2.385,1.185,3.249,3.025,3.249c1.825,0,2.897-1.12,2.897-2.913v-3.377
		c0-1.024-0.032-3.09-0.128-3.858c0.64,0,1.232-0.016,1.776-0.08C437.226,93.558,437.209,94.838,437.209,95.462z"/>
	<path fill="#42301F" d="M452.217,103.434c-1.072,0.832-2.305,1.28-3.665,1.28c-3.281,0-5.603-2.609-5.603-5.618
		c0-3.457,2.497-6.194,5.906-6.194c1.201,0,2.481,0.4,3.329,1.008l-0.447,1.441c-0.801-0.625-1.89-1.024-2.978-1.024
		c-2.449,0-4.193,1.92-4.193,4.434c0,2.929,1.809,4.546,4.081,4.546c1.505,0,2.609-0.608,3.682-1.617L452.217,103.434z"/>
	<path fill="#42301F" d="M465.961,94.502c-1.233-0.017-2.306-0.032-3.746-0.032c-0.016,0.353-0.016,0.769-0.016,1.04v6.611
		c0,0.608,0.016,1.856,0.048,2.305h-1.729c0.08-0.769,0.111-2.817,0.111-3.857v-3.474c0-0.672,0-1.729-0.031-2.625
		c-1.44,0-2.577,0.016-3.794,0.032c0.048-0.4,0.064-0.929,0.064-1.425c1.44,0.048,2.816,0.08,4.546,0.08
		c1.744,0,3.201-0.032,4.674-0.08C466.009,93.542,465.977,93.99,465.961,94.502z"/>
	<path fill="#42301F" d="M480.521,95.462v4.29c0,1.873-0.4,2.849-1.232,3.665c-0.849,0.849-1.969,1.297-3.537,1.297
		c-2.514,0-4.29-1.585-4.29-4.13v-3.553c0-1.024-0.032-3.09-0.112-3.858c0.641,0,1.217-0.016,1.745-0.08
		c-0.048,0.465-0.064,1.745-0.064,2.369v4.61c0,2.385,1.185,3.249,3.025,3.249c1.825,0,2.897-1.12,2.897-2.913v-3.377
		c0-1.024-0.032-3.09-0.128-3.858c0.64,0,1.232-0.016,1.776-0.08C480.538,93.558,480.521,94.838,480.521,95.462z"/>
	<path fill="#42301F" d="M493.319,104.539l-2.896-4.546h-1.777v2.129c0,0.608,0.017,1.856,0.048,2.305h-1.729
		c0.08-0.769,0.112-2.817,0.112-3.857v-3.537c0-1.024-0.032-3.09-0.112-3.858c0.576,0,2.209-0.063,2.945-0.08
		c2.802-0.048,4.354,1.505,4.306,3.266c-0.048,1.553-0.848,2.593-2.369,3.266l1.649,2.417c0.432,0.608,1.312,1.841,1.681,2.289
		L493.319,104.539z M490.326,98.68c1.44,0,2.273-0.977,2.273-2.113c0-1.376-0.849-2.112-2.529-2.112
		c-0.528,0-0.992,0.016-1.425,0.048v4.178H490.326z"/>
	<path fill="#42301F" d="M507.016,104.491c-0.96-0.064-2.145-0.08-3.281-0.08c-1.136,0-2.337,0.016-3.265,0.08
		c0.08-0.769,0.111-2.882,0.111-3.922v-3.537c0-1.024-0.031-3.186-0.111-3.954c0.928,0.048,2.017,0.08,3.153,0.08
		c1.136,0,2.225-0.032,3.185-0.08c-0.08,0.464-0.111,0.881-0.128,1.393c-0.944-0.016-1.921-0.032-3.057-0.032
		c-0.48,0-0.993,0-1.457,0.017c-0.016,0.304-0.016,0.736-0.016,0.976v2.417l3.905-0.031c-0.032,0.384-0.048,0.912-0.048,1.376
		l-3.857-0.032v2.962c0,0.24,0,0.688,0.016,0.992c0.48,0,0.977,0.016,1.457,0.016c1.296,0,2.417-0.016,3.505-0.048
		C507.064,103.53,507.032,103.978,507.016,104.491z"/>
</g>
</svg>
