<?xml version="1.0" encoding="utf-8"?>
<!-- Generator: Adobe Illustrator 17.0.0, SVG Export Plug-In . SVG Version: 6.00 Build 0)  -->
<!DOCTYPE svg PUBLIC "-//W3C//DTD SVG 1.1//EN" "http://www.w3.org/Graphics/SVG/1.1/DTD/svg11.dtd">
<svg version="1.1" id="Layer_1" xmlns="http://www.w3.org/2000/svg" xmlns:xlink="http://www.w3.org/1999/xlink" x="0px" y="0px"
	 width="454.719px" height="34.684px" viewBox="0 0 454.719 34.684" enable-background="new 0 0 454.719 34.684"
	 xml:space="preserve">
<g>
	<path fill="#5F5140" d="M18.987,34.167L9.869,20.021H3.713v7.049c0,1.786,0.047,5.452,0.094,6.77H0
		c0.188-2.256,0.282-8.271,0.282-11.326V12.125C0.282,9.118,0.188,3.008,0,0.752c1.927,0,6.109-0.143,8.271-0.188
		c7.802-0.094,11.984,4.229,11.89,9.211c-0.094,4.606-2.679,7.754-7.096,9.446l5.075,7.567c1.222,1.833,3.713,5.311,4.888,6.859
		L18.987,34.167z M9.211,17.107c4.653,0,7.378-3.194,7.378-6.859c0-4.185-2.679-6.627-8.083-6.627c-1.692,0-3.384,0-4.793,0.094
		v13.394L9.211,17.107L9.211,17.107z"/>
	<path fill="#5F5140" d="M52.497,7.52v13.159c0,5.123-1.222,8.083-3.572,10.433c-2.397,2.352-5.593,3.572-9.87,3.572
		c-7.284,0-12.454-4.465-12.454-12.079v-10.48c0-3.008-0.047-9.071-0.235-11.327c1.363,0,2.679-0.047,3.854-0.188
		c-0.14,1.364-0.14,5.077-0.14,6.91v13.911c0,7.238,3.712,10.151,9.681,10.151c5.734,0,9.306-3.525,9.306-9.494v-9.963
		c0-3.008-0.047-9.071-0.282-11.327c1.363,0,2.679-0.047,3.901-0.188C52.544,1.974,52.497,5.687,52.497,7.52z"/>
	<path fill="#5F5140" d="M78.582,34.167l-9.117-14.146h-6.157v7.049c0,1.786,0.047,5.452,0.094,6.77h-3.807
		c0.188-2.256,0.282-8.271,0.282-11.326V12.125c0-3.008-0.094-9.118-0.282-11.374c1.927,0,6.11-0.143,8.271-0.188
		c7.801-0.094,11.984,4.229,11.89,9.211c-0.094,4.606-2.679,7.754-7.097,9.446l5.076,7.567c1.222,1.833,3.712,5.311,4.888,6.859
		L78.582,34.167z M68.807,17.107c4.653,0,7.378-3.194,7.378-6.859c0-4.185-2.679-6.627-8.083-6.627c-1.692,0-3.384,0-4.793,0.094
		v13.394L68.807,17.107L68.807,17.107z"/>
	<path fill="#5F5140" d="M95.22,10.057c2.021-4.464,3.243-7.188,4.23-9.773L100.39,0l11.326,24.909
		c1.457,3.29,3.243,7.049,4.183,8.929l-3.76,0.329l-4.888-10.903H92.683l-0.752,1.739c-1.316,3.147-2.82,6.956-3.572,8.835h-3.854
		L95.22,10.057z M93.951,20.397h12.031L99.967,6.626L93.951,20.397z"/>
	<path fill="#5F5140" d="M140.292,33.979c-2.82-0.141-6.156-0.188-9.446-0.188c-3.196,0-6.626,0.047-9.353,0.188
		c0.188-2.256,0.282-8.413,0.282-11.467V12.125c0-3.008-0.094-9.071-0.282-11.327c1.316,0,2.679-0.047,3.807-0.188
		c-0.047,1.363-0.094,5.076-0.094,6.909v19.504c0,1.081,0,2.728,0.094,3.809c1.316,0,3.948,0.047,5.358,0.047
		c3.619,0,6.862-0.047,9.917-0.094C140.386,31.77,140.339,32.851,140.292,33.979z"/>
	<path fill="#5F5140" d="M184.659,33.979c-2.82-0.141-6.157-0.188-9.446-0.188c-3.196,0-6.626,0.047-9.353,0.188
		c0.188-2.256,0.282-8.413,0.282-11.467V12.125c0-3.008-0.094-9.071-0.282-11.327c1.316,0,2.679-0.047,3.807-0.188
		c-0.047,1.363-0.094,5.076-0.094,6.909v19.504c0,1.081,0,2.728,0.094,3.809c1.315,0,3.947,0.047,5.357,0.047
		c3.619,0,6.861-0.047,9.917-0.094C184.753,31.77,184.706,32.851,184.659,33.979z"/>
	<path fill="#5F5140" d="M199.511,10.057c2.021-4.464,3.243-7.188,4.23-9.773L204.681,0l11.326,24.909
		c1.457,3.29,3.243,7.049,4.183,8.929l-3.76,0.329l-4.888-10.903h-14.569l-0.752,1.739c-1.316,3.147-2.82,6.956-3.572,8.835h-3.854
		L199.511,10.057z M198.242,20.397h12.031l-6.016-13.771L198.242,20.397z"/>
	<path fill="#5F5140" d="M225.925,22.512l0.141-10.998c0-3.008,0-9.021-0.188-11.279L226.865,0l22.605,27.493V12.125
		c0-3.008-0.096-9.071-0.283-11.327c1.315,0,2.727-0.047,3.854-0.188c-0.143,1.363-0.234,5.076-0.234,6.909l-0.234,19.739
		c-0.047,1.833-0.047,5.828,0.094,7.144l-0.986,0.235L229.215,7.473V27.07c0,1.833,0.047,5.452,0.141,6.77h-3.854
		C225.737,31.582,225.878,25.566,225.925,22.512z"/>
	<path fill="#5F5140" d="M269.682,33.838h-9.306c0.188-2.256,0.282-8.271,0.282-11.326V12.125c0-3.008-0.094-9.071-0.282-11.327
		c1.692,0,4.794-0.235,8.931-0.235c11.514,0,17.904,7.099,17.904,15.838C287.211,26.553,280.35,33.838,269.682,33.838z
		 M269.165,3.619c-2.067,0-3.808,0.047-5.028,0.141c-0.048,0.987-0.048,2.726-0.048,3.807v19.457c0,1.128,0,2.538,0.048,3.572
		c1.456,0.141,3.383,0.235,5.075,0.235c9.963,0,14.429-6.25,14.429-13.958C283.641,8.977,278.471,3.619,269.165,3.619z"/>
	<path fill="#5F5140" d="M301.688,34.684c-3.146,0-6.768-1.175-9.164-2.679l0.235-3.712c1.974,1.645,5.687,3.29,9.117,3.29
		c4.37,0,7.049-2.538,7.049-6.157c0-7.19-15.086-7.332-15.086-16.167c0-5.123,4.042-9.258,10.151-9.258
		c2.961,0,5.593,0.985,7.52,2.303l-1.128,3.055c-1.785-1.314-4.229-2.256-6.532-2.256c-4.041,0-6.578,2.443-6.578,5.733
		c0,6.812,15.087,6.768,15.087,16.12C312.357,30.219,308.409,34.684,301.688,34.684z"/>
	<path fill="#5F5140" d="M344.928,31.065c-2.961,2.305-6.533,3.619-10.621,3.619c-9.729,0-16.309-7.755-16.309-16.637
		C317.998,7.99,325.142,0,335.199,0c3.522,0,7.05,1.081,9.588,2.867l-1.034,3.147c-2.351-1.786-5.452-2.867-8.789-2.867
		c-7.896,0-13.438,6.25-13.438,14.146c0,8.601,5.402,14.287,13.018,14.287c4.371,0,7.708-1.692,10.621-4.417L344.928,31.065z"/>
	<path fill="#5F5140" d="M358.511,10.057c2.021-4.464,3.243-7.188,4.229-9.773L363.681,0l11.326,24.909
		c1.457,3.29,3.243,7.049,4.185,8.929l-3.762,0.329l-4.888-10.903h-14.569l-0.752,1.739c-1.313,3.147-2.817,6.956-3.569,8.835
		h-3.854L358.511,10.057z M357.242,20.397h12.031l-6.018-13.771L357.242,20.397z"/>
	<path fill="#5F5140" d="M388.45,27.07c0,1.786,0.047,5.452,0.094,6.77h-3.807c0.188-2.256,0.28-8.271,0.28-11.326V12.125
		c0-3.008-0.094-9.118-0.28-11.374c1.645,0,5.17-0.188,8.036-0.188c7.849,0,11.844,4.185,11.844,9.493
		c0,5.969-3.948,10.668-13.582,10.668c-0.799,0-1.739,0-2.585-0.047V27.07z M392.163,3.619c-1.271,0-2.397,0.047-3.713,0.094v14.052
		c0.846,0.094,1.88,0.143,2.679,0.143c6.58,0,9.916-2.914,9.916-7.284C401.045,6.062,398.179,3.619,392.163,3.619z"/>
	<path fill="#5F5140" d="M429.573,33.979c-2.772-0.141-6.157-0.188-9.446-0.188c-3.243,0-6.627,0.047-9.259,0.233
		c0.188-2.256,0.233-8.459,0.233-11.514V12.125c0-3.008-0.047-9.308-0.233-11.562c2.632,0.096,5.78,0.188,8.977,0.188
		c3.243,0,6.438-0.094,9.212-0.188c-0.233,1.034-0.28,1.976-0.329,3.104c-2.727,0-5.593-0.047-8.883-0.047
		c-1.361,0-3.898,0-5.217,0.047c-0.047,1.128-0.047,2.867-0.047,3.807v7.566l12.267-0.096c-0.095,0.895-0.142,2.021-0.142,3.057
		l-12.125-0.047v9.116c0,0.94,0,2.681,0.047,3.809c1.551,0.047,3.572,0.047,5.17,0.047c3.713,0,6.908-0.047,10.06-0.141
		C429.667,31.865,429.573,32.851,429.573,33.979z"/>
	<path fill="#5F5140" d="M444.05,34.684c-3.146,0-6.768-1.175-9.164-2.679l0.235-3.712c1.974,1.645,5.687,3.29,9.117,3.29
		c4.37,0,7.049-2.538,7.049-6.157c0-7.19-15.086-7.332-15.086-16.167c0-5.123,4.042-9.258,10.149-9.258
		c2.961,0,5.595,0.985,7.521,2.303l-1.128,3.055c-1.785-1.314-4.229-2.256-6.532-2.256c-4.042,0-6.579,2.443-6.579,5.733
		c0,6.812,15.086,6.768,15.086,16.12C454.719,30.219,450.771,34.684,444.05,34.684z"/>
</g>
</svg>
