<?xml version="1.0" encoding="utf-8"?>
<!-- Generator: Adobe Illustrator 17.0.0, SVG Export Plug-In . SVG Version: 6.00 Build 0)  -->
<!DOCTYPE svg PUBLIC "-//W3C//DTD SVG 1.1//EN" "http://www.w3.org/Graphics/SVG/1.1/DTD/svg11.dtd">
<svg version="1.1" id="Layer_1" xmlns="http://www.w3.org/2000/svg" xmlns:xlink="http://www.w3.org/1999/xlink" x="0px" y="0px"
	 width="469.289px" height="34.684px" viewBox="0 0 469.289 34.684" enable-background="new 0 0 469.289 34.684"
	 xml:space="preserve">
<g>
	<path fill="#81673F" d="M26.13,7.52v13.159c0,5.123-1.222,8.083-3.572,10.433c-2.397,2.352-5.593,3.572-9.87,3.572
		c-7.284,0-12.454-4.465-12.454-12.079v-10.48C0.235,9.118,0.188,3.055,0,0.799c1.363,0,2.679-0.047,3.854-0.188
		C3.713,1.974,3.713,5.687,3.713,7.52v13.911c0,7.238,3.712,10.151,9.681,10.151c5.734,0,9.306-3.525,9.306-9.494v-9.963
		c0-3.008-0.047-9.071-0.282-11.327c1.363,0,2.679-0.047,3.901-0.188C26.177,1.974,26.13,5.687,26.13,7.52z"/>
	<path fill="#81673F" d="M52.686,34.167l-9.118-14.146h-6.156v7.049c0,1.786,0.047,5.452,0.094,6.77h-3.807
		c0.188-2.256,0.282-8.271,0.282-11.326V12.125c0-3.008-0.094-9.118-0.282-11.374c1.927,0,6.109-0.143,8.271-0.188
		c7.802-0.094,11.984,4.229,11.89,9.211c-0.094,4.606-2.679,7.754-7.096,9.446l5.075,7.567c1.222,1.833,3.713,5.311,4.888,6.859
		L52.686,34.167z M42.91,17.107c4.653,0,7.378-3.194,7.378-6.859c0-4.185-2.679-6.627-8.083-6.627c-1.692,0-3.384,0-4.793,0.094
		v13.394L42.91,17.107L42.91,17.107z"/>
	<path fill="#81673F" d="M62.932,33.838c0.188-2.256,0.235-8.271,0.235-11.326V12.125c0-3.008-0.047-9.071-0.235-11.327
		c1.457,0,6.062-0.188,8.178-0.188c8.225,0,11.373,4.138,11.373,8.227c0,3.572-2.256,6.298-5.78,7.378
		c4.935,1.222,7.331,4.277,7.331,8.178c0,5.357-4.371,9.446-12.031,9.446L62.932,33.838L62.932,33.838z M70.64,15.18
		c5.546,0,8.319-2.491,8.319-5.969c0-3.479-2.538-5.593-8.131-5.593c-1.88,0-3.243,0.094-4.229,0.141
		c-0.047,0.517-0.047,2.632-0.047,3.102v5.218c0,0.656,0,2.585,0.047,3.008C67.303,15.133,69.794,15.18,70.64,15.18z M71.815,30.783
		c5.311,0,8.694-2.115,8.694-6.439c0-3.712-3.008-6.344-9.775-6.344c-1.598,0-2.961,0-4.183,0.094v8.977c0,1.13,0,2.444,0.047,3.525
		C68.337,30.736,70.217,30.783,71.815,30.783z"/>
	<path fill="#81673F" d="M97.758,10.057c2.021-4.464,3.243-7.188,4.23-9.773L102.928,0l11.326,24.909
		c1.457,3.29,3.243,7.049,4.183,8.929l-3.76,0.329l-4.888-10.903H95.221l-0.752,1.739c-1.316,3.147-2.82,6.956-3.572,8.835h-3.854
		L97.758,10.057z M96.49,20.397h12.031l-6.016-13.771L96.49,20.397z"/>
	<path fill="#81673F" d="M124.172,22.512l0.141-10.998c0-3.008,0-9.021-0.188-11.279L125.112,0l22.605,27.493V12.125
		c0-3.008-0.094-9.071-0.282-11.327c1.316,0,2.726-0.047,3.854-0.188c-0.141,1.363-0.235,5.076-0.235,6.909l-0.235,19.739
		c-0.047,1.833-0.047,5.828,0.094,7.144l-0.987,0.235L127.462,7.473V27.07c0,1.833,0.047,5.452,0.141,6.77h-3.854
		C123.984,31.582,124.125,25.566,124.172,22.512z"/>
	<path fill="#81673F" d="M199.229,33.979c-2.82-0.141-6.157-0.188-9.446-0.188c-3.196,0-6.626,0.047-9.353,0.188
		c0.188-2.256,0.282-8.413,0.282-11.467V12.125c0-3.008-0.094-9.071-0.282-11.327c1.316,0,2.679-0.047,3.807-0.188
		c-0.047,1.363-0.094,5.076-0.094,6.909v19.504c0,1.081,0,2.728,0.094,3.809c1.315,0,3.947,0.047,5.357,0.047
		c3.619,0,6.861-0.047,9.917-0.094C199.323,31.77,199.276,32.851,199.229,33.979z"/>
	<path fill="#81673F" d="M214.082,10.057c2.021-4.464,3.243-7.188,4.23-9.773L219.251,0l11.326,24.909
		c1.457,3.29,3.243,7.049,4.183,8.929L231,34.167l-4.888-10.903h-14.569l-0.752,1.739c-1.316,3.147-2.82,6.956-3.572,8.835h-3.854
		L214.082,10.057z M212.813,20.397h12.031l-6.016-13.771L212.813,20.397z"/>
	<path fill="#81673F" d="M240.496,22.512l0.141-10.998c0-3.008,0-9.021-0.188-11.279L241.436,0l22.605,27.493V12.125
		c0-3.008-0.094-9.071-0.282-11.327c1.316,0,2.726-0.047,3.854-0.188c-0.141,1.363-0.235,5.076-0.235,6.909l-0.233,19.739
		c-0.047,1.833-0.047,5.828,0.095,7.144l-0.986,0.235L243.786,7.473V27.07c0,1.833,0.047,5.452,0.141,6.77h-3.854
		C240.309,31.582,240.449,25.566,240.496,22.512z"/>
	<path fill="#81673F" d="M284.251,33.838h-9.306c0.188-2.256,0.281-8.271,0.281-11.326V12.125c0-3.008-0.095-9.071-0.281-11.327
		c1.691,0,4.794-0.235,8.93-0.235c11.516,0,17.906,7.099,17.906,15.838C301.782,26.553,294.92,33.838,284.251,33.838z
		 M283.734,3.619c-2.066,0-3.808,0.047-5.027,0.141c-0.047,0.987-0.047,2.726-0.047,3.807v19.457c0,1.128,0,2.538,0.047,3.572
		c1.457,0.141,3.384,0.235,5.075,0.235c9.964,0,14.429-6.25,14.429-13.958C298.21,8.977,293.041,3.619,283.734,3.619z"/>
	<path fill="#81673F" d="M316.258,34.684c-3.146,0-6.768-1.175-9.164-2.679l0.235-3.712c1.974,1.645,5.687,3.29,9.117,3.29
		c4.37,0,7.049-2.538,7.049-6.157c0-7.19-15.086-7.332-15.086-16.167c0-5.123,4.042-9.258,10.149-9.258
		c2.963,0,5.595,0.985,7.521,2.303l-1.128,3.055c-1.785-1.314-4.229-2.256-6.532-2.256c-4.042,0-6.579,2.443-6.579,5.733
		c0,6.812,15.086,6.768,15.086,16.12C326.927,30.219,322.979,34.684,316.258,34.684z"/>
	<path fill="#81673F" d="M359.498,31.065c-2.961,2.305-6.533,3.619-10.621,3.619c-9.729,0-16.309-7.755-16.309-16.637
		C332.568,7.99,339.711,0,349.769,0c3.524,0,7.052,1.081,9.59,2.867l-1.034,3.147c-2.353-1.786-5.452-2.867-8.789-2.867
		c-7.896,0-13.44,6.25-13.44,14.146c0,8.601,5.404,14.287,13.02,14.287c4.371,0,7.708-1.692,10.621-4.417L359.498,31.065z"/>
	<path fill="#81673F" d="M373.081,10.057c2.021-4.464,3.243-7.188,4.229-9.773L378.25,0l11.326,24.909
		c1.457,3.29,3.243,7.049,4.183,8.929L390,34.167l-4.888-10.903h-14.569l-0.752,1.739c-1.315,3.147-2.819,6.956-3.571,8.835h-3.854
		L373.081,10.057z M371.812,20.397h12.029l-6.016-13.771L371.812,20.397z"/>
	<path fill="#81673F" d="M403.02,27.07c0,1.786,0.049,5.452,0.096,6.77h-3.809c0.188-2.256,0.282-8.271,0.282-11.326V12.125
		c0-3.008-0.094-9.118-0.282-11.374c1.646,0,5.17-0.188,8.036-0.188c7.851,0,11.844,4.185,11.844,9.493
		c0,5.969-3.946,10.668-13.58,10.668c-0.801,0-1.739,0-2.587-0.047L403.02,27.07L403.02,27.07z M406.733,3.619
		c-1.271,0-2.397,0.047-3.715,0.094v14.052c0.848,0.094,1.882,0.143,2.681,0.143c6.58,0,9.916-2.914,9.916-7.284
		C415.615,6.062,412.749,3.619,406.733,3.619z"/>
	<path fill="#81673F" d="M444.143,33.979c-2.771-0.141-6.155-0.188-9.444-0.188c-3.243,0-6.627,0.047-9.261,0.233
		c0.188-2.256,0.235-8.459,0.235-11.514V12.125c0-3.008-0.047-9.308-0.235-11.562c2.634,0.096,5.78,0.188,8.979,0.188
		c3.243,0,6.438-0.094,9.212-0.188c-0.235,1.034-0.282,1.976-0.329,3.104c-2.727,0-5.593-0.047-8.883-0.047
		c-1.363,0-3.9,0-5.217,0.047c-0.047,1.128-0.047,2.867-0.047,3.807v7.566l12.267-0.096c-0.095,0.895-0.142,2.021-0.142,3.057
		l-12.125-0.047v9.116c0,0.94,0,2.681,0.047,3.809c1.551,0.047,3.57,0.047,5.17,0.047c3.713,0,6.908-0.047,10.058-0.141
		C444.237,31.865,444.143,32.851,444.143,33.979z"/>
	<path fill="#81673F" d="M458.62,34.684c-3.148,0-6.77-1.175-9.164-2.679l0.235-3.712c1.974,1.645,5.687,3.29,9.115,3.29
		c4.37,0,7.051-2.538,7.051-6.157c0-7.19-15.087-7.332-15.087-16.167c0-5.123,4.041-9.258,10.15-9.258
		c2.961,0,5.593,0.985,7.521,2.303l-1.128,3.055c-1.785-1.314-4.229-2.256-6.532-2.256c-4.042,0-6.579,2.443-6.579,5.733
		c0,6.812,15.086,6.768,15.086,16.12C469.289,30.219,465.34,34.684,458.62,34.684z"/>
</g>
</svg>
