<?xml version="1.0" encoding="utf-8"?>
<!-- Generator: Adobe Illustrator 17.0.0, SVG Export Plug-In . SVG Version: 6.00 Build 0)  -->
<!DOCTYPE svg PUBLIC "-//W3C//DTD SVG 1.1//EN" "http://www.w3.org/Graphics/SVG/1.1/DTD/svg11.dtd">
<svg version="1.1" id="Layer_1" xmlns="http://www.w3.org/2000/svg" xmlns:xlink="http://www.w3.org/1999/xlink" x="0px" y="0px"
	 width="538.708px" height="51.889px" viewBox="0 0 538.708 51.889" enable-background="new 0 0 538.708 51.889"
	 xml:space="preserve">
<g id="Layer_1_1_">
	<g>
		<path fill="#43311E" d="M174.647,30.809c-1.598,4.559-2.585,7.19-3.431,9.775l-0.94,0.282l-9.399-26.694l-6.204,16.919
			c-1.222,3.384-2.491,6.438-3.619,9.729h-0.939l-8.695-24.814c-1.175-3.337-2.538-7.097-3.336-8.977l3.76-0.282l8.976,26.413
			l6.439-17.765c0.799-2.35,2.726-7.66,3.102-8.788l0.987-0.282l9.399,26.835l5.875-17.389c1.034-3.055,2.256-6.908,2.867-8.835
			h3.807L174.647,30.809z"/>
		<path fill="#43311E" d="M187.48,13.279c-1.363,0-2.256-1.081-2.256-2.209c0-1.316,0.94-2.444,2.35-2.444
			c1.363,0,2.256,1.081,2.256,2.256C189.83,12.198,188.89,13.279,187.48,13.279z M185.553,39.973
			c0.188-2.021,0.235-5.029,0.235-7.801v-5.499c0-2.726-0.094-6.062-0.282-8.083c1.269,0,2.585-0.047,3.666-0.188
			c-0.094,0.846-0.141,4.23-0.141,5.358v11.56c0,1.645,0.047,3.431,0.141,4.653H185.553z"/>
		<path fill="#43311E" d="M194.766,39.973c0.188-2.021,0.235-5.029,0.235-7.801V14.501c0-3.196-0.047-5.734-0.235-7.896
			c1.222-0.094,2.538-0.235,3.619-0.47c-0.094,0.846-0.141,3.525-0.141,5.405v23.78c0,1.645,0.047,3.431,0.141,4.653H194.766z"/>
		<path fill="#43311E" d="M203.978,39.973c0.188-2.021,0.235-5.029,0.235-7.801V14.501c0-3.196-0.047-5.734-0.235-7.896
			c1.222-0.094,2.538-0.235,3.619-0.47c-0.094,0.846-0.141,3.525-0.141,5.405v23.78c0,1.645,0.047,3.431,0.141,4.653H203.978z"/>
		<path fill="#43311E" d="M215.116,13.279c-1.363,0-2.256-1.081-2.256-2.209c0-1.316,0.94-2.444,2.35-2.444
			c1.363,0,2.256,1.081,2.256,2.256C217.466,12.198,216.526,13.279,215.116,13.279z M213.189,39.973
			c0.188-2.021,0.235-5.029,0.235-7.801v-5.499c0-2.726-0.094-6.062-0.282-8.083c1.269,0,2.585-0.047,3.666-0.188
			c-0.094,0.846-0.141,4.23-0.141,5.358v11.56c0,1.645,0.047,3.431,0.141,4.653H213.189z"/>
		<path fill="#43311E" d="M237.347,39.973c0.188-2.021,0.282-5.264,0.282-7.99v-5.687c0-3.478-1.457-5.404-4.465-5.404
			c-3.525,0-7.285,3.807-7.285,6.392v7.848c0,1.645,0.047,3.478,0.141,4.841h-3.619c0.141-2.021,0.235-5.264,0.235-7.99v-5.357
			c0-2.726-0.094-5.969-0.235-7.989c1.222,0,2.115-0.094,3.196-0.188l0.235,4.653c1.598-2.584,4.888-5.076,8.224-5.076
			c4.23,0,6.815,2.538,6.815,7.52v9.587c0,1.645,0.094,3.619,0.141,4.841L237.347,39.973L237.347,39.973z"/>
		<path fill="#43311E" d="M253.797,33.676c-1.034,0-2.021-0.141-2.867-0.423c-1.41,0.799-2.115,1.551-2.115,2.303
			c0,1.128,1.128,1.833,4.841,1.833l2.021,0.047c5.734,0.094,8.647,1.739,8.647,5.264c0,4.136-5.076,7.66-11.608,7.66
			c-5.78,0-8.929-2.396-8.929-5.404c0-2.397,1.739-4.136,4.888-5.64c-1.645-0.658-2.773-1.692-2.773-3.102
			c0-1.598,1.128-2.773,3.102-3.901c-2.021-1.363-3.29-3.572-3.29-6.062c0-4.512,3.76-8.13,8.742-8.13
			c1.41,0,2.679,0.329,3.76,0.799c0.94-3.008,2.82-4.417,5.969-3.901l-0.235,2.867c-2.162-0.329-3.243,0.47-3.9,2.256
			c1.691,1.504,2.584,3.619,2.584,5.451C262.632,30.292,258.779,33.676,253.797,33.676z M251.541,40.02
			c-3.29,1.363-4.7,2.961-4.7,4.465c0,1.786,2.115,3.29,6.11,3.29c4.841,0,8.318-2.208,8.318-4.652c0-1.88-1.786-2.867-5.593-2.914
			l-1.739-0.047L251.541,40.02z M254.267,20.657c-3.149,0-5.452,2.538-5.452,5.264c0,3.337,2.256,5.17,5.264,5.17
			c3.243,0,5.499-2.35,5.499-5.17C259.578,22.725,257.322,20.657,254.267,20.657z"/>
		<path fill="#43311E" d="M295.672,40.114c-2.819-0.141-6.156-0.188-9.445-0.188c-3.196,0-6.627,0.047-9.354,0.188
			c0.188-2.256,0.283-8.413,0.283-11.467V18.261c0-3.008-0.095-9.071-0.283-11.327c1.316,0,2.68-0.047,3.808-0.188
			c-0.048,1.363-0.095,5.076-0.095,6.909v19.504c0,1.081,0,2.726,0.095,3.807c1.315,0,3.947,0.047,5.357,0.047
			c3.618,0,6.861-0.047,9.917-0.094C295.767,37.905,295.72,38.986,295.672,40.114z"/>
		<path fill="#43311E" d="M307.611,40.725c-6.25,0-10.292-4.841-10.292-10.809c0-6.674,4.276-11.891,10.903-11.891
			c6.298,0,10.387,4.888,10.387,10.81C318.609,35.508,314.285,40.725,307.611,40.725z M308.035,20.893
			c-4.512,0-7.52,3.807-7.52,8.506c0,5.452,2.961,8.459,7.331,8.459c4.653,0,7.52-3.807,7.52-8.554
			C315.366,23.9,312.17,20.893,308.035,20.893z"/>
		<path fill="#43311E" d="M333.461,39.456c-0.893,0.705-2.49,1.175-3.994,1.175c-3.666,0-5.311-2.115-5.311-5.78V21.315h-3.76
			l0.893-2.82h2.914l0.329-4.7l2.866-0.752v5.452h5.922c-0.094,0.799-0.141,1.551-0.141,2.82h-5.781v13.206
			c0,2.35,0.987,3.149,2.773,3.149c1.316,0,2.537-0.517,3.431-1.081L333.461,39.456z"/>
		<path fill="#43311E" d="M334.638,46.882l0.329-0.329c2.631-1.833,3.713-3.431,3.713-5.123c0-1.081-0.611-1.927-2.209-2.679
			l-0.658-0.282c0.517-1.692,1.645-2.585,2.867-2.585c1.645,0,3.008,1.551,3.008,3.854c0,3.055-2.021,5.969-5.922,8.788
			L334.638,46.882z"/>
		<path fill="#43311E" d="M357.337,39.973c0.142-1.739,0.188-5.734,0.188-8.083V20.281l-4.982,1.269l-0.517-2.914
			c2.161-0.517,4.605-1.175,6.062-1.598l2.303-0.658l0.517,0.376c-0.094,0.846-0.141,4.323-0.141,5.451v12.877
			c0,1.457,0.047,3.807,0.141,4.888L357.337,39.973L357.337,39.973z"/>
		<path fill="#43311E" d="M366.454,44.109c1.269,0.282,2.538,0.376,3.713,0.376c6.062,0,10.574-2.538,10.574-6.909
			c0-3.666-2.772-5.499-7.097-5.499c-2.067,0-3.524,0.235-5.17,0.564l-0.799-0.517c0.095-1.316,0.235-3.29,0.282-5.076l0.188-4.981
			c0.047-1.598,0.141-3.29,0.047-4.794l0.517-0.47c2.726,0.094,4.465,0.094,7.661,0.094c3.055,0,4.465-0.047,7.284-0.094
			c-0.235,0.799-0.376,2.256-0.423,3.196c-2.209-0.047-3.76-0.094-6.861-0.094h-5.076l-0.376,9.494
			c0.94-0.141,1.927-0.235,3.055-0.235c6.815,0,10.104,3.195,10.104,8.13c0,6.392-5.922,10.151-13.488,10.151
			c-1.315,0-2.584-0.094-3.666-0.329L366.454,44.109z"/>
		<path fill="#43311E" d="M392.022,39.973c0.142-1.739,0.188-5.734,0.188-8.083V20.281l-4.981,1.269l-0.518-2.914
			c2.162-0.517,4.605-1.175,6.062-1.598l2.303-0.658l0.518,0.376c-0.094,0.846-0.141,4.323-0.141,5.451v12.877
			c0,1.457,0.047,3.807,0.141,4.888L392.022,39.973L392.022,39.973z"/>
	</g>
</g>
<g id="Layer_2">
	<rect y="0" fill="none" width="538.708" height="51.889"/>
</g>
</svg>
